<?xml version="1.0" encoding="UTF-8"?>
<svg id="Capa_1" xmlns="http://www.w3.org/2000/svg" version="1.1" viewBox="0 0 60 55">
  <!-- Generator: Adobe Illustrator 29.0.0, SVG Export Plug-In . SVG Version: 2.1.0 Build 186)  -->
  <defs>
    <style>
      .st0 {
        fill: none;
      }

      .st1 {
        fill: #f4b30c;
      }
    </style>
  </defs>
  <rect class="st0" x="13.3" y="48.9" width="33.2" height="2.9"/>
  <path class="st0" d="M29.5,28.4c-1.6.2-2.9,2.1-3.1,3.5-.8,4.5,5.1,6.2,6.9,2.4,1.1-2.4-.9-6.4-3.8-5.9Z"/>
  <rect class="st0" x="13.3" y="3.2" width="33.2" height="2.9"/>
  <path class="st0" d="M46.8,9.3H13.1c-.2,2.5-.7,5.1-1,7.6-.7,6.3-.8,12.8-.2,19.1.3,3.2.9,6.4,1.2,9.6h33.7c.2-2.5.7-5.1,1-7.6.7-6.3.8-12.8.2-19.1-.3-3.2-.9-6.4-1.2-9.6ZM38.3,20.4c0,.4-.4,1.5-.6,1.9-.8,1.8-2.5,3.3-4.5,3.7,3.4,2.4,4.9,7.1,2.3,10.8-3,4.2-9.4,3.8-11.8-.7-2.1-4,.1-9.5,4.5-10.7v-10.1h3.2v2.6c.3-.2.7-.4,1-.5.2,0,1.1-.3,1.2-.3h4.6v3.4h0Z"/>
  <path class="st0" d="M31.7,22.9c1.7,0,3-1.1,3.3-2.7-1.6,0-3.1,1.1-3.3,2.7Z"/>
  <path class="st1" d="M51.2,37c.6-6.7.6-13.4,0-20.1-.3-2.9-1-6-1.2-8.8-.2-2.6,0-5.5,0-8.1H10c-.1,2.7.2,5.5,0,8.1-.2,3.2-1,6.6-1.3,9.9-.7,6.7-.6,13.4.1,20.1.3,2.9,1,6,1.2,8.8.2,2.6-.1,5.5,0,8.1h39.9c0-2.7-.2-5.5,0-8.1.2-3.2,1-6.6,1.3-9.9ZM13.3,3.2h33.2v2.9H13.3v-2.9ZM46.6,51.8H13.3v-2.9h33.2v2.9h0ZM47.7,38.1c-.3,2.5-.7,5-1,7.6H13.1c-.3-3.2-.9-6.4-1.2-9.6-.6-6.3-.5-12.8.2-19.1.3-2.5.7-5,1-7.6h33.7c.3,3.2.9,6.4,1.2,9.6.6,6.3.4,12.8-.2,19.1h-.1Z"/>
  <path class="st1" d="M32.6,17.3c-.4.1-.7.3-1,.5v-2.6h-3.2v10.1c-4.4,1.2-6.7,6.7-4.5,10.7,2.4,4.5,8.8,4.9,11.8.7,2.6-3.6,1.1-8.3-2.3-10.8,2-.4,3.7-1.9,4.5-3.7.2-.4.6-1.5.6-1.9v-3.4h-4.6s-1,.3-1.2.3h0ZM33.3,34.3c-1.8,3.8-7.7,2.1-6.9-2.4.3-1.5,1.6-3.3,3.1-3.5,2.9-.5,4.9,3.5,3.8,5.9ZM31.7,22.9c.2-1.6,1.7-2.7,3.3-2.7-.4,1.6-1.7,2.7-3.3,2.7Z"/>
</svg>