<?xml version="1.0" encoding="UTF-8"?>
<svg id="Capa_1" xmlns="http://www.w3.org/2000/svg" width="674" height="227" version="1.1" viewBox="0 0 674 227">
  <!-- Generator: Adobe Illustrator 29.0.0, SVG Export Plug-In . SVG Version: 2.1.0 Build 186)  -->
  <defs>
    <style>
      .st0 {
        fill: #e52622;
      }
    </style>
  </defs>
  <path class="st0" d="M75.6,74.3c.5-.5,1.1-1,1.6-1.5.6-.5,1.1-.9,1.6-1.2,1.4-1.2,2.9-2.1,4.3-2.8,1.4-.7,3.1-1.2,5-1.5,1.2,0,2.2,0,3.3.3,1,.3,2.2.7,3.4,1.3-.1.4-.2.8-.3,1.1,0,.3,0,.6,0,.9.4.8,1,1.3,1.9,1.2.8,0,1.9,0,3.1,0-.7.3-1.2.5-1.6.7-.3.1-.7.3-1.2.6-.2.1-.5.3-.8.5-.3.2-.6.4-.7.7-2,1.3-3.8,2.9-5.4,4.8-5.5,6.2-10.3,13.1-14.4,20.5-.7,1.1-1.3,2.2-1.7,3.4-.4,1.2-.4,2.3-.2,3.5-.5.4-1,.5-1.3.3-.3-.2-.6-.5-.7-.8-.2-1-.1-2.1.1-3.2.2-.8.3-1.4.6-2s.5-1.2.7-1.9c.2-.3.3-.6.4-.9,0-.3.1-.6.3-.9-.6-.2-1.1-.2-1.5,0-.4.2-.6.5-.8.9-.6,1.1-1,2.3-1.4,3.6-.4,1.3-.6,2.6-.7,3.9-1.3-.7-2.2-1.4-2.9-1.8-.7-.5-1.1-1-1.4-1.6-.3-.6-.5-1.3-.6-2.1-.1-.8-.2-2-.3-3.6-.2.7-.4,1.3-.5,1.9-.1.5-.3,1.1-.4,1.8-.4-1-.6-1.7-.6-2,0-.3,0-.7.2-1.1,0-.1,0-.3,0-.5,0-.2,0-.5.2-.7,1.2-2.6,1.8-5.2,1.9-8,0-2.7,0-5.5-.3-8.3,0-.3,0-.5,0-.9,0-.3,0-.7,0-1.3-.5.2-.9.3-1.2.4-.4.1-.7.3-1.1.6-1.7,1.1-3.3,2.4-4.8,3.9-1.5,1.5-2.9,3-4.3,4.6-3.6,3.9-6.8,8.1-9.7,12.5-2.8,4.4-5.3,9.1-7.2,14.1-.7,1.8-1.3,3.6-1.9,5.6-.5,2-1,3.9-1.4,5.8-.5,1.6-.7,3.4-.7,5.1,0,1.8.2,3.5.5,5.2,0,.1,0,.3.1.5,0,.2.2.4.3.5v.2c.7,0,1.4,0,2-.4s1.3-.5,1.9-.8c2.8-1.5,5.5-3.2,8.1-5.2,2.6-2,5-4.1,7.4-6.4,1.9-1.6,3.7-3.2,5.5-4.8,1.8-1.6,3.5-3.2,5.2-4.8,1.7-2,3.7-2.2,6.1-.7-.9,1.2-1.8,2.3-2.6,3.4-.8,1.1-1.7,2.2-2.7,3.4.5-.2,1-.3,1.3-.4.4-.1.7-.3,1-.4.3-.2.6-.4,1-.6.4-.2.9-.6,1.5-1.1.7-.6,1.5-1.2,2.2-1.7.8-.5,1.5-1,2.2-1.5.3.3.6.7.8,1.1.2.4.6.7,1.1.8.4.1.8.4,1.1.8.3.4.7.7,1.1.9h.3c.2,0,.4,0,.7-.2,0,.1,0,.2,0,.3,0,0,0,.2-.1.3-.6,1.5-1.3,2.9-2.2,4.3-.9,1.3-1.9,2.6-3,3.7-2.3,2.5-4.8,4.9-7.3,7.1-2.5,2.2-5.1,4.2-7.9,6-1.2.8-2.4,1.5-3.6,2.1-1.2.6-2.4,1.3-3.4,1.9-2.9,1.4-5.9,2.1-8.9,2.2s-6-.3-9-1.1c-2-.6-3.9-1.4-5.7-2.4-1.8-1-3.5-2.2-5.2-3.6-2.2-1.7-3.7-3.7-4.5-6-.8-2.2-1.2-4.6-1.3-7.1-.2-2.3,0-4.6.3-6.8.4-2.2.9-4.3,1.5-6.4,2.5-7.3,5.8-14.2,9.9-20.5,4.1-6.3,9-12.1,14.7-17.5,2.5-2.5,5.2-4.5,8.4-6.1,4.1-1.9,8.3-2.1,12.7-.6.5.3,1,.6,1.5.8.5.2,1.1.4,1.8.6.6.3,1.2.6,1.8.9.6.3,1.1.7,1.6,1.3.7.7,1.5,1.3,2.4,1.7.9.4,1.8.8,2.7,1.4ZM23.1,130.3c.2-1.3.3-2.6.5-3.9.2-1.3.3-2.6.3-3.9.2-2.7.7-5.2,1.6-7.5.9-2.3,1.8-4.7,2.6-7.2.4-1.1.9-2.2,1.6-3.3.6-1.1,1.2-2.2,1.8-3.3.8-1.5,1.6-3,2.4-4.6.9-1.5,1.9-3.1,3-4.6.7-1.1,1.5-2.3,2.5-3.5,1-1.2,1.9-2.4,2.8-3.7.2-.2.4-.5.7-.9.2-.3.5-.6.7-.7.7-.7,1.3-1.4,1.9-2,.6-.6,1.2-1.2,1.7-1.9.6-.7,1.1-1.4,1.6-2.1,1.2-.9,2.3-1.7,3.4-2.5s2.1-1.6,3.1-2.5c.2-.1.4-.2.5-.4.2-.1.3-.3.5-.6.2-.1.4-.2.6-.4.2-.1.2-.4.1-1-.8.4-1.5.7-2.2,1.1-.7.4-1.4.8-2.2,1.3-3.5,2.6-6.5,5.4-9.1,8.6-3.2,3.7-6.2,7.6-9,11.6-2.8,4-5.2,8.3-7.1,13-1.1,2.5-2.1,4.9-2.9,7.4-.9,2.5-1.5,5.1-1.9,7.7-.4,1.7-.5,3.3-.5,4.9,0,1.6.4,3.2,1.1,4.7ZM29.9,136.1c0-.3,0-.5,0-.8,0-.3,0-.5,0-.9,0-.3,0-.6,0-.8,0-.2,0-.5,0-.7,0-3,.2-5.9.6-8.7.4-2.8,1.2-5.6,2.4-8.3.3-.8.6-1.5.9-2.3.2-.8.4-1.6.4-2.6-.1.1-.2.2-.3.4-.1.1-.2.3-.2.4-1.6,3.1-2.8,6.3-3.6,9.6-.8,3.3-1.2,6.7-1.1,10.3,0,.7,0,1.4.2,2.2.1.7.3,1.5.4,2.2h.6ZM49.6,133c.5-.2.8-.3,1.1-.4.3,0,.5-.2.7-.4.2-.2.4-.4.6-.7.2-.3.5-.7.8-1.2-.7.4-1.2.7-1.6,1s-.8.6-1.3.9c0,0,0,0-.1.2,0,.2,0,.3,0,.4-.3.2-.7.4-1.2.5-.5.1-.9.3-1.2.5.5-.1,1-.2,1.4-.2.4,0,.7-.3.8-.8ZM58.1,125.2c.9.2,1.6,0,2-.7.4-.6.9-1.1,1.3-1.6-.6.4-1.1.7-1.7,1.1-.5.4-1.1.8-1.6,1.2-.5.4-1,.9-1.3,1.4-.3.5-.8,1-1.3,1.5.5-.2.9-.5,1.3-.7.3-.2.7-.5,1.1-.8.1-.1.2-.3.1-.6,0-.3,0-.5.1-.8ZM69.7,81.1c.5-.5.8-.8.9-1,.1-.2,0-.6-.4-1.3h0c-.1,0-.3,0-.4-.2v2.5ZM73.4,121.5c.8-.2,1.4-.4,1.6-.7.2-.3.4-1,.6-2.1-.3.7-.7,1.2-1.1,1.6-.4.4-.8.8-1.1,1.2ZM77.4,89c-.7.4-1,1-1.1,1.6,0,.6,0,1.3-.1,2.1,1.3-1.1,1.7-2.3,1.2-3.7ZM95,72.2c-1,0-1.8,0-2.5.3-.7.3-1.4.7-2,1.2-1.5,1-2.9,2.2-4.2,3.5-1.3,1.3-2.5,2.6-3.6,4.1-1,1.1-1.9,2.1-2.8,3.3-.3.7-.5,1.2-.6,1.6,0,.4,0,1,.3,2,2.2-3.1,4.4-6.1,6.8-8.8,2.4-2.8,5.3-5.1,8.6-7ZM92.9,70.3c-1.1-.4-1.9-.3-2.5,0-.6.4-1.3.9-2,1.5,1.1.4,1.9.3,2.5,0,.6-.4,1.3-.9,2-1.5Z"/>
  <path class="st0" d="M81.6,108.1c-.1.3-.3.5-.5.8-.2.3-.4.6-.5.9-.4,1.3-1,2.9-1.8,4.9-.1-.4-.2-.7-.3-.9s0-.5.1-.7c.3-1,.6-1.9.8-2.8.3-.9.5-1.9.8-3,.2-.8.5-1.5.7-2.1.2-.7.4-1.3.6-1.9,0-.5,0-.8-.3-.8-.8-.9-1.3-1.5-1.4-1.9-.1-.4.3-.8,1.1-1.2.3-.1.5-.2.7-.3,1.1-.3,1.9-.8,2.5-1.4.6-.6,1.2-1.5,1.7-2.5,1.9-3.5,4.1-6.8,6.4-10,2.4-3.2,5.1-6.2,8-9,2.7-2.8,5.7-5.1,9.1-7,2-1,3.9-1.4,5.7-1.1,1.8.3,3.7.8,5.6,1.7,1.2.7,1.6,1.8,1.2,3.2-.2.9-.3,1.8-.6,2.6-.2.9-.5,1.7-.8,2.4-.7,1.8-1.4,3.6-2.1,5.4-.7,1.8-1.3,3.7-1.9,5.6-.1.3-.3.7-.4,1.2-.1.5-.3,1-.4,1.7.4.5.9,1.2,1.5,2.4-.3.1-.7.2-1.1.2-.4,0-1,0-1.7.2.5.3,1,.5,1.5.6.5.1.9.2,1.3.4.4.1.7.3,1,.6.2.3.4.7.4,1.3-.5,0-1,0-1.4-.1-.4,0-.9,0-1.4,0-.9,0-1.5,0-1.8.2-.3.2-.6.7-.9,1.5-.4,1.1-.7,2.2-1.1,3.3-.4,1.1-.7,2.2-1.1,3.3-.5,1.9-.9,3.8-1.4,5.8-.5,1.9-1,3.8-1.4,5.7-.2.7-.3,1.4-.3,2,0,.6-.2,1.2-.3,1.9-1.7.5-2.8.7-3.4.5-.6-.2-1.3-1-2.2-2.4-.2,1.4-.4,2.7-.6,3.9-.1,1.2-.2,2.4-.3,3.6-.1,0-.2,0-.3.2-.1.2-.2.2-.3,0-.3-.1-.5-.3-.8-.6-.3-.3-.5-.5-.6-.7-.1-.3-.1-.7,0-1.1,0-.4,0-.7,0-1.1v-2.4c-.4-.3-.8-.3-1.1-.1-.3.2-.4.5-.4.8v4.1c-.1,0-1.8,0-1.8,0l-.3-.3c0,0-.1-.1-.2-.1-.3-2.4-.3-4.7,0-6.9.3-2.2.8-4.4,1.4-6.8.3-1.5.6-3.1,1-4.6.4-1.5.7-3,1.1-4.5,0-.3,0-.6.2-.8.1-.2.2-.4.2-.6-1.1-.4-1.9-.4-2.6,0-.7.3-1.4.5-2.3.7-.7.1-1.4.2-2.1.4-.7.2-1.4.4-2.1.7-1.2,2-2.1,4.1-2.9,6.2-.8,2.1-1.6,4.2-2.4,6.3-.6.1-1.1.2-1.5.3-.5.1-.9.2-1.4.1-.6,0-1.1-.3-1.3-.7-.2-.5-.3-1-.2-1.5.2-.9.3-1.8.5-2.7.2-.9.4-1.8.7-2.7.5-.3.8-.7,1-1.2.1-.5.2-1.1.4-1.9-.3.4-.5.8-.7,1-.2.3-.3.5-.4.7,0,.2-.1.4-.2.6,0,.2,0,.4-.2.8ZM106,81.6c-.9.7-1.9,1.7-3,2.8-1.1,1.1-2.1,2.3-3.1,3.6-1,1.2-1.8,2.5-2.6,3.7-.8,1.2-1.3,2.2-1.6,3,1.1-.4,2.2-.7,3.1-.8,1-.1,2-.5,3-1,.7-1.8,1.4-3.7,2-5.5.6-1.8,1.3-3.8,2.1-5.8Z"/>
  <path class="st0" d="M129.3,89.6c.1-.2.4-.4.7-.7.3-.3.6-.6.7-.9,1.2-2.3,2.5-4.6,3.7-6.9,1.2-2.3,2.5-4.6,3.9-6.8,1.4-2.2,2.7-4.2,4.2-6.1,1.4-1.9,2.9-3.9,4.4-5.8.2-.5.5-1,1-1.4.5-.4.9-.8,1.3-1.3.6.2,1,.4,1.4.6.4.2.7.4,1,.6.3.2.6.5.9.8.3.3.8.8,1.2,1.4-.8,1.5-1.7,2.9-2.8,4.2-1.1,1.3-2.1,2.7-3,4.2-1.9,2.9-3.7,5.8-5.4,8.6-.9,1.5-1.8,3-2.6,4.6-.9,1.5-1.7,3.1-2.4,4.6-.8,1.6-1.6,3.1-2.4,4.7-.8,1.5-1.5,3.1-2.4,4.8-.6,1.5-1.3,3-2.1,4.5-.8,1.6-1.4,3.3-1.8,5,1,0,1.9-.2,2.7-.2.7,0,1.6-.2,2.5-.3,1.3-.1,2.6-.2,4.1-.2,1.4,0,2.9.2,4.3.7.9.4,1.9.9,2.8,1.6.5.3,1,.7,1.4,1.2.4.6,1.1.8,1.9.7,0,0,.2,0,.3.2h0c.7,1.3,1.2,2.4,1.7,3.5.4,1.1.6,2.2.6,3.4,0,.1,0,.3,0,.5,0,.2-.1.3-.3.5,0,.4-.3.7-.7.8-.4.2-.7,0-.9-.4-.3-.5-.5-1-.7-1.5-.2-.5-.4-.9-.6-1.5-2.7,0-5.3.2-7.9.8-2.6.6-5.2,1.5-7.9,2.6-1.3.5-2.6,1-4,1.7-1.4.7-2.8,1.2-4,1.8-1.6.7-2.9.5-4.1-.5.1-.2.2-.5.3-.8s.2-.5.4-.8c-.2-.1-.3-.2-.5-.3-.1,0-.3-.1-.4-.3-.4-.1-.9-.3-1.4-.6-.5-.2-1-.5-1.5-.8-.9-.3-1.4-.7-1.7-1.2-.2-.4-.3-1.1-.1-2,.2-3.1.8-6.2,1.7-9.1.9-2.9,1.9-5.8,3.1-8.7,1.4-3.8,3.1-7.5,5-11,1.9-3.5,3.9-7.1,6-10.7.7-1.1,1.3-2.3,1.9-3.4.6-1.2,1.2-2.3,1.7-3.4.7-1.4,1.4-2.6,2.1-3.7.7-1.1,1.5-2.1,2.5-3.2,0,.5-.2,1-.5,1.5-.3.5-.6,1-.8,1.7-.3.5-.7,1-1.1,1.5-.4.5-.6,1.3-.7,2.3.9-1.2,1.6-2.3,2.3-3.1.6-.8,1.3-1.6,1.9-2.3.7-.8,1.4-1.6,2.1-2.4.7-.8,1.4-1.6,2.1-2.4.7-.7,1.3-1.1,1.6-1.2.1-.1.3-.1.6,0,.3,0,.6.2.9.3-.2.4-.4.8-.6,1-.2.2-.3.4-.4.5-2.9,3.3-5.4,6.7-7.6,10.3-2.2,3.5-4.3,7.2-6.2,11-.5,1-1,1.9-1.4,2.8-.4.9-.9,1.7-1.4,2.6-.1.4-.2.7-.3,1,0,.3,0,.6,0,.9-.7.5-1.2,1.1-1.5,1.9-.3.8-.6,1.5-1,2.3-.7,1.3-1.3,2.5-2,3.9-.6,1.3-1,2.7-1.2,4.3-.5.6-1,1.3-1.4,2.2-.4.8-.7,1.7-1,2.5-.3.9-.5,1.7-.7,2.5-.2.8-.2,1.6-.2,2.2.6-1.5,1.1-2.9,1.6-4.3.5-1.4,1-2.9,1.5-4.3.1-.1.2-.2.1-.4,0-.1,0-.3,0-.6.3-.4.6-.6.9-.7.7-1.6,1.4-3.3,2.2-5,.8-1.7,1.5-3.3,2.3-5,.1-.2.2-.4.1-.6s0-.5.1-.8ZM142.8,111.6c-.1,0-.3,0-.5-.1-.2,0-.5-.1-.7-.1-2.4-.2-4.7,0-7.1.4-2.4.5-4.7,1.2-6.9,2.1-.2,0-.3.1-.3.4,0,.3-.1.6-.3,1,2.7-.6,5.4-1.3,8-2,2.6-.7,5.2-1.3,7.9-1.6Z"/>
  <path class="st0" d="M158.9,123.6c-1,.2-1.8.1-2.3,0-.5-.2-.8-.7-1-1.5-.1-.5-.2-1-.3-1.6,0-.6-.2-1.2-.5-1.8,0,.7-.1,1.4-.2,2.1,0,.7-.1,1.4-.3,2.1-.7,0-1.3,0-1.7,0-.4,0-.8,0-1.1-.1-.3-.1-.7-.3-1.1-.6-.4-.3-.9-.7-1.5-1.2-.2-.9-.3-1.8-.2-2.7,0-.9.2-1.8.4-2.7.5-2.7,1.1-5.4,2-7.9.8-2.5,1.8-5.1,2.8-7.6.8-2.5,1.6-4.9,2.6-7.4.9-2.4,1.9-4.9,2.8-7.3.1-.3.2-.5.2-.7,0-.2,0-.4.1-.5-.4-.4-.9-.7-1.3-1-.4-.3-.8-.6-1.3-.9,1.7-3.7,3.4-7.4,5.1-11.2,1.8-3.7,3.5-7.4,5.3-11.1.9,0,1.8,0,2.6,0,.9,0,1.7,0,2.4.2.6,0,1.2.2,1.7.6.5.4,1,1.1,1.7,2,.3-.2.6-.4.9-.5.3-.2.7,0,1.1.4.3.3.6.7,1,1,.3.4.5.8.4,1.3-.2.4-.4.9-.6,1.4-.2.5-.4.9-.7,1.2-3,7.5-5.9,14.8-8.8,22-2.9,7.2-5.5,14.5-7.7,22-.7,2-1.3,3.9-1.7,5.9-.5,2-.8,4-1,6.1Z"/>
  <path class="st0" d="M160.7,122.2c.2-.7.5-1.1,1-1.3.4-.2.9-.3,1.3-.3-.8,0-1.7-.4-2.7-1.1-.3-.3-.7-.6-1.1-.8-.4-.2-.8-.4-1.2-.6,0-.3,0-.6,0-.9,0-.3,0-.6,0-.9,2-1,3.9-1.8,5.9-2.6,1.9-.8,3.9-1.7,6-2.8-.5-2.3-.5-4.4,0-6.4.5-2,1-4.1,1.7-6.2,2.8-11,7-21.5,12.6-31.4.1-.3.3-.8.6-1.5-.4,0-.7,0-1.1,0-.3,0-.6,0-.8,0-.8.4-1.6.8-2.4,1.2-.8.4-1.5.8-2.2,1.3-.5.3-.9.5-1.3.5-.4,0-.8,0-1.3-.4-.4-.2-.7-.4-1-.7-.3-.3-.3-.7.1-1.3,0,0,0-.2-.2-.4-.1-.2-.2-.4-.3-.5-.7-.7-.8-1.6-.3-2.6,0-.1,0-.3,0-.6-.1-.3-.2-.5-.3-.9.4-.2.8-.5,1.1-.9.3-.3.7-.7,1.2-1,.9-.6,1.7-1,2.4-1.3,1-.5,2-.9,3-1.2.9-.4,1.9-.7,2.9-1.1.9-.2,1.8-.5,2.7-.9.9-.4,1.9-.7,3-.8,3.8-.6,7.5-.6,11.2,0,3.7.5,7.2,1.8,10.6,3.8,1.6,1,3.1,2.1,4.5,3.5,1.4,1.4,2.6,2.9,3.6,4.6.4.5.7,1,.9,1.5.2.5.5.9.7,1.3,1.7,2.2,2.7,4.4,3.1,6.7.4,2.3.2,4.8-.5,7.4-.3,1.5-.8,3-1.4,4.4-.7,1.4-1.4,2.7-2.1,4.1-1.8,2.5-3.6,4.8-5.6,6.9-2,2.1-4.1,4-6.4,5.8-2.9,2.2-5.8,4.2-8.9,6-3,1.8-6.1,3.6-9.2,5.3-4.6,2.9-9.5,5.3-14.7,7.3-2.9,1.2-5.7,2-8.4,2.6-.5.1-1,.2-1.6.2-.5,0-1,0-1.5,0-.2,0-.4,0-.6-.2-.2-.1-.4-.2-.5-.3-.4-.3-.9-.7-1.3-1.1-.4-.4-.8-.8-1-1.2ZM171.8,109.5c.8,0,1.3-.4,1.5-1.2,0-.5,0-1,0-1.5,0-.5,0-1,.1-1.5.4-1.5.7-2.9,1.1-4.4.4-1.5.8-2.9,1.3-4.3,1-3.3,2.1-6.5,3.3-9.7,1.2-3.2,2.4-6.3,3.7-9.4.3-.5.5-1,.6-1.5.1-.5.3-1.1.4-1.8-.6.6-1,1.2-1.3,1.7-.3.5-.5,1.1-.6,1.6-1.5,3.2-3,6.6-4.3,10-1.3,3.5-2.6,6.9-3.8,10.3-.4,1.3-.8,2.6-1.1,3.9-.3,1.3-.6,2.6-.9,3.9-.2.6-.3,1.3-.4,1.9-.1.6,0,1.3.3,2ZM178.4,105.8c.5-.2.7-.4.8-.7,0-.3.2-.6.3-.9.9-2.9,1.8-5.7,2.8-8.5,1-2.8,2.1-5.6,3.3-8.4.9-2,1.8-3.9,2.6-5.8.8-1.9,1.7-3.9,2.7-5.9.1-.3.3-.5.4-.6.1-.2,0-.4-.3-.7-1.2,1.9-2.4,4.3-3.8,7.4-1.4,3-2.7,6.1-4,9.3-1.3,3.2-2.3,6.2-3.2,8.9-.9,2.8-1.4,4.8-1.5,6ZM181.4,104.3c.7-.4,1.2-.6,1.5-.8.4-.2.7-.4,1-.7,2.9-1.7,5.7-3.5,8.5-5.5,2.8-2,5.4-4,8-6.3,2.1-1.8,4.1-3.7,5.9-5.7,1.8-2,3.5-4.2,5.1-6.6,1-1.6,1.9-3.2,2.5-4.8.7-1.6,1.1-3.4,1.3-5.3.1-1.2,0-2-.2-2.5-.2-.4-.9-.9-2-1.5-2.4-1-5.1-1.5-8-1.6-1.9-.2-3.8-.3-5.7-.3-1.9,0-3.7,0-5.6.3-.3.3-.6.5-.8.5v2c.6-.1,1.1,0,1.3.5.2.5.4,1,.5,1.7.3-.3.5-.6.8-.8.3-.2.6-.4.8-.5.3.7.5,1.2.5,1.4,0,.2-.1.6-.5,1.1-.6,1.9-1.5,3.9-2.5,6-1.2,2.3-2.3,4.6-3.4,6.9-1.1,2.3-2.1,4.6-3.2,6.9-1.2,2.4-2.2,4.9-3.1,7.4-.9,2.5-1.9,5.3-2.9,8.2ZM194.9,58.5c1.9,0,3.7,0,5.6.1,1.9,0,3.7.3,5.6.5.6.1,1.2.3,1.8.4.6.1,1.2.3,1.7.4-.4-.3-.7-.6-1.1-.7-.3-.1-.8-.2-1.3-.4-1.5-.4-3-.6-4.5-.7-1.6-.1-3.2-.2-4.8-.3-.7,0-1.4,0-2.2,0-.7,0-1.5,0-2.4,0-.3,0-.5.2-.5.6-1-.2-2.1-.1-3.2,0,1.3.4,2.4.4,3.2,0h2.1ZM217.2,71.5c0,0,0,0,0,0h0s0-2.6,0-2.6h-.2s0,2.5,0,2.5ZM222.3,72.3c0,1.5.1,3.1.4,5,0-.7.2-1.2.2-1.6,0-.4.1-.7,0-1.1,0-.3,0-.6-.2-1-.1-.3-.3-.8-.5-1.4Z"/>
  <path class="st0" d="M221.1,93.5c-.1.3-.3.5-.5.8-.2.3-.4.6-.5.9-.4,1.3-1,2.9-1.8,4.9-.1-.4-.2-.7-.3-.9,0-.2,0-.5.1-.7.3-1,.6-1.9.8-2.8.3-.9.5-1.9.8-3,.2-.8.5-1.5.7-2.1.2-.7.4-1.3.6-1.9,0-.5,0-.8-.3-.8-.8-.9-1.3-1.5-1.4-1.9-.1-.4.3-.8,1.1-1.2.3-.1.5-.2.7-.3,1.1-.3,2-.8,2.5-1.4.6-.6,1.2-1.5,1.7-2.5,1.9-3.5,4.1-6.8,6.4-10,2.4-3.2,5.1-6.2,8-9,2.7-2.8,5.7-5.1,9.1-7,2-1,3.9-1.4,5.7-1.1,1.8.3,3.7.8,5.6,1.7,1.2.7,1.6,1.8,1.2,3.2-.2.9-.3,1.8-.6,2.6-.2.9-.5,1.7-.8,2.4-.7,1.8-1.4,3.6-2.1,5.4-.7,1.8-1.3,3.7-1.9,5.6-.1.3-.3.7-.4,1.2-.1.5-.3,1-.4,1.7.4.5.9,1.2,1.5,2.4-.3.1-.7.2-1.1.2-.4,0-1,0-1.7.2.5.3,1,.5,1.5.6.5.1.9.2,1.3.4.4.1.7.3,1,.6.2.3.4.7.4,1.3-.5,0-1,0-1.4-.1-.4,0-.9,0-1.4,0-.9,0-1.5,0-1.8.2-.3.2-.6.7-.9,1.5-.4,1.1-.7,2.2-1.1,3.3-.4,1.1-.7,2.2-1.1,3.3-.5,1.9-.9,3.8-1.4,5.8-.5,1.9-1,3.8-1.4,5.7-.2.7-.3,1.4-.3,2,0,.6-.2,1.2-.3,1.9-1.7.5-2.8.7-3.4.5-.6-.2-1.3-1-2.2-2.4-.2,1.4-.4,2.7-.6,3.9-.1,1.2-.2,2.4-.3,3.6-.1,0-.2,0-.3.2-.1.2-.2.2-.3,0-.3-.1-.5-.3-.8-.6-.3-.3-.5-.5-.6-.7-.1-.3-.1-.7,0-1.1,0-.4,0-.7,0-1.1v-2.4c-.4-.3-.8-.3-1.1-.1-.3.2-.4.5-.4.8v4.1c-.1,0-1.8,0-1.8,0l-.3-.3c0,0-.1-.1-.2-.1-.3-2.4-.3-4.7,0-6.9.3-2.2.8-4.4,1.4-6.8.3-1.5.6-3.1,1-4.6.4-1.5.7-3,1.1-4.5,0-.3,0-.6.2-.8.1-.2.2-.4.2-.6-1.1-.4-1.9-.4-2.6,0-.7.3-1.4.5-2.3.7-.7.1-1.4.2-2.1.4-.7.2-1.4.4-2.1.7-1.2,2-2.1,4.1-2.9,6.2-.8,2.1-1.6,4.2-2.4,6.3-.6.1-1.1.2-1.5.3-.5.1-.9.2-1.4.1-.6,0-1.1-.3-1.3-.7-.2-.5-.3-1-.2-1.5.2-.9.3-1.8.5-2.7.2-.9.4-1.8.7-2.7.5-.3.8-.7,1-1.2.1-.5.2-1.1.4-1.9-.3.4-.5.8-.7,1-.2.3-.3.5-.4.7,0,.2-.1.4-.2.6,0,.2,0,.4-.2.8ZM245.5,67c-.9.7-1.9,1.7-3,2.8-1.1,1.1-2.1,2.3-3.1,3.6-1,1.2-1.8,2.5-2.6,3.7-.8,1.2-1.3,2.2-1.6,3,1.1-.4,2.2-.7,3.1-.8,1-.1,2-.5,3-1,.7-1.8,1.4-3.7,2-5.5.6-1.8,1.3-3.8,2.1-5.8Z"/>
  <path class="st0" d="M247.7,113c.2-.7.5-1.1,1-1.3.4-.2.9-.3,1.3-.3-.8,0-1.7-.4-2.7-1.1-.3-.3-.7-.6-1.1-.8-.4-.2-.8-.4-1.2-.6,0-.3,0-.6,0-.9,0-.3,0-.6,0-.9,2-1,3.9-1.8,5.9-2.6s3.9-1.7,6-2.8c-.5-2.3-.5-4.4,0-6.4.5-2,1-4.1,1.7-6.2,2.8-11,7-21.5,12.6-31.4.1-.3.3-.8.6-1.5-.4,0-.7,0-1.1,0-.3,0-.6,0-.8,0-.8.4-1.6.8-2.4,1.2-.8.4-1.5.8-2.2,1.3-.5.3-.9.5-1.3.5-.4,0-.8,0-1.3-.4-.4-.2-.7-.4-1-.7-.3-.3-.3-.7.1-1.3,0,0,0-.2-.2-.4-.1-.2-.2-.4-.3-.5-.7-.7-.8-1.6-.3-2.6,0-.1,0-.3,0-.6-.1-.3-.2-.5-.3-.9.4-.2.8-.5,1.1-.9.3-.3.7-.7,1.2-1,.9-.6,1.7-1,2.4-1.3,1-.5,2-.9,3-1.2.9-.4,1.9-.7,2.9-1.1.9-.2,1.8-.5,2.7-.9.9-.4,1.9-.7,3-.8,3.8-.6,7.5-.6,11.2,0,3.7.5,7.2,1.8,10.6,3.8,1.6,1,3.1,2.1,4.5,3.5,1.4,1.4,2.6,2.9,3.6,4.6.4.5.7,1,.9,1.5.2.5.5.9.7,1.3,1.7,2.2,2.7,4.4,3.1,6.7.4,2.3.2,4.8-.5,7.4-.3,1.5-.8,3-1.4,4.4-.7,1.4-1.4,2.7-2.1,4.1-1.8,2.5-3.6,4.8-5.6,6.9-2,2.1-4.1,4-6.4,5.8-2.9,2.2-5.8,4.2-8.9,6-3,1.8-6.1,3.6-9.2,5.3-4.6,2.9-9.5,5.3-14.7,7.3-2.9,1.2-5.7,2-8.4,2.6-.5.1-1,.2-1.6.2-.5,0-1,0-1.5,0-.2,0-.4,0-.6-.2-.2-.1-.4-.2-.5-.3-.4-.3-.9-.7-1.3-1.1-.4-.4-.8-.8-1-1.2ZM258.8,100.3c.8,0,1.3-.4,1.5-1.2,0-.5,0-1,0-1.5,0-.5,0-1,.2-1.5.4-1.5.7-2.9,1.1-4.4.4-1.5.8-2.9,1.3-4.3,1-3.3,2.1-6.5,3.3-9.7,1.2-3.2,2.4-6.3,3.7-9.4.3-.5.5-1,.6-1.5.1-.5.3-1.1.4-1.8-.6.6-1,1.2-1.3,1.7-.3.5-.5,1.1-.6,1.6-1.5,3.2-3,6.6-4.3,10-1.3,3.5-2.6,6.9-3.8,10.3-.4,1.3-.8,2.6-1.1,3.9-.3,1.3-.6,2.6-.9,3.9-.2.6-.3,1.3-.4,1.9-.1.6,0,1.3.3,2ZM265.4,96.6c.5-.2.7-.4.8-.7,0-.3.2-.6.3-.9.9-2.9,1.8-5.7,2.8-8.5,1-2.8,2.1-5.6,3.3-8.4.9-2,1.8-3.9,2.6-5.8.8-1.9,1.7-3.9,2.7-5.9.1-.3.3-.5.4-.6.1-.2,0-.4-.3-.7-1.2,1.9-2.4,4.3-3.8,7.4-1.4,3-2.7,6.1-4,9.3-1.3,3.2-2.3,6.2-3.2,8.9-.9,2.8-1.4,4.8-1.5,6ZM268.3,95.2c.7-.4,1.2-.6,1.5-.8.4-.2.7-.4,1-.7,2.9-1.7,5.7-3.5,8.5-5.5,2.8-2,5.4-4,8-6.3,2.1-1.8,4.1-3.7,5.9-5.7,1.8-2,3.5-4.2,5.1-6.6,1-1.6,1.9-3.2,2.5-4.8.7-1.6,1.1-3.4,1.3-5.3.1-1.2,0-2-.2-2.5-.2-.4-.9-.9-2-1.5-2.4-1-5.1-1.5-8-1.6-1.9-.2-3.8-.3-5.7-.3-1.9,0-3.7,0-5.6.3-.3.3-.6.5-.8.5v2c.6-.1,1.1,0,1.3.5.2.5.4,1,.5,1.7.3-.3.5-.6.8-.8.3-.2.6-.4.8-.5.3.7.5,1.2.5,1.4,0,.2-.1.6-.5,1.1-.6,1.9-1.5,3.9-2.5,6-1.2,2.3-2.3,4.6-3.4,6.9-1.1,2.3-2.1,4.6-3.2,6.9-1.2,2.4-2.2,4.9-3.1,7.4-.9,2.5-1.9,5.3-2.9,8.2ZM281.9,49.4c1.9,0,3.7,0,5.6.1,1.9,0,3.7.3,5.6.5.6.1,1.2.3,1.8.4.6.1,1.2.3,1.7.4-.4-.3-.7-.6-1.1-.7-.3-.1-.8-.2-1.3-.4-1.5-.4-3-.6-4.5-.7-1.6-.1-3.2-.2-4.8-.3-.7,0-1.4,0-2.2,0-.7,0-1.5,0-2.4,0-.3,0-.5.2-.5.6-1-.2-2.1-.1-3.2,0,1.3.4,2.4.4,3.2,0h2.1ZM304.2,62.3c0,0,0,0,0,0h0s0-2.6,0-2.6h-.2s0,2.5,0,2.5ZM309.3,63.2c0,1.5.1,3.1.4,5,0-.7.2-1.2.2-1.6,0-.4.1-.7,0-1.1,0-.3,0-.6-.2-1-.1-.3-.3-.8-.5-1.4Z"/>
  <path class="st0" d="M339.3,83.9c-.3-1.5-.4-2.9-.2-4.4.2-1.4.5-2.9,1.1-4.3,0,.3,0,.6,0,.9,0,.3,0,.6-.2,1.1,0,.6,0,1.2-.2,1.9,0,.7-.1,1.3-.2,1.9-.1.4-.2.9-.2,1.4,0,.5,0,1,0,1.5ZM339.3,83.9c.2,0,.4-.1.5-.2.2,0,.4-.2.6-.3.2-3.5.8-6.7,1.9-9.8,1.1-3.1,2.2-6.2,3.3-9.4.9-2.7,2-5.3,3.2-8,1.2-2.6,2.6-5.3,4.1-7.9.5-.8,1-1.6,1.5-2.4.5-.8,1.1-1.6,1.6-2.6.3-.6.7-1.1,1.3-1.4.6-.3,1.2-.6,1.9-.8.1,0,.3,0,.6,0,.3,0,.5.1.7.3.4.1.7.3,1.1.3.3,0,.6.4.7.9,0,.4.1.5.5.3.6-.3,1-.3,1.3.1.3.4.6.7,1.1.8-.6,1.2-1.1,2.3-1.7,3.4-.6,1.1-1.1,2.2-1.7,3.3-.1,0-.3,0-.4-.1-.1,0-.3-.1-.6-.2-2.3,3.6-4.1,7.3-5.4,11.1-1.3,3.8-2.5,7.7-3.4,11.7,3.2-3.5,6.5-6.9,10.1-10.2,2.3-2.4,4.5-4.4,6.5-6,2-1.6,3.6-2.6,4.6-3.1-3.8,3.8-7.7,7.5-11.5,11.2-3.8,3.7-7.5,7.5-11,11.5v.3c0,0,0,.2.2.5.3-.2.5-.3.7-.5.2-.1.4-.2.5-.4,2.8-2.8,5.5-5.5,8-8.2,2.6-2.7,5.2-5.3,7.9-7.9,1.7-1.7,3.4-3.4,5.1-5.1,1.7-1.7,3.3-3.5,4.8-5.4.7-.7,1.5-1.4,2.4-2,.9-.6,1.9-.9,3-1.1.8-.1,1.5,0,2.1,0,.6.1,1.2.3,1.8.5.3.1.6.3.8.4.2.1.5.3.8.4.5.3.8.6.9,1,.1.4,0,.8-.3,1.1-.1.4-.3.7-.5.9-.2.2-.4.5-.7.8-3.3,3.3-6.3,7-8.9,10.8-2.6,3.9-5,7.9-7.3,12-.2.3-.3.7-.4,1s-.1.7-.3,1h.2c-.3.1-.5.3-.8.5-.3.2-.4.4-.5.6-1,1.8-1.9,3.6-2.8,5.3-.9,1.7-1.7,3.4-2.5,5.1-.1.3-.2.6-.2.9,0,.3,0,.6,0,.9-.7.3-1.1.7-1.2,1.1-.1.4-.2,1-.2,1.6h0c-.1,0-.3.2-.5.3-.2.2-.4.3-.5.5-1.2,2.6-2.3,5.3-3.3,7.9-1,2.6-1.9,5.3-2.6,8.1-.6,1.6-.9,3.2-1.1,4.8-.2,1.6.2,3.2,1.1,4.8-.7.3-1.4.4-2,.4-.6,0-1.2,0-1.9,0-.7,0-1.2-.3-1.4-.8s-.6-.7-1-.8c-.2-1.4-.4-2.6-.5-3.9-.1-1.2-.1-2.4,0-3.6h0c0,0-.1,0-.1,0,0,0,0,0-.1,0,0,.8-.1,1.6-.2,2.3-.1.7-.2,1.5-.2,2.4,0,.4,0,.9.2,1.5.2.5.5,1,1.1,1.4-.3.1-.5.2-.8.3-.3,0-.6,0-.9-.4-.5-.3-.9-.7-1.1-1.1-.2-.4-.4-.8-.6-1.4-.6-1.9-.6-3.8,0-5.8.4-2.4,1-4.8,1.7-7,.7-2.2,1.6-4.5,2.5-6.8.6-2,1.4-3.9,2.3-5.9.9-2,1.7-3.9,2.5-6,.2-.6.5-1.2.9-2-.7,0-1.1,0-1.3.4-.5.4-.9.8-1.3,1.3-1.7,1.8-3.5,2.8-5.4,2.9-1.9.1-3.9-.3-6.2-1.3-.6-.3-1.2-.6-1.8-.8-.6-.3-1.2-.5-1.8-.7ZM371.5,76.7c.6-.4,1-.9,1.3-1.5.5-.9,1.1-1.7,1.6-2.6.5-.8,1-1.7,1.6-2.5.1-.3.3-.6.5-.8.2-.2.6-.3,1.1-.4-.1.1-.2.3-.3.6,0,.3-.1.5-.3.6-1,2-2,4-3,5.9-1.1,1.9-2.1,3.9-3.2,5.9-2.1,4-4.1,7.9-6,11.9-1.9,4-3.6,8-5.1,12.2-.1.2-.3.4-.5.7-.2.3-.4.5-.7.6.1-.3.2-.6.3-.8,0-.2.1-.4.3-.8.6-1.8,1.2-3.7,1.9-5.5.7-1.8,1.4-3.6,2.1-5.4.1-.4.3-.9.3-1.2,0-.4.2-.8.2-1.1h0c.5-.3.9-.7,1.1-1.2.2-.5.3-1,.3-1.5.2,0,.3-.2.3-.4,1-2,2.1-4,3.1-5.9,1-1.9,2-3.9,2.9-6,.1-.2.2-.4.3-.6,0-.2.1-.3.3-.5h-.2Z"/>
  <path class="st0" d="M413.1,81.4c2-.2,4.3-.8,7-1.8,2.7-1,5.4-2.2,8.1-3.7,2.7-1.5,5.3-3.1,7.8-4.9,2.4-1.8,4.4-3.6,6-5.4.5-.6,1-1.2,1.5-1.9.4-.6.8-1.4,1-2.3-.4,0-.9,0-1.2-.1-.4,0-.8,0-1.3,0-2.4.2-4.9.4-7.4.5-2.5.1-5.1.3-7.7.7-2.1.2-3.9,0-5.4-.8-1.5-.8-3-1.6-4.4-2.6-.3-.3-.6-.7-.8-1-.2-.3-.4-.6-.5-.8,0-.6,0-1.1-.2-1.4-.2-.4-.4-.8-.7-1.1-.7-.9-.9-1.9-.8-3,.1-1.1.7-2,1.6-3,1.7-1.8,3.5-3.6,5.4-5.4,1.9-1.8,3.9-3.5,6-4.9,1.5-.8,3-1.7,4.4-2.5,1.4-.8,2.9-1.6,4.4-2.3,1.5-.5,3-1,4.5-1.3,1.5-.3,3-.7,4.5-1.2,1.8-.7,3.5-1,5.1-1,2.2,0,4,.5,5.6,1.4,1.5.9,2.6,2.3,3.3,4.4.1.5.4,1,.9,1.4.5.4,1,.9,1.5,1.4-.4.4-.7.9-.8,1.5-.1.5-.3,1.1-.5,1.6-.2.5-.4,1.1-.7,1.7-.3.6-.8,1.1-1.3,1.5-.7-1-1.4-1.9-2.3-2.7-.9-.8-1.4-1.8-1.7-3-1.7.1-3.7.6-6.1,1.5s-4.7,1.9-7.1,3.2c-2.4,1.3-4.6,2.6-6.8,4.1-2.1,1.5-3.7,2.9-4.8,4.3.4,0,.8,0,1.2.1.4,0,.8,0,1.3,0,1.9-.4,3.7-.5,5.5-.4,1.8.1,3.6.4,5.4.8,4.1.7,6.9,2.7,8.2,6.2.2.8.7,1.6,1.5,2.3.7.6,1.1,1.3,1.4,2.1.2.8.3,1.7.3,2.7-.2,1.3-.5,2.5-1,3.8-.5,1.2-1.2,2.4-2,3.5-1,1.5-2.2,2.9-3.6,4.2-1.4,1.3-2.8,2.6-4.2,3.7-3,2-6.1,3.7-9.2,5.1-3.1,1.4-6.4,2.5-9.9,3.3-1.4.3-2.7.5-4,.4-1.3,0-2.6-.4-3.8-.9-1.2-.5-2.3-1.1-3.2-1.9-.9-.8-1.7-1.8-2.2-2.9-.2-.5-.5-.9-.8-1.4s-.5-.9-.7-1.5c-.2-.5-.4-1.1-.5-1.7-.1-.6-.2-1.3,0-2,.4.2.8.3,1.2.4.4,0,.7.1.9.3.5.3.9.7,1.3,1.2.4.5.8.9,1.4,1.2ZM415.2,86c.7,0,1.3,0,1.8,0,.5,0,1,0,1.4-.1.4,0,.9-.2,1.3-.4.5-.2.9-.5,1.5-.9-1,.2-1.9.3-2.9.6-1,.2-2,.5-3.1.9ZM444.5,57.4c-1.6-.6-3.3-1-5-1.1-1.7-.1-3.3-.1-5,0-1.7.1-3.4.3-5.1.5-1.7.2-3.4.3-5.1.4-.3,0-.6,0-.9.3-.3.2-.5.4-.7.5,3.7-.2,7.3-.4,10.9-.6,3.6-.2,7.2-.2,10.8,0ZM423.6,61.4c-.1,0-.2,0-.2.2h3.5c0,.1,0,0,0,0h-3.3ZM433.9,45.3c0-.2-.1-.4-.3-.5-.8.7-1.6,1.3-2.5,1.8-.9.5-1.7,1.1-2.5,1.5-.9.7-1.5,1.3-2,1.7-.5.4-.8.7-1.1,1-.3.3-.5.5-.6.8-.1.3-.2.6-.3,1,1.5-1.2,3.1-2.5,4.7-3.7,1.6-1.2,3.1-2.5,4.5-3.7ZM438.4,43c-.5,0-1,0-1.5.1-.5.1-.9.5-1.2,1.2.6-.2,1.1-.5,1.6-.7.5-.2.8-.5,1.2-.6ZM443.7,36.3c1.7-.4,3.5-.8,5.3-1.1,1.8-.3,3.6-.3,5.3-.2-.3-.5-.7-.8-1.2-1-.5-.1-1-.1-1.5,0-1.3,0-2.6.3-3.9.6-1.3.3-2.6.9-3.9,1.6ZM448.2,72.9c2.4-2.2,3.7-4.4,4-6.7,0-.1,0-.3-.1-.6-.2-.3-.3-.5-.4-.6-.6,1.3-1.1,2.5-1.7,3.8-.6,1.3-1.1,2.6-1.8,4.1Z"/>
  <path class="st0" d="M457.8,68.6c-.1.3-.3.5-.5.8-.2.3-.4.6-.5.9-.4,1.3-1,2.9-1.8,4.9-.1-.4-.2-.7-.3-.9,0-.2,0-.5.1-.7.3-1,.6-1.9.8-2.8.3-.9.5-1.9.8-3,.2-.8.5-1.5.7-2.1.2-.7.4-1.3.6-1.9,0-.5,0-.8-.3-.8-.8-.9-1.3-1.5-1.4-1.9-.1-.4.3-.8,1.1-1.2.3-.1.5-.2.7-.3,1.1-.3,1.9-.8,2.5-1.4.6-.6,1.2-1.5,1.7-2.5,1.9-3.5,4.1-6.8,6.4-10,2.4-3.2,5.1-6.2,8-9,2.7-2.8,5.7-5.1,9.1-7,2-1,3.9-1.4,5.7-1.1,1.8.3,3.7.8,5.6,1.7,1.2.7,1.6,1.8,1.2,3.2-.2.9-.3,1.8-.6,2.6-.2.9-.5,1.7-.8,2.4-.7,1.8-1.4,3.6-2.1,5.4-.7,1.8-1.3,3.7-1.9,5.6-.1.3-.3.7-.4,1.2-.1.5-.3,1-.4,1.7.4.5.9,1.2,1.5,2.4-.3.1-.7.2-1.1.2-.4,0-1,0-1.7.2.5.3,1,.5,1.5.6.5.1.9.2,1.3.4.4.1.7.3,1,.6.2.3.4.7.4,1.3-.5,0-1,0-1.4-.1-.4,0-.9,0-1.4,0-.9,0-1.5,0-1.8.2-.3.2-.6.7-.9,1.5-.4,1.1-.7,2.2-1.1,3.3-.4,1.1-.7,2.2-1.1,3.3-.5,1.9-.9,3.8-1.4,5.8-.5,1.9-.9,3.8-1.4,5.7-.2.7-.3,1.4-.3,2,0,.6-.2,1.2-.3,1.9-1.7.5-2.8.7-3.4.5-.6-.2-1.3-1-2.2-2.4-.2,1.4-.4,2.7-.6,3.9-.1,1.2-.2,2.4-.3,3.6-.1,0-.2,0-.3.2-.1.2-.2.2-.3,0-.3-.1-.5-.3-.8-.6-.3-.3-.5-.5-.6-.7-.1-.3-.1-.7,0-1.1,0-.4,0-.7,0-1.1v-2.4c-.4-.3-.8-.3-1.1-.1-.3.2-.4.5-.4.8v4.1c-.1,0-1.8,0-1.8,0l-.3-.3c0,0-.1-.1-.2-.1-.3-2.4-.3-4.7,0-6.9.3-2.2.8-4.4,1.4-6.8.3-1.5.6-3.1,1-4.6.4-1.5.7-3,1.1-4.5,0-.3,0-.6.2-.8.1-.2.2-.4.2-.6-1.1-.4-1.9-.4-2.6,0-.7.3-1.4.5-2.3.7-.7.1-1.4.2-2.1.4-.7.2-1.4.4-2.1.7-1.2,2-2.1,4.1-2.9,6.2-.8,2.1-1.6,4.2-2.4,6.3-.6.1-1.1.2-1.5.3-.5.1-.9.2-1.4.1-.6,0-1.1-.3-1.3-.7-.2-.5-.3-1-.2-1.5.2-.9.3-1.8.5-2.7.2-.9.4-1.8.7-2.7.5-.3.8-.7,1-1.2.1-.5.2-1.1.4-1.9-.3.4-.5.8-.7,1-.2.3-.3.5-.4.7,0,.2-.1.4-.2.6,0,.2,0,.4-.2.8ZM482.2,42.1c-.9.7-1.9,1.7-3,2.8-1.1,1.1-2.1,2.3-3.1,3.6-1,1.2-1.8,2.5-2.6,3.7-.8,1.2-1.3,2.2-1.6,3,1.1-.4,2.2-.7,3.1-.8,1-.1,2-.5,3-1,.7-1.8,1.4-3.7,2-5.5.6-1.8,1.3-3.8,2.1-5.8Z"/>
  <path class="st0" d="M540.4,45.3c0,.4.1.7.4.8.3,0,.6.2.8.3,1.9,1,3.5,2.3,4.9,3.9,1.4,1.6,2.6,3.4,3.7,5.5.4.9.6,1.8.5,2.8,0,.9-.3,1.9-.7,2.8-1.1,1.9-2.4,3.6-4,5-1.2.9-2.4,1.7-3.6,2.7-1.2.9-2.4,1.8-3.5,2.6-1.3.7-2.7,1.4-4.1,2-1.4.6-2.8,1.3-4.1,1.9-4.9,2.2-9.8,4.2-14.7,5.9-4.9,1.7-10,3.1-15.2,4.2-.9.3-1.8.5-2.6.7-.8.2-1.7.4-2.6.5-.1,0-.2,0-.2.1,0,0-.1.1-.2.1-1.5-.2-3.1-.2-4.7,0-1.6.1-3.1,0-4.6-.3-.5-.4-1.1-.7-1.7-.9.3-.3.5-.6.6-.8.1-.2.3-.3.5-.3.5-.1.9-.1,1.3,0,.4,0,.8.1,1.3.1.5-.1,1-.2,1.5-.2.5,0,1.1,0,1.8,0,.2-.5.3-.9.1-1.1-.1-.2-.3-.3-.7-.4h-.8c-1.1.3-2.2.3-3.4,0-1.2-.3-2.3-.4-3.5-.5-1.1-.1-1.8-.3-2-.7-.3-.4-.6-1.3-1-2.7.8,0,1.6,0,2.4,0,.8,0,1.5,0,2.3-.1.8,0,1.6-.2,2.4-.2.8,0,1.6-.3,2.4-.7.6-4.1,1.6-8.1,3-12,1.4-3.9,2.9-7.7,4.5-11.7,1.1-2.8,2.2-5.5,3.6-8.2,1.3-2.7,2.7-5.4,4.3-8,.5-1.1,1-2.1,1.6-3.1.6-1,1.2-2,2-3.1.1-.1.3-.3.4-.5.1-.2.3-.5.5-.7-.6-.1-1.1-.1-1.5.1-.4.2-.8.5-1.3.7-.5.2-.9.5-1.2.8-.3.3-.7.5-1.2.6-.5-.1-.9-.3-1.2-.4-.3-.1-.6-.3-.8-.5-.2-.2-.4-.4-.7-.7-.2-.3-.6-.7-.9-1.2.1-.2.2-.3.2-.4,0,0,0-.2.2-.3.3-.2.4-.4.4-.6-.2-.1-.3-.2-.5-.1-.1,0-.3.2-.4.3-.1.1-.3.3-.4.4-.1.2-.3.3-.5.3-.2-.2-.4-.4-.6-.6-.2-.2-.4-.5-.6-.7-.7-.9-.5-1.7.5-2.4.5-.2.8-.4,1.1-.5.3-.2.7-.4,1.1-.5,2.1-.8,4.2-1.6,6.3-2.3,2.1-.7,4.2-1.5,6.2-2.3.2.2.5.3.8.2s.6-.2.8-.4c.3-.1.5-.3.8-.3.3,0,.5,0,.9.2.1-.4.4-.7.7-.9.3-.1.7-.3,1-.4,1.2-.3,2.3-.5,3.5-.8,1.2-.2,2.4-.4,3.6-.5,2.3-.5,4.4-.9,6.6-1.1,2.1-.2,4.2-.2,6.3,0,2,.3,3.7.8,5.2,1.7.4.3.8.6,1.2.7.4.1.9.2,1.4.4,1.9.6,3.4,1.5,4.6,2.8,1.2,1.3,2,3,2.4,5.1,0,.1,0,.3.1.4,0,.2.2.3.3.5-.1.1-.3.2-.5.3-.2,0-.3.3-.4.5-.6,1.3-1.4,2.5-2.2,3.5-.9,1-1.8,2-2.8,2.8-1.8,1.6-3.8,3.1-5.7,4.5-2,1.4-4,2.7-6,3.9-.5.2-1,.5-1.6.9,1.1.3,2.1.6,3,.8.9.2,1.8.2,2.7,0ZM493.4,76.8c.1,0,.2-.2.3-.4,0-.2.2-.4.3-.6.8-2.4,1.6-4.8,2.3-7.2s1.5-4.7,2.3-7.1h0c0-.2,0-.3-.2-.3-.2,0-.4.1-.5.5-1,2.3-1.9,4.8-2.7,7.3-.8,2.5-1.4,5.1-1.9,7.8ZM517.1,76.8c-.5.1-.9.2-1.2.2-.3,0-.5,0-.9,0-1.8.6-3.6,1.1-5.4,1.7-1.9.5-3.7,1.1-5.4,1.7-.7.2-1.5.4-2.4.5-.9.1-1.7.3-2.5.5-.3.1-.6.3-.9.5-.3.2-.5.6-.7,1.1,1,0,2.4-.4,4.3-.9,1.9-.5,3.8-1,5.8-1.7,2-.6,3.9-1.3,5.6-2,1.8-.7,3-1.3,3.7-1.9ZM506.1,59.4c-.3.3-.6.7-1,1.2s-.7,1.2-1.2,2.2c-.5,1-1.1,2.3-1.9,4-.7,1.7-1.6,3.8-2.7,6.3-.1.4-.3.9-.5,1.3-.2.4-.2.9,0,1.5.2-.2.3-.3.4-.3h0c1.2-2.6,2.4-5.3,3.5-7.9,1.2-2.6,2.4-5.3,3.5-7.8,0-.3,0-.4-.3-.4ZM500.9,74.7c1.5,0,2.8-.2,3.7-.8,3-1.2,5.9-2.3,8.8-3.4,2.9-1.1,5.9-2.4,8.9-3.7,2.3-1,4.6-2.1,6.9-3.3,2.3-1.2,4.5-2.6,6.6-4.2,1-.7,2-1.4,2.8-2.2.8-.8,1.7-1.6,2.6-2.3.2-.1.4-.4.6-.7.2-.4.3-.7.5-1-1.7-.4-3.2-.6-4.7-.7-1.5,0-3,0-4.6.2-1.1,0-2.2.2-3.4.2-1.2,0-2.3.1-3.5.2-2.8.3-5.6.8-8.3,1.5-2.7.7-5.4,1.8-8.1,3.1-.3.1-.7.3-1,.6-.3.3-.6.6-.7,1.1-.9,2.3-1.9,4.4-3,6.3-.6,1.6-1.3,3.2-2,4.7-.7,1.5-1.4,3-2.2,4.6ZM502.9,50.4c.4-.4.7-.7.9-.9.2-.2.4-.5.5-.8.1-.2.2-.6.3-.9,0-.3.2-.8.2-1.4-.5.6-.9,1.2-1.2,1.8-.3.6-.5,1.4-.7,2.2ZM515.2,28.6c-.1.1-.3.2-.4.3-.2,0-.3.2-.3.2-.9,1.4-1.9,2.9-2.8,4.3-.9,1.4-1.8,2.9-2.6,4.4-.7,1.2-1.3,2.4-1.9,3.5-.6,1.2-1.1,2.3-1.8,3.5l.2.2h.4c.7-1.2,1.5-2.6,2.2-4,.7-1.4,1.4-2.8,2.3-4.2.8-1.3,1.6-2.7,2.4-4,.8-1.4,1.7-2.8,2.5-4.1l-.2-.2ZM516,44.1c.3-.1.6-.2.8-.2.2,0,.3,0,.4-.2,3.3-1.6,6.6-3.3,9.9-5,3.3-1.7,6.5-3.5,9.7-5.4,1-.5,2.1-1.2,3.1-2,1-.8,2-1.6,3-2.3.5-.5,1-1,1.5-1.5.5-.5.7-1.2.8-2-.7-.5-1.3-.8-1.8-.7-.5,0-1,.4-1.6,1-1.1,1.1-2.1,2-3.2,2.8-1.1.8-2.2,1.5-3.5,2.2-2.5,1.4-5.1,2.8-7.6,4.1-2.5,1.4-5.1,2.7-7.5,4.1-.9.5-1.7,1.2-2.4,2-.7.8-1.2,1.8-1.5,3.1ZM519.1,37.7c1.4-.4,3.2-1.2,5.4-2.3,2.2-1.1,4.3-2.4,6.5-3.7,2.2-1.3,4.1-2.6,5.9-3.9,1.7-1.3,2.9-2.3,3.4-3-.8-.2-1.8-.3-3-.3-1.2,0-2.5,0-3.9.2-1.4.1-2.8.4-4.2.6-1.4.3-2.7.6-3.8,1-1,1.8-1.9,3.7-2.9,5.6-1,1.9-2.1,3.9-3.2,5.9ZM523.8,74.4c-1,0-1.8.3-2.4.5s-1.2.6-2,1.1c.9,0,1.7-.3,2.3-.5.6-.3,1.3-.6,2.1-1.1ZM532.7,49.8c.2.5.6.7.9.6.4,0,.8-.1,1.2-.2.8-.1,1.5-.1,2.2,0,.7,0,1.5.1,2.3.2.6.1,1.2.2,1.8.2.6,0,1.4,0,2.3,0-1.6-.8-3.2-1.4-4.7-1.6-1.5-.2-3.1-.1-4.6.4,0-.6-.4-.9-1.1-.9-.4.1-.8.2-1.3.2-.5,0-.9,0-1.4,0-1.3,0-2.4.2-3.5.6-1,.5-2.2,1.1-3.4,2,1.1-.2,2.1-.3,3.1-.4,1,0,1.9-.2,2.7-.4.6-.1,1.3-.2,1.9-.4.6-.1,1.2-.3,1.8-.4ZM527.2,18.7c.7-.1,1.4-.2,2.1-.2.7,0,1.3,0,2,0,.7-.1,1.4-.2,2.2-.2.7,0,1.5-.1,2.2-.2h3.9c-2-.3-4-.5-6-.5-2,0-4,.1-6.1.5,0,0,0,0-.1.2,0,.2,0,.3-.1.4-.5-.3-1-.5-1.6-.4-.5,0-1.1.2-1.6.3.7.2,1.3.3,1.7.3.4,0,.9,0,1.4-.2ZM529.6,71.6c.4,0,.7,0,.9,0,.2,0,.4,0,.6-.2.2-.1.4-.3.6-.5.2-.2.5-.5.8-.9-1.2.3-2.1.9-2.9,1.6ZM543.6,43.9c.2-.7.5-1.2,1-1.6.5-.3.9-.7,1.3-1,1.2-.9,2.4-1.9,3.6-2.9,1.2-1,2.2-2,3.2-3.1.7-1,1.3-2,1.8-3,.5-1,.5-2.2.3-3.4.7.7,1,1.5.8,2.5-.2.9-.6,1.7-1.1,2.6-.5.8-1.1,1.5-1.7,2.1-1.3,1.6-2.8,3-4.3,4.3-1.6,1.3-3.1,2.5-4.8,3.6Z"/>
  <path class="st0" d="M571.4,75.2c.3-.4.6-.8.9-1.2.3-.3.5-.6.8-.9-.3-.1-.4-.3-.5-.4,0-.1-.2-.2-.3-.2-.9,0-1.7,0-2.4,0-.7,0-1.5,0-2.4,0h-2.8c-.8-.3-1.5-.4-2.1-.7-.6-.2-1.3-.4-2-.5-3.2-.7-5.2-2.7-5.9-6.2-.3-1-.5-1.9-.5-2.9,0-1-.3-1.9-.6-2.8-.1-.5-.1-1.1,0-1.7,0-.6.1-1.2.2-1.6.8-3.2,1.7-6.3,2.6-9.3.9-2.9,2-5.9,3.1-9,.8-1.6,1.7-3.1,2.7-4.5,1-1.4,2.4-2.4,4.1-3.2.3-.2.5-.5.7-.8.2-.3.4-.6.6-.8.5-.6.9-1.2,1.3-1.8.4-.6.9-1.2,1.4-1.8.3-.4.5-.8.7-1.1.2-.3.4-.6.8-.9,1.7-2,3.7-3.2,5.8-3.8,2.2-.5,4.5-.4,6.9.3,1.1.4,2.1.8,3,1.2.9.4,1.9.9,2.9,1.3.4.1.8.3,1.3.4.5.1.9.3,1.2.4,4.5,1.5,6.6,4.6,6.2,9.3-.4,2.4-1,4.7-1.8,6.9-.7,2.9-1.8,5.6-3.1,8.3-1.3,2.7-2.7,5.3-4.2,8-1.8,3-3.6,6-5.5,9-1.9,3-4,5.9-6.3,8.7-.1.1-.3.3-.4.5-.1.2-.3.4-.4.5-.3.4-.7.8-1,1.2-.3.3-.7.6-1.1.7-.4.1-.9.1-1.5,0-.6,0-1.3-.3-2.3-.8ZM558.2,61.8c-.4,1.3-.4,2.4-.2,3.3.2.9.7,1.8,1.3,2.7-.2-.9-.4-1.9-.5-2.9-.1-1-.3-2-.6-3.1ZM566,65.9c0-.9,0-1.8,0-2.6,0-.9,0-1.7.2-2.5,0-1,.1-2,.3-2.9.2-.9.4-1.8.6-2.7.2-.8.4-1.7.8-2.5.3-.9.4-1.7,0-2.6-.7.1-1.1.4-1.1,1,0,.5-.1,1-.3,1.3-.6,2.3-1,4.6-1.3,6.8-.3,2.3,0,4.5.8,6.8ZM567.6,64.1c.8-.4,1.4-.7,1.6-.9,3.2-3.3,6-6.8,8.5-10.6,2.5-3.8,4.5-7.8,6-12.2,1.7-3.5,2.4-7.3,2.1-11.3,0-.9-.2-1.8-.3-2.8-.1-1-.5-1.9-1.2-2.6h-.8c-.1,0-.4,0-.8.3-1.3.9-2.5,2-3.6,3.1-1.1,1.2-2,2.4-2.8,3.6-.9,1.1-.9,2.1-.1,3.1-1.1.8-2,1.7-2.6,2.6-.6.9-1.2,1.9-1.8,3-.5.9-.8,1.7-1.1,2.6s-.4,1.8-.3,2.9c.2.7.2,1.4,0,2.1-.2.7-.3,1.3-.4,1.8-.8,1.8-1.3,3.6-1.5,5.4s-.5,3.6-.7,5.4c-.2.8-.2,1.4-.2,2.1,0,.6,0,1.4,0,2.3ZM587.7,38.8c.6-2.4,1-4.7,1.2-6.9.2-2.2-.3-4.3-1.4-6.3,0,1,0,2,.2,3,0,1,.2,2.1.3,3.2l-.2,6.9Z"/>
  <path class="st0" d="M616.2,61c-.3.2-.5.4-.6.5-.1,0-.2.2-.3.3-1.8-1.7-3.3-3.5-4.6-5.4-1.3-1.9-2.5-3.9-3.5-6-1.9.2-3,1-3.3,2.6-.6,2.2-1.2,4.4-1.8,6.7-.6,2.2-1.1,4.4-1.5,6.6-.5,1.5-.7,2.9-.6,4.4,0,1.5.4,2.9.9,4.4-.7.6-1.2.9-1.6,1-.8-.3-1.4-.7-1.8-1.3-.4-.6-.6-1.3-.8-2.1-.1-.6-.1-1.3-.1-1.9,0-.6,0-1.2-.1-1.7,0-.6,0-1.1,0-1.6,0-.5,0-1.2-.2-1.9-.3.4-.5.7-.6.9-.1.2-.2.4-.2.6,0,.9,0,1.8,0,2.6,0,.9,0,1.8,0,2.7,0,.3,0,.5,0,.9,0,.3.1.7.2,1.1-.5.3-1,.6-1.4.8-.4.2-.9.5-1.4.7-1.8-.4-2.7-1.6-2.7-3.4,0-.9,0-1.8-.1-2.6,0-.8,0-1.8,0-2.9.2-3,.7-6,1.5-8.9.8-2.9,1.6-5.8,2.4-8.7,1.2-4.2,2.6-8.3,4-12.3,1.5-4,3.1-8.1,4.8-12.2.2-.5.3-1,.3-1.4,0-.4-.1-.9-.4-1.3-.7-1-.4-2,.7-2.9.5-.6,1-1,1.3-1.1.6-.4,1.1-.8,1.5-1.2.4-.5.9-.9,1.4-1.4.3-.5.8-.9,1.3-1.2.6-.3,1.1-.3,1.7,0,1.1.4,2.1.4,3.2.2,1.1-.2,2.2-.4,3.3-.7,2.4-.4,5-.8,7.5-1.2,2.6-.4,5.2-.7,7.8-.8,1.7,0,3.3-.1,5-.1,1.6,0,3.2.1,4.7.5.8.2,1.6.2,2.3,0-.6-.3-1.3-.6-2.1-.9-.8-.3-1.6-.4-2.3-.4l-5.2-.2c-1.3,0-2.6.2-3.9.3-1.3.1-2.6.2-4,.3-.7.1-1.2.1-1.5,0s-.9-.3-1.8-.8c.5-.4.9-.5,1.2-.5,2.8-.5,5.5-.8,8.1-1,2.6-.2,5.3-.1,8.2,0,.8.2,1.5.3,2.3.5.8.2,1.5.5,2.1,1,1.9,1.5,3.4,3.5,4.6,5.9.3.2.5.5.5.9,0,.4,0,.7,0,1.1,0,.4.1.8.3,1.2.4,0,.8.3.9.5.2.3.3.6.4.9,0,.4.2.7.2,1.1,0,.4.2.7.4.9.5.5.6,1.1.3,1.6s-.7,1.1-1.1,1.6c-.7,1.1-1.6,2-2.5,2.9-1,.9-2,1.6-3.1,2.3-1.5.8-3,1.7-4.6,2.4-1.5.8-3.1,1.5-4.7,2.2-2.3,1.1-4.5,2.2-6.7,3.2-2.2,1-4.4,2.1-6.5,3.2-.5.2-1,.3-1.5.5-.5.2-1,.4-1.6.7.1.3.2.5.2.6,0,0,0,.3,0,.5,2.3,3,4.5,5.9,6.9,8.7,2.3,2.9,4.8,5.6,7.6,8.1.7.7,1.5,1.5,2.3,2.2.8.7,1.6,1.4,2.5,1.9.6.5,1.2,1,1.6,1.3.4.3.9.5,1.3.7.4.1.9.2,1.5.3.5,0,1.3,0,2.2,0,0,.8,0,1.4-.1,1.7-.2.3-.5.5-1,.8-.4.2-.8.3-1.3.4-.5,0-.8.2-1.2.3-.4.1-.7.2-.9.3-.2,0-.4.1-.7.1,0,.3,0,.5,0,.7,0,.1.2.2.4.3.2,0,.3.1.5.2.2,0,.3.2.4.4,0,0,0,.2-.1.3-.1.3-.3.4-.4.4-1.3,1.1-2.5,1.9-3.5,2.4-1,.5-1.9.8-2.8.8-.9,0-1.7-.1-2.6-.5-.9-.4-1.9-.9-3-1.6-1.8-1.2-3.5-2.4-5-3.8-1.5-1.4-2.9-2.9-4.4-4.4-1.5-1.8-3.1-3.8-5-5.9ZM610.6,53.4c0,.9.2,1.4.4,1.6.2.2.6.6,1.4,1.1-.5-1.2-1.1-2.1-1.7-2.7ZM612.3,32.3c2.9-1,5.6-2.1,8-3.2,2.4-1.2,4.9-2.3,7.3-3.5,2.5-1.1,4.9-2.3,7.3-3.6,2.4-1.3,4.8-3,7.1-4.9-.5-.1-.9-.2-1.3-.3-.4,0-.7,0-1,0-1.1,0-2.1,0-3,0-.9,0-1.9,0-3,0-2.4.2-4.8.5-7,.9-2.2.3-4.5.8-6.7,1.3-.7,0-1.3.2-1.7.5-.4.3-.7.9-.8,1.7-.6,1.5-1.1,3-1.7,4.5-.6,1.5-1.5,2.9-2.6,4.4-.1.3-.2.6-.3,1,0,.3-.3.9-.6,1.6ZM615.3,60.4c-.1-.7-.3-1.3-.7-1.7-.4-.4-.7-.8-1-1.3-.1-.1-.2-.2-.3-.3,0-.1-.3,0-.5.3.4.5.7,1.1,1,1.6.3.6.8,1,1.5,1.4ZM622.5,40c-.8-.2-1.4-.1-1.9.2-.5.4-1,.8-1.5,1.3.7,0,1.3-.1,1.8-.4.5-.3,1-.7,1.6-1.1.9-.2,1.5-.4,1.7-.5.2-.1.6-.5,1.1-1-.5.2-1,.3-1.6.4-.6,0-1,.5-1.1,1.2ZM630.1,36.3c0,0,0-.1,0-.2-.5.2-1,.5-1.4.7-.4.2-.8.4-1.2.6h0c0,.2,0,.3.3.3.3-.1.7-.3,1.2-.4.5-.2,1-.4,1.5-.6l-.3-.3ZM636.4,33.3c-.7,0-1.3.1-1.8.4-.5.3-.9.6-1.2,1,.6-.1,1.1-.2,1.6-.4.5-.2.9-.5,1.3-1,.7,0,1.3,0,1.7-.3.5-.2.9-.6,1.3-1.1-.5.1-1,.2-1.6.4-.5.1-1,.5-1.3,1.1ZM651.3,22.9c-.9.7-1.7,1.5-2.4,2.2-.7.7-1.6,1.4-2.5,2.1-.7.8-1.6,1.5-2.5,2-.9.5-1.9,1.1-2.8,1.7,1-.3,2-.6,3-.9,1-.3,1.9-.8,2.7-1.5.3-.2.6-.5.9-.6.3-.2.5-.3.6-.5,2.1-.8,3.2-2.3,3-4.5Z"/>
  <path class="st0" d="M34,204.2c.4,0,.7,0,1,0,.3,0,.5,0,.8,0,3.1-1.2,6.2-2.3,9.3-3.3s6.3-2.1,9.4-3c5.1-1.8,10.1-3.5,15.2-4.9.4-.1.8-.2,1.4-.3.5-.1,1-.2,1.4-.1.4,0,.7,0,1,.1.3,0,.5.2.7.3.2.1.5.4.7.6.2.3.6.6,1,1-.3.6-.5,1-.5,1-.1.3-.3.6-.4.8-.1.2-.2.4-.4.8h1.8c.9,0,1.6.1,2,.6.4.4.8,1.1,1.1,2,.1.3.2.7.2,1.2,0,.4,0,.9.2,1.3-.5,0-1,0-1.4,0-.5,0-.8.4-1.2.9-1.1,1.2-2.2,1.2-3.3,0,0,0-.1,0-.2-.1h0c-3.3.4-6.5,1.1-9.5,2.2-3.1,1-6.2,2.1-9.3,3-2.7,1.1-5.3,2.1-8,3-2.7.9-5.4,1.6-8.1,2-1.1.2-2.2.4-3.2.6-1.1.2-2.1,0-3.2-.3-1-.4-1.9-.9-2.6-1.5-.7-.7-1.4-1.5-1.8-2.7-.1-.2-.3-.4-.4-.5-.2-.1-.3-.4-.4-.7-.2-.2-.5-.4-.8-.7-.3-.2-.6-.4-.9-.6-1.3-1.8-1.4-3.8-.5-5.9.4-.9.8-1.7,1.3-2.4.5-.7,1-1.3,1.6-1.9,2.9-3,6-5.5,9.1-7.7.3-.3.7-.6,1-.8.4-.2.7-.5,1-.8,0-.4,0-.7-.3-.7-.2,0-.4,0-.5-.2-1.1-.4-1.9-1.1-2.6-2.1s-1.2-2-1.6-3.1c-.1-.4-.4-.9-.7-1.5-.4-.6-.7-1.3-1-2-.3-.7-.6-1.3-.8-2-.2-.6-.3-1.2-.1-1.5.3-1,.6-1.9,1.1-2.8.4-.8.9-1.7,1.4-2.7,2-3.3,4.4-6.2,7.1-8.7,2.7-2.6,5.6-4.8,8.7-6.7,3.1-1.9,6.4-3.4,9.8-4.6,3.4-1.2,6.8-2,10.2-2.5.6-.1,1.2,0,1.7.3.6.3,1.1.6,1.7,1,.6.4,1.2.8,1.8,1.3.6.4,1.1.8,1.6,1,.5-.2.8-.5,1-.8.2-.4.6-.7.9-1,.7-.7,1.4-1.3,2-1.9.6-.6,1.3-1.2,2-1.7,1.1-.7,2-1,2.7-.9.7.2,1.6.9,2.6,2.1-.1.5-.3.9-.4,1.2-.1.3-.3.7-.4,1.2-.3,0-.5,0-.7-.2-.2-.1-.4-.2-.7-.3-.3.3-.7.6-1,.8-.4.2-.6.5-.8.8-.1.1-.2.2-.3.3,0,0-.2.2-.4.2.2.7.4,1.2.8,1.6.3.4.7.8,1.1,1.4.9-.7,1.7-1.4,2.4-2.1.7-.7,1.6-1.2,2.7-1.5,0,.4-.1.7-.3.9-.2.2-.3.3-.5.5-.9.9-1.7,1.8-2.6,2.7-.9.9-1.8,1.8-2.7,2.8-1,1.1-1.9,2.2-2.8,3.3-.9,1.2-1.8,2.4-2.7,3.6-.7.9-1.3,1.8-1.9,2.9-.6,1-1,2.3-1.1,3.8-.3-.3-.5-.5-.5-.8,0-.3,0-.6,0-.9,0-.3.1-.6.2-1,0-.3,0-.6,0-.8-.3-.4-.6-.6-.8-.7-.3,0-.5,0-.7.1-.2.2-.4.3-.6.6-.2.2-.4.4-.7.4-.6-.5-1.1-.9-1.4-1.2-.3-.3-.5-.7-.5-1.2,0-.5,0-1,0-1.7,0-.7.1-1.6.2-2.8-1,0-2,.3-2.9.6-.9.3-1.9.7-2.9,1.1-3.7,1.9-7.2,4-10.4,6.5-3.2,2.5-6.3,5.4-9.3,8.8-.7.7-1.3,1.5-1.9,2.3-.6.8-1.1,1.8-1.4,2.8l.6.4c2,0,3.9-.2,5.8-.5,1.9-.3,3.7-.8,5.6-1.7,2.4-1.1,4.9-2.1,7.5-2.8.3-.2.7-.4,1-.3.5,0,.9,0,1.3.2.3.1.6.5.8,1,.3.8.7,1.5,1.1,2.1s1,.8,1.6.9c.2,0,.4.3.5,1-.1.1-.3.3-.4.4s-.2.3-.3.4c-.4.3-.8.6-1.2.8-.4.2-.8.5-1.2.7-.2.1-.3.2-.4.4-.1.1-.2.2-.3.2-.7.1-1.4.3-1.9.7-.6.3-1.2.7-2,1.2-3.1,1.4-6.2,2.9-9.2,4.6-3,1.7-5.9,3.7-8.7,6-1.2.9-2.3,1.8-3.4,2.8-1.1,1-2.2,1.9-3.2,2.9-.2.1-.3.3-.4.5s-.3.4-.6.7ZM49.3,188.1c-.6,0-1.1.1-1.5.5-.4.3-.7.6-1,.9.4,0,.9,0,1.2-.2.4-.2.8-.5,1.3-1.1ZM63,156.1c-1,0-2.2.5-3.8,1.3-1.6.7-3.2,1.7-4.8,2.8s-3.1,2.3-4.5,3.5c-1.4,1.2-2.4,2.3-2.9,3.3,2.8-2.3,5.5-4.4,8-6.1,2.6-1.7,5.3-3.3,8-4.7ZM51.6,187c.3-.2.7-.4,1-.4.3,0,.6-.1,1-.3-.8-.5-1.5-.3-1.9.7ZM60.5,199.3c.3,0,.5,0,.7,0,.1,0,.3,0,.5,0,1.4-.2,2.8-.4,4.1-.7,1.3-.3,2.6-.5,4.1-.8.5-.1,1-.4,1.3-.8.4-.4.7-.9,1.1-1.4-.9,0-2.5.2-4.7.8-2.2.6-4.6,1.6-7,2.8ZM78.9,159.5c.5-.4,1-.9,1.4-1.4.4-.5.8-1,1.1-1.5-.5.2-.9.4-1.2.6-.3.2-.5.3-.6.5-.1.2-.3.4-.4.7-.1.3-.2.7-.4,1.2Z"/>
  <path class="st0" d="M91.9,159.7c.5-.7,1-1.3,1.4-2,.4-.6.7-1.3,1.1-2,.9-1.4,1.7-3,2.3-4.8.6-1.8,1.3-3.3,2.3-4.7.3-.7.8-1,1.5-1,.7,0,1.5,0,2.2.2.8.2,1.6.4,2.4.6.8.2,1.6.3,2.4.6.4.1.6.4.8.7.1.3.3.7.4,1.2.2,1.5.4,3,.6,4.5.2,1.5.4,3,.7,4.5.5,3.8,1,7.6,1.5,11.4.5,3.8,1,7.6,1.6,11.4.2,1.1.5,2.2.7,3.3s.5,2.4.8,3.7c.3-.5.6-.9.7-1.1.1-.2.3-.5.4-.8,2.2-5.1,4.5-10.2,6.9-15.2,2.4-5,5.1-9.9,8-14.8.8-1.6,1.8-3.1,2.8-4.6,1-1.5,2.1-3,3.3-4.6.4-.8,1.1-1.5,2.1-2.1.4.1.8.2,1.1.3.4,0,.7.1,1.1.2.3,0,.6.2.9.5.2.2.4.6.5,1.2.3-.2.6-.3.8-.5.2-.1.4-.3.7-.5.4.3.7.6,1.1.9.4.2.8.5,1.2.9-.3.5-.6,1-.8,1.5-.2.5-.4,1-.8,1.5-1.4,2.6-2.9,5.1-4.3,7.6-1.4,2.5-2.8,5.1-4.3,7.6-3,5.5-5.8,11.1-8.5,16.9-2.6,5.7-5,11.6-7.1,17.6-.5,1.5-1,2.9-1.4,4.3-.4,1.4-.7,2.9-.9,4.4-.4.1-.8.2-1.2.2s-.7,0-.9.2c-.8-.8-1.2-1.6-1.2-2.3s0-1.5-.3-2.3c-.1.6-.2,1.2-.3,2,0,.7,0,1.6-.2,2.4-.6-.2-1.1-.2-1.5-.3-.4,0-.7-.1-1-.3-1.1-.4-1.9-.8-2.2-1.3-.3-.5-.4-1.3-.3-2.6.3-.8.5-1.8.6-3.1-1.9-3.5-3.4-7.2-4.3-11-.9-3.8-1.7-7.7-2.3-11.8-.4-2.2-.8-4.4-1.2-6.7-.3-2.3-.7-4.5-1-6.8-.4,0-.7,0-.8.2,0,.2-.1.5-.1.7.1.6.2,1.2.1,1.9,0,.7,0,1.6,0,2.6-.2-.7-.3-1.3-.5-1.7-.2-.4-.4-.9-.7-1.3,0,.3-.2.5-.3.7-.1.2-.2.4-.2.7-1.8,4.4-3.6,8.7-5.3,13-1.7,4.3-3.4,8.7-5.1,13-.4.9-.6,1.8-.8,2.6-.2.9-.2,1.7,0,2.5,0,.3-.2.4-.5.6-.5,0-.9-.2-1.3-.4-.3-.3-.8-.6-1.3-1,0-1.3.2-2.5.6-3.8.4-1.2.7-2.4,1.1-3.5,1.7-5,3.5-9.9,5.4-14.7,1.9-4.8,4-9.6,6.3-14.3.3-.3.5-.7.7-1.1.2-.4.2-.9-.1-1.5-.1.3-.3.4-.5.6-.2.1-.3.3-.5.6-2.2,4.6-4.3,9.3-6.2,14-1.9,4.7-3.8,9.6-5.5,14.5-.3.8-.7,1.7-.9,2.6-.3.9-.6,1.8-1,2.7-.2.7-.3,1.4-.3,2,0,.6.2,1.2.7,1.9-.6.3-1.1.6-1.6.8-.5.2-1,.4-1.5.5-1.3-.4-2.2-.8-2.5-1.4-.4-.6-.4-1.4,0-2.5.4-1.7.8-3.3,1.4-4.8.5-1.5,1-3.1,1.5-4.8.2-.8.5-1.5.8-2.3.3-.8.6-1.5.8-2.4.1-.3.2-.6.3-1,0-.3.1-.6.3-1,.5-1.1.8-1.9,1.1-2.4.2-.5.3-1.2.2-1.9-.1.3-.3.4-.4.6s-.3.3-.5.6c.1-.3.2-.6.2-1,0-.4,0-.7.2-1,1.2-3.2,2.5-6.4,3.8-9.6,1.4-3.2,2.9-6.3,4.7-9.2,0-.3.1-.5.4-.5-.2.8-.5,1.5-.7,2.2-.2.7-.5,1.4-.8,2.1-.4.3-.7.6-.8,1-.1.4,0,.8.1,1.3.4-.9.6-1.7.7-2.4ZM83.5,179.9c-.1.1-.3.2-.5.3-.2,0-.4.2-.7.3.3-1.2.7-2.2,1.3-3.1v2.5ZM89.1,165.7c.1,0,.3.1.4.3.3-.4.5-1,.7-1.7-.1,0-.2,0-.2,0,0,0,0,0-.2,0-.1.3-.3.6-.4.8-.1.2-.2.5-.4.7ZM106,154.8c-.3.5-.4,1-.5,1.6,0,.6,0,1.2,0,1.7.2,1,.3,2,.4,2.9.1.9.2,1.9.3,2.9.6,3.9,1.1,7.8,1.7,11.5.6,3.8,1.3,7.5,2.2,11.3,0,.8.3,1.5.5,2.1.2.6.4,1.4.6,2.1,0-1.7-.1-3.2-.5-4.7-.4-1.5-.7-3-.9-4.5-.3-1.5-.6-3-.9-4.4-.2-1.5-.5-2.9-.8-4.4-.3-1.7-.6-3.3-.7-4.7-.1-1.5-.4-3-.7-4.6-.1-1.5-.3-3-.4-4.5-.1-1.5-.3-3-.4-4.5ZM117.8,175.3c.5-1.2,1-2.3,1.5-3.3.5-1,1-2.1,1.5-3.3-.2,1.3-.6,2.5-1.1,3.6-.6,1.1-1.2,2.1-1.8,3Z"/>
  <path class="st0" d="M196,176.1c.6,0,1.2.1,1.8.4.5.2,1.1.5,1.8.7.7.3,1.4.6,2.3.8.9.3,1.9.5,3.1.7-.2.8-.4,1.5-.8,2.3-.3.8-.8,1.6-1.4,2.5-.6.9-1.4,2-2.4,3.1-1,1.2-2.1,2.6-3.4,4.2.2.4.5.5.7.3.2-.2.4-.3.5-.5.9-1,1.7-1.9,2.5-2.8.8-.9,1.5-1.8,2.2-2.7.5-.5,1-1,1.4-1.6.4-.6.9-1.1,1.4-1.5-.1.3-.2.6-.3.9,0,.3-.2.6-.3.9-.8,1.8-1.8,3.4-2.8,4.8-1,1.4-2.3,2.7-3.8,4-2.6,2.3-5.7,3.5-9.4,3.3-1.2,0-2.3-.1-3.4-.3-1.1-.1-2.3-.3-3.4-.5-.8-.3-1.6-.6-2.4-.9-.8-.3-1.5-.7-2.2-1.1-.9-.3-1.6-.8-2.3-1.4-2.3-.8-4.1-2.1-5.4-3.6-1.3-1.6-2.3-3.5-3-5.9-.6-2.3-.8-4.5-.6-6.7.2-2.2.6-4.4,1.1-6.4.7-2.6,1.6-5.3,2.9-8.2,1.3-2.8,2.7-5.6,4.3-8.3,1.6-2.7,3.4-5.3,5.4-7.7,1.9-2.4,3.9-4.6,5.9-6.4.7-.6,1.3-1,1.9-1.2.5-.2,1-.2,1.6-.2.5,0,1.1.1,1.8.2.6,0,1.4,0,2.4-.1,1.6-.4,3.2-.6,5-.5,2.2.3,4.2.8,6.2,1.7,2,.8,3.8,2.1,5.4,3.8.4.6.8,1.2,1.2,1.9.4.7.8,1.4,1,2.1,0,1,.2,1.9.3,2.8.1.9.1,1.8,0,2.7-.4,3-1.4,5.7-2.8,8.2-1.5,2.4-3.3,4.7-5.6,6.8-1.6,1.4-3.6,2-6.1,1.8-1.1-.3-1.9-1.1-2.4-2.3,1-1.5,2-3,3.1-4.5,1-1.5,2-3.1,3-4.7.9-1.6,1.7-3.3,2.3-5.1.6-1.8,1.1-3.7,1.4-5.8.2.5.3.9.4,1.3.1.3.2.6.2.9,0,.3,0,.6,0,1,0,.4-.1.8-.3,1.5-.3.8-.5,1.5-.8,2.2-.3.7-.6,1.6-.9,2.7,1.8-2.6,2.8-5,3-7.3.2-2.3-.2-4.4-1.5-6.2-.6-.1-1.2-.2-1.8-.3-.6,0-1.2,0-2,0-.3.2-.7.5-1.2.7-.5.4-1.1.7-1.6.9-.6.2-1,.6-1.4,1.1-.9.9-1.9,1.8-2.8,2.8-1,1-1.9,2.1-2.8,3.1-3,3.9-5.5,8.1-7.3,12.5-1.9,4.4-3,9.1-3.4,14.1-.4,2.9-.2,5.7.5,8.4.2.6.5,1.2.7,1.8.2.6.4,1.1.6,1.6,1.7-.6,3.1-1.5,4.3-2.6,1.2-1.2,2.3-2.3,3.4-3.4,1.1-1.2,2.1-2.4,3-3.5.9-1.1,1.8-2.2,2.6-3.4ZM172,181.3c-.1,0-.3,0-.4,0-.1,0-.3,0-.4.2.1.1.2.3.2.5,0,.2.1.4.3.5,0,.3.1.6.4,1,.1-.2.2-.3.3-.3,0-.8-.3-1.5-.5-1.9ZM174.6,161.5c-.5.9-1,1.8-1.5,2.6-.4.9-.6,1.9-.3,3,.4-1.1.7-2,1-2.9.3-.9.6-1.8.9-2.7ZM178.4,186.2c0-.4,0-.8,0-1.2,0-.4-.1-.8-.3-1.2-.3-1.9-.2-3.8,0-5.7.3-1.9.7-3.7,1.2-5.5,1.2-5.1,3.1-9.9,5.6-14.3,2.6-4.4,5.7-8.4,9.5-12.1.1-.1.3-.2.4-.4.2-.1.1-.3-.1-.7-.1.1-.3.2-.5.4-.2.1-.4.2-.6.4-1.7,1.4-3.2,2.9-4.5,4.6-1.4,1.6-2.6,3.4-3.8,5.2-4.1,6.1-6.7,12.7-7.8,19.8-.3,1.8-.5,3.7-.4,5.5,0,1.8.5,3.5,1.3,5.2ZM189.2,140.7c.7,0,1.3,0,1.8.2.5.1,1,0,1.3,0,0,0,.3-.1.8-.4.5-.2,1-.5,1.6-.8.6-.3,1.1-.6,1.6-.9.5-.3.8-.5.9-.7-1.7-.2-3-.2-4,.2-1,.4-2.4,1.2-4,2.5Z"/>
  <path class="st0" d="M209.9,172.1c-.1.3-.3.5-.5.8-.2.3-.4.6-.5.9-.4,1.3-1,2.9-1.8,4.9-.1-.4-.2-.7-.3-.9,0-.2,0-.5.1-.7.3-1,.6-1.9.8-2.8.3-.9.5-1.9.8-3,.2-.8.5-1.5.7-2.1.2-.7.4-1.3.6-1.9,0-.5,0-.8-.3-.8-.8-.9-1.3-1.5-1.4-1.9-.1-.4.3-.8,1.1-1.2.3-.1.5-.2.7-.3,1.1-.3,1.9-.8,2.5-1.4.6-.6,1.2-1.5,1.7-2.5,1.9-3.5,4.1-6.8,6.4-10,2.4-3.2,5.1-6.2,8-9,2.7-2.8,5.7-5.1,9.1-7,2-1,3.9-1.4,5.7-1.1,1.8.3,3.7.8,5.6,1.7,1.2.7,1.6,1.8,1.2,3.2-.2.9-.3,1.8-.6,2.6s-.5,1.7-.8,2.4c-.7,1.8-1.4,3.6-2.1,5.4-.7,1.8-1.3,3.7-1.9,5.6-.1.3-.3.7-.4,1.2-.1.5-.3,1-.4,1.7.4.5.9,1.2,1.5,2.4-.3.1-.7.2-1.1.2-.4,0-1,0-1.7.2.5.3,1,.5,1.5.6.5.1.9.2,1.3.4.4.1.7.3,1,.6.2.3.4.7.4,1.3-.5,0-1,0-1.4-.1-.4,0-.9,0-1.4,0-.9,0-1.5,0-1.8.2-.3.2-.6.7-.9,1.5-.4,1.1-.7,2.2-1.1,3.3-.4,1.1-.7,2.2-1.1,3.3-.5,1.9-.9,3.8-1.4,5.8-.5,1.9-1,3.8-1.4,5.7-.2.7-.3,1.4-.3,2,0,.6-.2,1.2-.3,1.9-1.7.5-2.8.7-3.4.5-.6-.2-1.3-1-2.2-2.4-.2,1.4-.4,2.7-.6,3.9-.1,1.2-.2,2.4-.3,3.6-.1,0-.2,0-.3.2-.1.2-.2.2-.3,0-.3-.1-.5-.3-.8-.6-.3-.3-.5-.5-.6-.7-.1-.3-.1-.7,0-1.1,0-.4,0-.7,0-1.1v-2.4c-.4-.3-.8-.3-1.1-.1-.3.2-.4.5-.4.8v4.1c-.1,0-1.8,0-1.8,0l-.3-.3c0,0-.1-.1-.2-.1-.3-2.4-.3-4.7,0-6.9.3-2.2.8-4.4,1.4-6.8.3-1.5.7-3.1,1-4.6.4-1.5.7-3,1.1-4.5,0-.3,0-.6.2-.8.1-.2.2-.4.2-.6-1.1-.4-1.9-.4-2.6,0-.7.3-1.4.5-2.3.7-.7.1-1.4.2-2.1.4-.7.2-1.4.4-2.1.7-1.2,2-2.1,4.1-2.9,6.2-.8,2.1-1.6,4.2-2.4,6.3-.6.1-1.1.2-1.5.3-.5.1-.9.2-1.4.1-.6,0-1.1-.3-1.3-.7-.2-.5-.3-1-.2-1.5.2-.9.3-1.8.5-2.7.2-.9.4-1.8.7-2.7.5-.3.8-.7,1-1.2.1-.5.2-1.1.4-1.9-.3.4-.5.8-.7,1-.2.3-.3.5-.4.7s-.1.4-.2.6c0,.2,0,.4-.2.8ZM234.2,145.6c-.9.7-1.9,1.7-3,2.8-1.1,1.1-2.1,2.3-3.1,3.6-1,1.2-1.8,2.5-2.6,3.7-.8,1.2-1.3,2.2-1.6,3,1.1-.4,2.2-.7,3.2-.8,1-.1,2-.5,3-1,.7-1.8,1.4-3.7,2-5.5.6-1.8,1.3-3.8,2.1-5.8Z"/>
  <path class="st0" d="M236.5,191.6c.2-.7.5-1.1,1-1.3.4-.2.9-.3,1.3-.3-.8,0-1.7-.4-2.7-1.1-.3-.3-.7-.6-1.1-.8-.4-.2-.8-.4-1.2-.6,0-.3,0-.6,0-.9,0-.3,0-.6,0-.9,2-1,3.9-1.8,5.9-2.6,1.9-.8,3.9-1.7,6-2.8-.5-2.3-.5-4.4,0-6.4.5-2,1-4.1,1.7-6.2,2.8-11,7-21.5,12.6-31.4.1-.2.3-.8.6-1.5-.4,0-.7,0-1.1,0-.3,0-.6,0-.8,0-.8.4-1.6.8-2.4,1.2-.8.4-1.5.8-2.2,1.3-.5.3-.9.5-1.3.5-.4,0-.8,0-1.3-.4-.4-.2-.7-.4-1-.7-.3-.3-.3-.7.1-1.3,0,0,0-.2-.2-.4-.1-.2-.2-.4-.3-.5-.7-.7-.8-1.6-.3-2.6,0-.1,0-.3,0-.6-.1-.3-.2-.5-.3-.9.4-.2.8-.5,1.1-.9.3-.3.7-.7,1.2-1,.9-.6,1.7-1,2.4-1.3,1-.5,2-.9,3-1.2.9-.4,1.9-.7,2.9-1.1.9-.2,1.8-.5,2.7-.9s1.9-.7,3-.8c3.8-.6,7.5-.6,11.2,0,3.7.5,7.2,1.8,10.6,3.8,1.6,1,3.1,2.1,4.5,3.5,1.4,1.4,2.6,2.9,3.6,4.6.4.5.7,1,.9,1.5.2.5.5.9.7,1.3,1.7,2.2,2.7,4.4,3.1,6.7s.2,4.8-.5,7.4c-.3,1.5-.8,3-1.4,4.4-.7,1.4-1.4,2.7-2.1,4.1-1.8,2.5-3.6,4.8-5.6,6.9-2,2.1-4.1,4-6.4,5.8-2.9,2.2-5.8,4.2-8.9,6-3,1.8-6.1,3.6-9.2,5.3-4.6,2.9-9.5,5.3-14.7,7.3-2.9,1.2-5.7,2-8.4,2.6-.5.1-1,.2-1.6.2-.5,0-1,0-1.5,0-.2,0-.4,0-.6-.2-.2-.1-.4-.2-.5-.3-.4-.3-.9-.7-1.3-1.1-.4-.4-.8-.8-1-1.2ZM247.5,178.9c.8,0,1.3-.4,1.5-1.2,0-.5,0-1,0-1.5,0-.5,0-1,.1-1.5.4-1.5.7-2.9,1.1-4.4.4-1.5.8-2.9,1.3-4.3,1-3.3,2.1-6.5,3.3-9.7,1.2-3.2,2.4-6.3,3.7-9.4.3-.5.5-1,.6-1.5.1-.5.3-1.1.4-1.8-.6.6-1,1.2-1.3,1.7-.3.5-.5,1.1-.6,1.6-1.5,3.2-3,6.6-4.3,10-1.3,3.5-2.6,6.9-3.8,10.3-.4,1.3-.8,2.6-1.1,3.9-.3,1.3-.6,2.6-.9,3.9-.2.6-.3,1.3-.4,1.9-.1.6,0,1.3.3,2ZM254.2,175.2c.5-.2.7-.4.8-.7,0-.3.2-.6.3-.9.9-2.9,1.8-5.7,2.8-8.5,1-2.8,2.1-5.6,3.3-8.4.9-2,1.8-3.9,2.6-5.8.8-1.9,1.7-3.9,2.7-5.9.1-.3.3-.5.4-.6.1-.2,0-.4-.3-.7-1.2,1.9-2.4,4.3-3.8,7.4-1.4,3-2.7,6.1-4,9.3-1.3,3.2-2.3,6.2-3.2,8.9-.9,2.8-1.4,4.8-1.5,6ZM257.1,173.8c.7-.4,1.2-.6,1.5-.8.4-.2.7-.4,1-.7,2.9-1.7,5.7-3.5,8.5-5.5,2.8-2,5.4-4,8-6.3,2.1-1.8,4.1-3.7,5.9-5.7,1.8-2,3.5-4.2,5.1-6.6,1-1.6,1.9-3.2,2.5-4.8.7-1.6,1.1-3.4,1.3-5.3.1-1.2,0-2-.2-2.5-.2-.4-.9-.9-2-1.5-2.4-1-5.1-1.5-8-1.6-1.9-.2-3.8-.3-5.7-.3-1.9,0-3.7,0-5.6.3-.3.3-.6.5-.8.5v2c.6-.1,1.1,0,1.3.5.2.5.4,1,.5,1.7.3-.3.5-.6.8-.8.3-.2.6-.4.8-.5.3.7.5,1.2.5,1.4,0,.2-.1.6-.5,1.1-.6,1.9-1.5,3.9-2.5,6-1.2,2.3-2.3,4.6-3.4,6.9-1.1,2.3-2.1,4.6-3.2,6.9-1.2,2.4-2.2,4.9-3.1,7.4-.9,2.5-1.9,5.3-2.9,8.2ZM270.6,128c1.9,0,3.7,0,5.6.1,1.9,0,3.7.3,5.6.5.6.1,1.2.3,1.8.4.6.1,1.2.3,1.7.4-.4-.3-.7-.6-1.1-.7-.3-.1-.8-.2-1.3-.4-1.5-.4-3-.6-4.5-.7-1.6-.1-3.2-.2-4.8-.3-.7,0-1.4,0-2.2,0-.7,0-1.5,0-2.4,0-.3,0-.5.2-.5.6-1-.2-2.1-.1-3.2,0,1.3.4,2.4.4,3.2,0h2.1ZM292.9,140.9c0,0,0,0,0,0h0s0-2.6,0-2.6h-.2s0,2.5,0,2.5ZM298.1,141.8c0,1.5.1,3.1.4,5,0-.7.2-1.2.2-1.6,0-.4.1-.7,0-1.1,0-.3,0-.6-.2-1-.1-.3-.3-.8-.5-1.4Z"/>
  <path class="st0" d="M296.9,162.9c-.1.3-.3.5-.5.8-.2.3-.4.6-.5.9-.4,1.3-1,2.9-1.8,4.9-.1-.4-.2-.7-.3-.9,0-.2,0-.5.1-.7.3-1,.6-1.9.8-2.8.3-.9.5-1.9.8-3,.2-.8.5-1.5.7-2.1.2-.7.4-1.3.6-1.9,0-.5,0-.8-.3-.8-.8-.9-1.3-1.5-1.4-1.9-.1-.4.3-.8,1.1-1.2.3-.1.5-.2.7-.3,1.1-.3,2-.8,2.5-1.4.6-.6,1.2-1.5,1.7-2.5,1.9-3.5,4.1-6.8,6.4-10,2.4-3.2,5.1-6.2,8-9,2.7-2.8,5.7-5.1,9.1-7,2-1,3.9-1.4,5.7-1.1,1.8.3,3.7.8,5.6,1.7,1.2.7,1.6,1.8,1.2,3.2-.2.9-.3,1.8-.6,2.6-.2.9-.5,1.7-.8,2.4-.7,1.8-1.4,3.6-2.1,5.4-.7,1.8-1.3,3.7-1.9,5.6-.1.3-.3.7-.4,1.2-.1.5-.3,1-.4,1.7.4.5.9,1.2,1.5,2.4-.3.1-.7.2-1.1.2-.4,0-1,0-1.7.2.5.3,1,.5,1.5.6.5.1.9.2,1.3.4.4.1.7.3,1,.6.2.3.4.7.4,1.3-.5,0-1,0-1.4-.1-.4,0-.9,0-1.4,0-.9,0-1.5,0-1.8.2-.3.2-.6.7-.9,1.5-.4,1.1-.7,2.2-1.1,3.3-.4,1.1-.7,2.2-1.1,3.3-.5,1.9-.9,3.8-1.4,5.8-.5,1.9-1,3.8-1.4,5.7-.2.7-.3,1.4-.3,2,0,.6-.2,1.2-.3,1.9-1.7.5-2.8.7-3.4.5-.6-.2-1.3-1-2.2-2.4-.2,1.4-.4,2.7-.6,3.9-.1,1.2-.2,2.4-.3,3.6-.1,0-.2,0-.3.2-.1.2-.2.2-.3,0-.3-.1-.5-.3-.8-.6-.3-.3-.5-.5-.6-.7-.1-.3-.1-.7,0-1.1,0-.4,0-.7,0-1.1v-2.4c-.4-.3-.8-.3-1.1-.1-.3.2-.4.5-.4.8v4.1c-.1,0-1.8,0-1.8,0l-.3-.3c0,0-.1-.1-.2-.1-.3-2.4-.3-4.7,0-6.9.3-2.2.8-4.4,1.4-6.8.3-1.5.7-3.1,1-4.6.4-1.5.7-3,1.1-4.5,0-.3,0-.6.2-.8.1-.2.2-.4.2-.6-1.1-.4-1.9-.4-2.6,0-.7.3-1.4.5-2.3.7-.7.1-1.4.2-2.1.4-.7.2-1.4.4-2.1.7-1.2,2-2.1,4.1-2.9,6.2-.8,2.1-1.6,4.2-2.4,6.3-.6.1-1.1.2-1.5.3-.5.1-.9.2-1.4.1-.6,0-1.1-.3-1.3-.7-.2-.5-.3-1-.2-1.5.2-.9.3-1.8.5-2.7.2-.9.4-1.8.7-2.7.5-.3.8-.7,1-1.2.1-.5.2-1.1.4-1.9-.3.4-.5.8-.7,1-.2.3-.3.5-.4.7s-.1.4-.2.6c0,.2,0,.4-.2.8ZM321.2,136.4c-.9.7-1.9,1.7-3,2.8-1.1,1.1-2.1,2.3-3.1,3.6-1,1.2-1.8,2.5-2.6,3.7-.8,1.2-1.3,2.2-1.6,3,1.1-.4,2.2-.7,3.2-.8,1-.1,2-.5,3-1,.7-1.8,1.4-3.7,2-5.5.6-1.8,1.3-3.8,2.1-5.8Z"/>
  <path class="st0" d="M395.3,155.2c.6,0,1.2.1,1.8.4.5.2,1.1.5,1.8.7.7.3,1.4.6,2.3.8.9.3,1.9.5,3.1.7-.2.8-.4,1.5-.8,2.3-.3.8-.8,1.6-1.4,2.5-.6.9-1.4,2-2.4,3.1-1,1.2-2.1,2.6-3.4,4.2.2.4.5.5.7.3.2-.2.4-.3.5-.5.9-1,1.7-1.9,2.5-2.8.8-.9,1.5-1.8,2.2-2.7.5-.5,1-1,1.4-1.6.4-.6.9-1.1,1.4-1.5-.1.3-.2.6-.3.9,0,.3-.2.6-.3.9-.8,1.8-1.8,3.4-2.8,4.9-1,1.4-2.3,2.7-3.8,3.9-2.6,2.3-5.7,3.5-9.4,3.3-1.2,0-2.3-.1-3.4-.3-1.1-.1-2.3-.3-3.4-.5-.8-.3-1.6-.6-2.4-.9-.8-.3-1.5-.7-2.2-1.1-.9-.3-1.6-.8-2.3-1.4-2.3-.8-4.1-2.1-5.4-3.6-1.3-1.6-2.3-3.5-3-5.9-.6-2.3-.8-4.5-.6-6.7.2-2.2.6-4.4,1.1-6.4.7-2.6,1.6-5.3,2.9-8.2,1.3-2.8,2.7-5.6,4.3-8.3s3.4-5.3,5.4-7.7c1.9-2.4,3.9-4.6,5.9-6.4.7-.6,1.3-1,1.9-1.2.5-.2,1-.2,1.6-.2.5,0,1.1.1,1.8.2.6,0,1.4,0,2.4-.1,1.6-.4,3.2-.6,5-.5,2.2.3,4.2.8,6.2,1.7,2,.8,3.8,2.1,5.4,3.8.4.6.8,1.2,1.2,1.9.4.7.8,1.4,1,2.1,0,1,.2,1.9.3,2.8.1.9.1,1.8,0,2.7-.4,3-1.4,5.7-2.8,8.2-1.5,2.4-3.3,4.7-5.6,6.8-1.6,1.4-3.6,2-6.1,1.8-1.1-.3-1.9-1.1-2.4-2.3,1-1.5,2-3,3.1-4.6,1-1.5,2-3.1,3-4.7.9-1.6,1.7-3.3,2.3-5.1.6-1.8,1.1-3.7,1.4-5.8.2.5.3.9.4,1.3.1.3.2.6.2.9,0,.3,0,.6,0,1,0,.4-.1.8-.3,1.5-.3.8-.5,1.5-.8,2.2-.2.7-.6,1.6-.9,2.7,1.8-2.6,2.8-5,3-7.3.2-2.3-.2-4.4-1.5-6.2-.6-.1-1.2-.2-1.8-.3-.6,0-1.2,0-2,0-.3.2-.7.5-1.2.7-.5.4-1.1.7-1.6.9-.6.2-1,.6-1.4,1.1-.9.9-1.9,1.8-2.8,2.8-1,1-1.9,2.1-2.8,3.1-3,3.9-5.5,8.1-7.3,12.5-1.9,4.4-3,9.1-3.4,14.1-.4,2.9-.2,5.7.5,8.4.2.6.5,1.2.7,1.8.2.6.4,1.1.6,1.6,1.7-.6,3.1-1.5,4.3-2.6,1.2-1.2,2.3-2.3,3.4-3.4,1.1-1.2,2.1-2.4,3-3.5.9-1.1,1.8-2.2,2.6-3.4ZM371.2,160.4c-.1,0-.3,0-.4,0-.1,0-.3,0-.4.2.1.1.2.3.2.5,0,.2.1.4.3.5,0,.3.1.6.4,1,.1-.2.2-.3.3-.3,0-.8-.3-1.5-.5-1.9ZM373.9,140.6c-.5.9-1,1.8-1.5,2.6-.4.9-.6,1.9-.3,3,.4-1.1.7-2,1-2.9.3-.9.6-1.8.9-2.7ZM377.6,165.2c0-.4,0-.8,0-1.2,0-.4-.1-.8-.3-1.2-.3-1.9-.3-3.8,0-5.7.3-1.9.7-3.7,1.2-5.5,1.2-5.1,3.1-9.9,5.6-14.3,2.6-4.4,5.7-8.4,9.5-12.1.1-.1.3-.2.4-.4.2-.1.1-.3-.1-.7-.1.1-.3.2-.5.4-.2.1-.4.2-.6.4-1.7,1.4-3.2,2.9-4.5,4.6-1.4,1.6-2.6,3.4-3.8,5.2-4.1,6.1-6.7,12.7-7.8,19.8-.3,1.8-.5,3.7-.4,5.5s.5,3.5,1.3,5.2ZM388.4,119.8c.7,0,1.3,0,1.8.2.5.1,1,0,1.3,0,0,0,.3-.1.8-.4.5-.2,1-.5,1.6-.8.6-.3,1.1-.6,1.6-.9.5-.3.8-.5.9-.7-1.7-.2-3-.2-4,.2-1,.4-2.4,1.2-4,2.5Z"/>
  <path class="st0" d="M425.6,167.9c.3-.4.6-.8.9-1.2.3-.3.5-.6.8-.9-.3-.1-.4-.3-.5-.4,0-.1-.2-.2-.3-.2-.9,0-1.7,0-2.4,0-.7,0-1.5,0-2.4,0h-2.8c-.8-.3-1.5-.4-2.1-.7-.6-.2-1.3-.4-2-.5-3.2-.7-5.2-2.7-5.9-6.2-.3-1-.5-1.9-.5-2.9,0-1-.3-1.9-.6-2.8-.1-.5-.1-1.1,0-1.7,0-.6.1-1.2.2-1.6.8-3.2,1.7-6.3,2.6-9.3.9-2.9,2-5.9,3.1-9,.8-1.6,1.7-3.1,2.7-4.5,1-1.4,2.4-2.4,4.1-3.2.3-.2.5-.5.8-.8.2-.3.4-.6.6-.8.5-.6.9-1.2,1.3-1.8.4-.6.9-1.2,1.4-1.8.3-.4.5-.8.7-1.1.2-.3.4-.6.8-.9,1.7-2,3.7-3.2,5.8-3.8,2.2-.5,4.4-.4,6.9.3,1.1.4,2.1.8,3,1.2.9.4,1.9.9,2.9,1.3.4.1.8.3,1.3.4.5.1.9.3,1.2.4,4.5,1.5,6.6,4.6,6.2,9.3-.4,2.4-1,4.7-1.8,6.9-.7,2.9-1.8,5.6-3.1,8.3-1.3,2.7-2.7,5.3-4.2,8-1.8,3-3.6,6-5.5,9-1.9,3-4,5.9-6.3,8.7-.1.1-.3.3-.4.5-.1.2-.3.4-.4.5-.3.4-.7.8-1,1.2-.3.3-.7.6-1.1.7-.4.1-.9.1-1.5,0-.6,0-1.3-.3-2.3-.8ZM412.4,154.5c-.4,1.3-.4,2.4-.2,3.3.2.9.7,1.8,1.3,2.7-.2-.9-.4-1.9-.5-2.9-.1-1-.3-2-.6-3.1ZM420.2,158.6c0-.9,0-1.8,0-2.6,0-.9,0-1.7.2-2.5,0-1,.1-2,.3-2.9.2-.9.3-1.8.6-2.7.2-.8.4-1.7.8-2.5.3-.9.4-1.7,0-2.6-.7.1-1.1.4-1.1,1,0,.5-.1,1-.3,1.3-.6,2.3-1,4.6-1.3,6.8-.3,2.3,0,4.5.8,6.8ZM421.8,156.8c.8-.4,1.4-.7,1.6-.9,3.2-3.3,6-6.8,8.5-10.6,2.5-3.8,4.5-7.8,6-12.2,1.7-3.5,2.4-7.3,2.1-11.3,0-.9-.2-1.8-.3-2.8-.1-1-.5-1.9-1.2-2.6h-.8c-.1,0-.4,0-.8.3-1.3.9-2.5,2-3.6,3.1-1.1,1.2-2,2.4-2.8,3.6-.9,1.1-.9,2.1-.1,3.1-1.1.8-2,1.7-2.6,2.6-.6.9-1.2,1.9-1.8,3-.5.9-.8,1.7-1.1,2.6-.3.9-.4,1.8-.3,2.9.2.7.2,1.4,0,2.1s-.3,1.3-.4,1.8c-.8,1.8-1.3,3.6-1.5,5.4-.3,1.8-.5,3.6-.7,5.4-.2.8-.2,1.4-.2,2.1,0,.6,0,1.4,0,2.3ZM441.9,131.5c.6-2.4,1-4.7,1.2-6.9.2-2.2-.3-4.3-1.4-6.3,0,1,0,2,.2,3,0,1,.2,2.1.3,3.2l-.2,6.9Z"/>
  <path class="st0" d="M470.5,153.8c-.3.2-.5.4-.6.5-.1,0-.2.2-.3.3-1.8-1.7-3.3-3.5-4.6-5.4-1.3-1.9-2.5-3.9-3.5-6-1.9.2-3,1-3.3,2.6-.6,2.2-1.2,4.4-1.8,6.7-.6,2.2-1.1,4.4-1.5,6.6-.5,1.5-.7,2.9-.6,4.4,0,1.5.4,2.9.9,4.4-.7.6-1.2.9-1.6,1-.8-.3-1.4-.7-1.8-1.3-.4-.6-.6-1.3-.8-2.1-.1-.6-.1-1.3-.1-1.9,0-.6,0-1.2-.1-1.7,0-.6,0-1.1,0-1.6,0-.5,0-1.2-.2-1.9-.3.4-.5.7-.6.9-.1.2-.2.4-.2.6,0,.9,0,1.8,0,2.6,0,.9,0,1.8,0,2.7,0,.3,0,.5,0,.9,0,.3.1.7.2,1.1-.5.3-1,.6-1.4.8-.4.2-.9.5-1.4.7-1.8-.4-2.7-1.6-2.7-3.4,0-.9,0-1.8-.1-2.6,0-.8,0-1.8,0-2.9.2-3,.7-6,1.5-8.9.8-2.9,1.6-5.8,2.4-8.7,1.2-4.2,2.6-8.3,4-12.3,1.5-4,3.1-8.1,4.8-12.2.2-.5.3-1,.3-1.4,0-.4-.1-.9-.4-1.3-.7-1-.4-2,.7-2.9.5-.6,1-1,1.3-1.1.6-.4,1.1-.8,1.5-1.2.4-.5.9-.9,1.4-1.4.3-.5.8-.9,1.3-1.2.6-.3,1.1-.3,1.7,0,1.1.4,2.1.4,3.2.2,1.1-.2,2.2-.4,3.3-.7,2.4-.4,5-.8,7.5-1.2,2.6-.4,5.2-.7,7.8-.8,1.7,0,3.3-.1,5-.1,1.6,0,3.2.1,4.7.5.8.2,1.6.2,2.3,0-.6-.3-1.3-.6-2.1-.9-.8-.3-1.6-.4-2.3-.4l-5.2-.2c-1.3,0-2.6.2-3.9.3-1.3.1-2.6.2-4,.3-.7.1-1.2.1-1.5,0-.3,0-.9-.3-1.8-.8.5-.4.9-.5,1.2-.5,2.8-.5,5.5-.8,8.1-1,2.6-.2,5.3-.1,8.2,0,.8.2,1.5.3,2.3.5.8.2,1.5.5,2.1,1,1.9,1.5,3.4,3.5,4.6,5.9.3.2.5.5.5.9,0,.4,0,.7,0,1.1,0,.4,0,.8.3,1.2.4,0,.8.3.9.5.2.3.3.6.4.9,0,.4.2.7.2,1.1,0,.4.2.7.4.9.5.5.6,1.1.3,1.6s-.7,1.1-1.1,1.6c-.7,1.1-1.6,2-2.5,2.9-1,.9-2,1.6-3.1,2.3-1.5.8-3,1.7-4.6,2.4-1.5.8-3.1,1.5-4.7,2.2-2.3,1.1-4.5,2.2-6.7,3.2-2.2,1-4.4,2.1-6.5,3.2-.5.2-1,.3-1.5.5-.5.2-1,.4-1.6.7.1.3.2.5.2.6,0,0,0,.3,0,.5,2.3,3,4.5,5.9,6.9,8.7,2.3,2.9,4.8,5.6,7.6,8.1.7.7,1.5,1.5,2.3,2.2.8.7,1.6,1.4,2.5,1.9.6.5,1.2,1,1.6,1.3.4.3.9.5,1.3.7.4.1.9.2,1.5.3.5,0,1.3,0,2.2,0,0,.8,0,1.4-.1,1.7-.2.3-.5.5-1,.8-.4.2-.8.3-1.3.4-.5,0-.8.2-1.2.3-.4.1-.7.2-.9.3-.2,0-.4.1-.7.1,0,.3,0,.5,0,.7,0,.1.2.2.4.3.2,0,.3.1.5.2.2,0,.3.2.4.4,0,0,0,.2-.1.3-.1.3-.3.4-.4.4-1.3,1.1-2.5,1.9-3.5,2.4-1,.5-1.9.8-2.8.8-.9,0-1.7-.1-2.6-.5-.9-.4-1.9-.9-3-1.6-1.8-1.2-3.5-2.4-5-3.8-1.5-1.4-2.9-2.9-4.4-4.4-1.5-1.8-3.1-3.8-5-5.9ZM464.8,146.2c0,.9.2,1.4.4,1.6.2.2.6.6,1.4,1.1-.5-1.2-1.1-2.1-1.7-2.8ZM466.5,125c2.9-1,5.6-2.1,8-3.2,2.4-1.2,4.9-2.3,7.3-3.5,2.5-1.1,4.9-2.3,7.3-3.6,2.4-1.3,4.8-3,7.1-4.9-.5-.1-.9-.2-1.3-.3-.4,0-.7,0-1,0-1.1,0-2.1,0-3,0-.9,0-1.9,0-3,0-2.4.2-4.8.5-7,.9-2.2.3-4.5.8-6.7,1.3-.7,0-1.3.2-1.7.5-.4.3-.7.9-.8,1.7-.6,1.5-1.1,3-1.7,4.5-.6,1.5-1.5,2.9-2.6,4.4-.1.3-.2.6-.3,1,0,.3-.3.9-.6,1.6ZM469.5,153.2c-.1-.7-.3-1.3-.7-1.7-.4-.4-.7-.8-1-1.3-.1-.1-.2-.2-.3-.3,0-.1-.3,0-.5.3.4.5.7,1.1,1,1.6.3.6.8,1,1.5,1.4ZM476.7,132.8c-.8-.2-1.4-.1-1.9.2s-1,.8-1.5,1.3c.7,0,1.3-.1,1.8-.4.5-.3,1-.7,1.6-1.1.9-.2,1.5-.4,1.7-.5.2-.1.6-.5,1.1-1-.5.2-1,.3-1.6.4-.6,0-1,.5-1.1,1.2ZM484.3,129.1c0,0,0-.1,0-.2-.5.2-1,.5-1.4.7-.4.2-.8.4-1.2.6h0c0,.2,0,.3.3.3.3-.1.7-.3,1.2-.4.5-.2,1-.4,1.5-.6l-.3-.3ZM490.6,126c-.7,0-1.3.1-1.8.4-.5.3-.9.6-1.2,1,.6-.1,1.1-.2,1.6-.4.5-.2.9-.5,1.3-1,.7,0,1.3,0,1.7-.3.5-.2.9-.6,1.3-1.1-.5.1-1,.2-1.6.4-.5.1-1,.5-1.3,1.1ZM505.5,115.6c-.9.7-1.7,1.5-2.4,2.2-.7.7-1.6,1.4-2.5,2.1-.7.8-1.6,1.5-2.5,2-.9.5-1.9,1.1-2.8,1.7,1-.3,2-.6,3-.9,1-.3,1.9-.8,2.7-1.5.3-.2.6-.5.9-.6.3-.2.5-.3.6-.5,2.1-.8,3.2-2.3,3-4.5Z"/>
  <path class="st0" d="M543,102.9c-.7-.2-1.4-.3-2.2-.3-2.9-.3-5.7-.4-8.5-.3-2.8,0-5.7.2-8.6.4-3.6.3-7.2.7-10.7,1.1-3.6.4-7.2.8-10.9,1-.5.1-1.1.2-1.7.2-.6,0-1.2,0-1.7,0h-1.1c-1.1-.4-1.6-1-1.6-1.9.2-.9.7-1.3,1.5-1.3,1.7-.3,3.4-.7,5.1-1.1,1.7-.4,3.5-.8,5.3-1,4.4-.7,8.9-1.2,13.4-1.5,4.5-.3,9-.4,13.5-.2,1.1,0,2.2.1,3.4.3,1.1.2,2.3.3,3.3.5,2,.4,3.8,1.1,5.2,2.1,1.4,1,2.3,2.6,2.7,4.9.1.5.4,1,.8,1.6.4.5.8,1,1.1,1.5-.3.6-.5,1.1-.5,1.6,0,.5-.3,1-.6,1.6-.2-.3-.5-.5-.7-.6s-.3-.3-.5-.6c-.5-.7-1-1.2-1.4-1.6-.5-.3-1.1-.5-1.9-.5-2.7-.2-5.5-.3-8.2-.3-2.7,0-5.4.2-8.2.6-.3.6-.6,1.1-.9,1.6-.3.5-.6,1-.9,1.5-3.7,7-6.9,14.2-9.7,21.6-2.8,7.3-5,14.8-6.8,22.5-.6,2.3-1,4.6-1.3,7-.2,2.4,0,4.8.5,7.2-.9.4-1.7.7-2.5.8-.7.1-1.6,0-2.6-.3-.6-1-1-2.1-1.2-3.3-.2-1.2-.3-2.3-.3-3.5,0-1.2,0-2.3.1-3.5,0-1.2,0-2.4,0-3.6-.4,2.2-.7,4.4-.9,6.5-.2,2.1,0,4.3.6,6.6-1.8.2-3,.1-3.6-.3-.6-.4-1.1-1.3-1.4-2.8-.3-1.4-.5-2.7-.5-4.1,0-1.4,0-2.8.2-4.3.6-4.5,1.5-9,2.5-13.3,1.1-4.3,2.4-8.8,4.1-13.3,1.2-3.4,2.6-6.8,4-10.1,1.5-3.3,3.1-6.6,4.8-9.8.2-.3.4-.9.7-1.8-.3,0-.7,0-1.1,0-.4,0-.6,0-.8.2-1,0-2.1.2-3.1.4-1.1.2-2.1.3-3,.4-1.9.1-3.4-.2-4.6-.8-1.2-.7-2.4-1.9-3.6-3.6.4-.3.8-.5,1.4-.6.5,0,1-.2,1.5-.3,2.8-.3,5.5-.5,8.3-.7,2.8-.2,5.5-.4,8.1-.7,2.3-.4,4.5-.6,6.6-.6,2.1,0,4.3-.1,6.5-.3,1.3,0,2.6-.1,3.9,0,1.2,0,2.4,0,3.6.1.7,0,1.4,0,2.2.2.7,0,1.5.1,2.3.2h3.4c-1.1-.4-2-.8-2.7-1Z"/>
  <path class="st0" d="M529.7,152.1c.4,0,.7,0,1,0,.3,0,.5,0,.8,0,3.1-1.2,6.2-2.3,9.3-3.3,3.1-1,6.3-2.1,9.4-3,5.1-1.8,10.1-3.5,15.2-4.9.4-.1.8-.2,1.4-.3.5-.1,1-.2,1.3-.1.4,0,.7,0,1,.1.3,0,.5.2.7.3.2.1.5.4.7.6.2.3.6.6,1,1-.3.6-.5,1-.5,1-.1.3-.3.6-.4.8-.1.2-.2.4-.4.8h1.8c.9,0,1.6.1,2,.6.4.4.8,1.1,1.1,2,.1.3.2.7.2,1.2,0,.4,0,.9.2,1.3-.5,0-1,0-1.4,0-.5,0-.8.4-1.2.9-1.1,1.2-2.2,1.2-3.3,0,0,0-.1,0-.2-.1h0c-3.3.4-6.5,1.1-9.5,2.2-3.1,1-6.2,2.1-9.3,3-2.7,1.1-5.3,2.1-8,3-2.7.9-5.4,1.6-8.1,2-1.1.2-2.2.4-3.2.6-1.1.2-2.1,0-3.2-.3-1-.4-1.9-.9-2.6-1.5-.7-.7-1.4-1.5-1.8-2.7-.1-.2-.3-.4-.4-.5-.2-.1-.3-.4-.4-.7-.2-.2-.5-.4-.8-.7-.3-.2-.6-.4-.9-.6-1.3-1.8-1.4-3.8-.5-5.9.4-.9.8-1.7,1.3-2.4.5-.7,1-1.3,1.6-1.9,2.9-3,6-5.5,9.1-7.7.3-.3.7-.6,1-.8.4-.2.7-.5,1-.8,0-.4,0-.7-.3-.7-.2,0-.4,0-.5-.2-1.1-.4-1.9-1.1-2.6-2.1-.6-1-1.2-2-1.6-3.1-.1-.4-.4-.9-.7-1.5-.4-.6-.7-1.3-1-2-.3-.7-.6-1.3-.8-2-.2-.6-.3-1.2-.1-1.5.3-1,.6-1.9,1.1-2.8.4-.8.9-1.7,1.4-2.7,2-3.3,4.4-6.2,7.1-8.7,2.7-2.6,5.6-4.8,8.7-6.7,3.1-1.9,6.4-3.4,9.8-4.6,3.4-1.2,6.8-2,10.2-2.5.6-.1,1.2,0,1.7.3.6.3,1.1.6,1.7,1,.6.4,1.2.8,1.8,1.3.6.4,1.1.8,1.6,1,.5-.2.8-.5,1-.8.2-.4.6-.7.9-1,.7-.7,1.4-1.3,2-1.9.6-.6,1.3-1.2,2-1.7,1.1-.7,2-1,2.7-.9.7.2,1.6.9,2.6,2.1-.1.5-.3.9-.4,1.2-.1.3-.3.7-.4,1.2-.3,0-.5,0-.7-.2-.2-.1-.4-.2-.7-.3-.3.3-.7.6-1,.8-.4.2-.6.5-.8.8-.1.1-.2.2-.3.3-.1,0-.2.2-.4.2.2.7.4,1.2.8,1.6.3.4.7.8,1.1,1.4.9-.7,1.7-1.4,2.4-2.1.7-.7,1.6-1.2,2.7-1.5,0,.4-.1.7-.3.9-.2.2-.3.3-.5.5-.9.9-1.7,1.8-2.6,2.7-.9.9-1.8,1.8-2.7,2.8-1,1.1-1.9,2.2-2.8,3.3-.9,1.2-1.8,2.4-2.7,3.6-.7.9-1.3,1.8-1.9,2.9-.6,1-1,2.3-1.1,3.8-.3-.3-.5-.5-.5-.8,0-.3,0-.6,0-.9,0-.3.1-.6.2-1,0-.3,0-.6,0-.8-.3-.4-.6-.6-.8-.7-.3,0-.5,0-.7.1-.2.2-.4.3-.6.6-.2.2-.4.4-.7.4-.6-.5-1.1-.9-1.4-1.2-.3-.3-.5-.7-.5-1.2,0-.4,0-1,0-1.7,0-.7.1-1.6.2-2.8-1,0-2,.3-2.9.6-.9.3-1.9.7-2.9,1.1-3.7,1.9-7.2,4-10.4,6.5-3.2,2.5-6.3,5.4-9.3,8.8-.7.7-1.3,1.5-1.9,2.3-.6.8-1.1,1.8-1.4,2.8l.6.4c2,0,3.9-.2,5.8-.5,1.9-.3,3.7-.8,5.6-1.7,2.4-1.1,4.9-2.1,7.5-2.8.3-.2.7-.4,1-.3.5,0,.9,0,1.3.2.3.1.6.5.8,1,.3.8.7,1.5,1.1,2.1.5.5,1,.8,1.6.9.2,0,.4.3.5,1-.1.1-.3.3-.4.4-.1.2-.2.3-.3.4-.4.3-.8.6-1.2.8-.4.2-.8.5-1.2.7-.2.1-.3.2-.4.4-.1.1-.2.2-.3.2-.7.1-1.4.3-1.9.7-.6.3-1.2.7-2,1.2-3.1,1.4-6.2,2.9-9.2,4.6-3,1.7-5.9,3.7-8.7,6-1.2.9-2.3,1.8-3.4,2.8-1.1,1-2.2,1.9-3.2,2.9-.2.1-.3.3-.4.5-.1.2-.3.4-.6.7ZM545,136c-.6,0-1.1.1-1.5.5-.4.3-.7.6-1,.9.4,0,.8,0,1.2-.2.4-.2.8-.5,1.3-1.1ZM558.7,104c-1,0-2.2.5-3.8,1.3-1.6.7-3.2,1.7-4.8,2.8-1.6,1.1-3.1,2.3-4.5,3.5-1.4,1.2-2.4,2.3-2.9,3.3,2.8-2.3,5.5-4.4,8-6.1,2.6-1.7,5.3-3.3,8-4.7ZM547.2,134.9c.3-.2.7-.4,1-.4.3,0,.6-.1,1-.3-.8-.5-1.5-.3-1.9.7ZM556.2,147.2c.3,0,.5,0,.7,0,.1,0,.3,0,.5,0,1.4-.2,2.8-.4,4.1-.7,1.3-.3,2.6-.5,4.1-.8.5-.1,1-.4,1.3-.8.4-.4.7-.9,1.1-1.4-.9,0-2.5.2-4.7.8-2.2.6-4.6,1.6-7,2.8ZM574.6,107.4c.5-.4,1-.9,1.4-1.4.4-.5.8-1,1.1-1.5-.5.2-.9.4-1.2.6-.3.2-.5.3-.6.5-.1.2-.3.4-.4.7s-.2.7-.4,1.2Z"/>
</svg>