<?xml version="1.0" encoding="UTF-8"?>
<svg id="Capa_1" xmlns="http://www.w3.org/2000/svg" width="27.6" height="30.7" version="1.1" xmlns:xlink="http://www.w3.org/1999/xlink" viewBox="0 0 27.6 30.7">
  <!-- Generator: Adobe Illustrator 29.0.0, SVG Export Plug-In . SVG Version: 2.1.0 Build 186)  -->
  <defs>
    <style>
      .st0 {
        fill: url(#Degradado_sin_nombre_264);
      }

      .st1 {
        fill: url(#Degradado_sin_nombre_262);
      }

      .st2 {
        fill: url(#Degradado_sin_nombre_26);
      }

      .st3 {
        fill: #fff;
      }

      .st4 {
        fill: url(#Degradado_sin_nombre_263);
      }

      .st5 {
        filter: url(#drop-shadow-1);
      }

      .st6 {
        fill: url(#Degradado_sin_nombre_268);
      }

      .st7 {
        fill: url(#Degradado_sin_nombre_265);
        stroke: url(#Degradado_sin_nombre_266);
        stroke-linejoin: round;
        stroke-width: .5px;
      }

      .st8 {
        fill: url(#Degradado_sin_nombre_261);
      }

      .st9 {
        fill: url(#Degradado_sin_nombre_267);
      }

      .st10 {
        fill: #e52621;
      }
    </style>
    <filter id="drop-shadow-1" x="-1" y=".3" width="28.2" height="40.7" filterUnits="userSpaceOnUse">
      <feOffset dx="-1" dy="1"/>
      <feGaussianBlur result="blur" stdDeviation="0"/>
      <feFlood flood-color="#000" flood-opacity=".8"/>
      <feComposite in2="blur" operator="in"/>
      <feComposite in="SourceGraphic"/>
    </filter>
    <linearGradient id="Degradado_sin_nombre_26" data-name="Degradado sin nombre 26" x1="0" y1="40" x2="0" y2="40" gradientUnits="userSpaceOnUse">
      <stop offset="0" stop-color="#c79307"/>
      <stop offset=".5" stop-color="#ffda06"/>
      <stop offset="1" stop-color="#ffda06"/>
    </linearGradient>
    <linearGradient id="Degradado_sin_nombre_261" data-name="Degradado sin nombre 26" x1="14.4" y1="23.7" x2="14.4" y2="9.4" xlink:href="#Degradado_sin_nombre_26"/>
    <linearGradient id="Degradado_sin_nombre_262" data-name="Degradado sin nombre 26" x1="-8134.6" y1="1277.1" x2="-8134.6" y2="1277.1" gradientTransform="translate(401859.8 63114.1) scale(49.4 -49.4)" xlink:href="#Degradado_sin_nombre_26"/>
    <linearGradient id="Degradado_sin_nombre_263" data-name="Degradado sin nombre 26" x1="14.5" y1="29.4" x2="14.5" y2="16.9" xlink:href="#Degradado_sin_nombre_26"/>
    <linearGradient id="Degradado_sin_nombre_264" data-name="Degradado sin nombre 26" x1="-8209.9" y1="1274" x2="-8209.9" y2="1274" gradientTransform="translate(869438.7 134943.2) scale(105.9 -105.9)" xlink:href="#Degradado_sin_nombre_26"/>
    <linearGradient id="Degradado_sin_nombre_265" data-name="Degradado sin nombre 26" x1="9.3" y1="37.6" x2="19.5" y2="37.6" gradientTransform="translate(0 42) scale(1 -1)" xlink:href="#Degradado_sin_nombre_26"/>
    <linearGradient id="Degradado_sin_nombre_266" data-name="Degradado sin nombre 26" x1="14.4" y1="8.6" x2="14.4" y2=".3" xlink:href="#Degradado_sin_nombre_26"/>
    <linearGradient id="Degradado_sin_nombre_267" data-name="Degradado sin nombre 26" x1="23.6" y1="15.8" x2="23.6" y2="2.3" xlink:href="#Degradado_sin_nombre_26"/>
    <linearGradient id="Degradado_sin_nombre_268" data-name="Degradado sin nombre 26" x1="5.1" y1="15.9" x2="5.1" y2="2.3" xlink:href="#Degradado_sin_nombre_26"/>
  </defs>
  <g class="st5">
    <path class="st2" d="M0,40"/>
    <path class="st2" d="M0,40"/>
    <path class="st2" d="M0,40"/>
    <g>
      <path class="st10" d="M16.8,23s0,.1-.1.2c-.2.2-.7,0-1-.3-1.3-.9-3.4.9-3.5,0-.6-2.8-1.4-6.7-2-9.6,1.3-4.7,7.2-4.5,8.6,0h0c-1.1,5.4-1.9,9.3-2,9.7Z"/>
      <path class="st8" d="M14.3,9.9c1.8,0,3.7,1.2,4.4,3.5h0c-1.1,5.4-1.9,9.3-2,9.7,0,0,0,.1-.1.2,0,0-.1,0-.2,0-.2,0-.6-.2-.8-.4-.3-.2-.6-.3-.9-.3-.9,0-1.8.5-2.3.5s-.3,0-.3-.2c-.6-2.8-1.4-6.7-2-9.6.6-2.3,2.4-3.5,4.2-3.5M14.3,9.4h0c-2.2,0-4,1.5-4.7,3.9,0,0,0,.2,0,.2.6,2.9,1.4,6.8,2,9.6,0,.4.4.6.8.6s.6-.1,1-.2c.4-.1.9-.3,1.3-.3.3,0,.5,0,.6.2.4.3.8.5,1.1.5s.3,0,.5-.1c.2-.1.3-.3.3-.5.1-.4.9-4.2,2-9.7,0,0,0,0,0,0,0,0,0-.1,0-.2-.7-2.3-2.7-3.8-4.9-3.8h0Z"/>
    </g>
    <g>
      <path class="st10" d="M12.1,22.9h0Z"/>
      <path class="st2" d="M0,40"/>
    </g>
    <g>
      <path class="st1" d="M12.1,22.9h0Z"/>
      <path class="st2" d="M0,40"/>
    </g>
    <g>
      <path class="st10" d="M23.9,28.4c0,.6-3.8.3-4.6.5-.3-.6-.6-1.3-.9-1.9h0s0,0,0,0c-2.3,1.5-5.4,1.5-7.7,0h0s0,0,0,0c0,0,0,0,0,0h0c-.3.6-.7,1.3-1,1.8h0c-1.3,0-2.8,0-4.1,0-.2,0-.4-.2-.4-.4.8-2.6,2.7-8,3.7-10.6l1.2,5.3c.2,2.2,1.7,3.5,3.8,2.2,1.3-.6,2.4.8,3.6.4,2,0,2.2-6.7,2.8-8.3,1.2,3.2,2.9,7.8,3.9,11h0Z"/>
      <path class="st4" d="M20.1,17.4c1.2,3.2,2.9,7.8,3.9,11h0c0,.6-3.8.3-4.6.5-.3-.6-.6-1.3-.9-1.9h0s0,0,0,0c-1.2.7-2.5,1.1-3.9,1.1s-2.7-.4-3.8-1.1h0s0,0,0,0c0,0,0,0,0,0,0,0,0,0,0,0-.3.6-.7,1.3-1,1.8h0c-1.3,0-2.8,0-4.1,0-.2,0-.4-.2-.4-.4.8-2.6,2.7-8,3.7-10.6l1.2,5.3c.2,1.6,1,2.7,2.2,2.7s1-.2,1.5-.5c.2-.1.4-.1.7-.1.9,0,1.7.6,2.5.6s.3,0,.5,0c2,0,2.2-6.7,2.8-8.3M20.1,16.9c-.2,0-.4.1-.5.3-.2.5-.3,1.3-.5,2.4-.3,1.8-.8,5.5-1.9,5.5,0,0,0,0-.1,0-.1,0-.2,0-.3,0-.3,0-.7-.1-1.1-.3-.4-.2-.9-.3-1.4-.3s-.6,0-.9.2c0,0,0,0,0,0-.5.3-.9.4-1.3.4-.9,0-1.6-.9-1.7-2.3,0,0,0,0,0,0l-1.2-5.3c0-.2-.2-.4-.5-.4,0,0,0,0,0,0-.2,0-.4.1-.5.3-1,2.7-2.9,8.1-3.7,10.6,0,0,0,0,0,.1,0,.5.4.9.9.9,1.7,0,3,0,4.1,0s.4-.2.5-.4c.2-.3.4-.6.6-1,0-.1.1-.2.2-.3,1.2.7,2.5,1,3.8,1s2.6-.3,3.7-.9c.2.5.5,1,.7,1.4,0,.2.3.3.5.3s0,0,.1,0c.2,0,1,0,1.7,0,1.9,0,2.7,0,3.1-.5,0,0,0,0,.1-.2,0,0,0,0,0,0,0-.1.1-.3,0-.4-.9-3-2.5-7.3-3.9-11,0-.2-.3-.3-.5-.3h0Z"/>
    </g>
    <g>
      <polygon class="st0" points="6.8 22.2 6.8 22.2 6.8 22.2 6.8 22.2"/>
      <path class="st2" d="M0,40"/>
    </g>
    <path class="st7" d="M14.4.4l1.2,3.5c0,.1.1.2.3.2h3.7l-3,2.2c-.1,0-.1.2-.1.3h0l.5,1.7c-.7-.5-1.6-.7-2.5-.7s-1.9.3-2.7.9l.6-1.8c0-.1,0-.2-.1-.3l-3-2.2h3.7c.1,0,.2,0,.3-.2l1.2-3.5"/>
    <g>
      <path class="st3" d="M26.7,5.3c0,4-2,7.7-5.3,10l-.8-2.3c3.6-2.2,5.9-6.1,5.8-10.3.2.8.3,1.7.3,2.6Z"/>
      <path class="st9" d="M26.4,2.8c.2.8.3,1.7.3,2.6,0,4-2,7.7-5.3,10l-.8-2.3c3.6-2.2,5.9-6.1,5.8-10.3M26.4,2.3s0,0,0,0c-.3,0-.4.2-.4.5,0,4-2.1,7.8-5.6,9.9-.2.1-.3.4-.2.6l.8,2.3c0,.1.2.3.3.3,0,0,.1,0,.2,0,0,0,.2,0,.3,0,3.5-2.4,5.5-6.3,5.5-10.4s0-1.8-.3-2.7c0-.2-.3-.4-.5-.4h0Z"/>
    </g>
    <g>
      <path class="st3" d="M8.2,13.1l-.8,2.3C3.3,12.6,1.2,7.5,2.3,2.8c0,4.2,2.2,8.2,5.9,10.4Z"/>
      <path class="st6" d="M2.3,2.8c0,4.2,2.2,8.2,5.9,10.4l-.8,2.3C3.3,12.6,1.2,7.5,2.3,2.8M2.3,2.3c-.2,0-.4.2-.5.4-1.1,5,1,10.3,5.3,13.2,0,0,.2,0,.3,0s.1,0,.2,0c.1,0,.3-.2.3-.3l.8-2.3c0-.2,0-.5-.2-.6C4.9,10.6,2.8,6.8,2.8,2.8c0-.3-.2-.5-.4-.5,0,0,0,0,0,0h0Z"/>
    </g>
  </g>
</svg>