<?xml version="1.0" encoding="UTF-8"?>
<svg id="Capa_1" xmlns="http://www.w3.org/2000/svg" width="202" height="40" version="1.1" xmlns:xlink="http://www.w3.org/1999/xlink" viewBox="0 0 202 40">
  <!-- Generator: Adobe Illustrator 29.0.0, SVG Export Plug-In . SVG Version: 2.1.0 Build 186)  -->
  <defs>
    <style>
      .st0 {
        fill: url(#Degradado_sin_nombre_264);
      }

      .st1 {
        clip-path: url(#clippath-6);
      }

      .st2 {
        clip-path: url(#clippath-7);
      }

      .st3 {
        fill: url(#Degradado_sin_nombre_242);
      }

      .st4 {
        fill: url(#Degradado_sin_nombre_262);
      }

      .st5 {
        clip-path: url(#clippath-4);
      }

      .st6 {
        fill: url(#Degradado_sin_nombre_24);
      }

      .st7 {
        fill: url(#Degradado_sin_nombre_128);
      }

      .st8 {
        fill: url(#Degradado_sin_nombre_126);
      }

      .st9 {
        fill: url(#Degradado_sin_nombre_26);
      }

      .st10 {
        fill: #fff;
      }

      .st11 {
        fill: url(#Degradado_sin_nombre_121);
      }

      .st12 {
        fill: url(#Degradado_sin_nombre_1210);
      }

      .st13 {
        fill: none;
      }

      .st14 {
        fill: url(#Degradado_sin_nombre_129);
      }

      .st15 {
        fill: url(#Degradado_sin_nombre_263);
      }

      .st16 {
        clip-path: url(#clippath-1);
      }

      .st17 {
        filter: url(#drop-shadow-1);
      }

      .st18 {
        isolation: isolate;
      }

      .st19 {
        clip-path: url(#clippath-5);
      }

      .st20 {
        fill: url(#Degradado_sin_nombre_125);
      }

      .st21 {
        clip-path: url(#clippath-3);
      }

      .st22 {
        fill: #333;
      }

      .st23 {
        fill: url(#Degradado_sin_nombre_268);
      }

      .st24 {
        mix-blend-mode: multiply;
      }

      .st25 {
        fill: url(#Degradado_sin_nombre_122);
      }

      .st26 {
        fill: url(#Degradado_sin_nombre_241);
      }

      .st27 {
        fill: url(#Degradado_sin_nombre_1211);
      }

      .st28 {
        fill: url(#Degradado_sin_nombre_22);
      }

      .st29 {
        fill: url(#Degradado_sin_nombre_265);
        stroke: url(#Degradado_sin_nombre_266);
        stroke-linejoin: round;
        stroke-width: .5px;
      }

      .st30 {
        clip-path: url(#clippath-2);
      }

      .st31 {
        fill: url(#Degradado_sin_nombre_123);
      }

      .st32 {
        fill: url(#Degradado_sin_nombre_261);
      }

      .st33 {
        fill: url(#Degradado_sin_nombre_127);
      }

      .st34 {
        fill: url(#Degradado_sin_nombre_267);
      }

      .st35 {
        fill: url(#Degradado_sin_nombre_124);
      }

      .st36 {
        fill: #e52621;
      }

      .st37 {
        clip-path: url(#clippath);
      }

      .st38 {
        fill: url(#Degradado_sin_nombre_12);
      }
    </style>
    <clipPath id="clippath">
      <rect class="st13" x="176.5" y="33.3" width="25" height="6.7"/>
    </clipPath>
    <clipPath id="clippath-1">
      <polygon class="st13" points="167.1 36.3 146.2 36.5 125.3 36.5 83.5 36.6 41.8 36.5 20.9 36.5 0 36.3 20.9 36.2 41.8 36.2 83.5 36.1 125.3 36.2 146.2 36.2 167.1 36.3"/>
    </clipPath>
    <linearGradient id="Degradado_sin_nombre_12" data-name="Degradado sin nombre 12" x1="-108.7" y1="-128.5" x2="-108.5" y2="-128.5" gradientTransform="translate(68523.7 81025.3) scale(630.1)" gradientUnits="userSpaceOnUse">
      <stop offset="0" stop-color="#c38d00"/>
      <stop offset=".5" stop-color="gold"/>
      <stop offset="1" stop-color="gold"/>
    </linearGradient>
    <clipPath id="clippath-2">
      <path class="st13" d="M152.9,3.2h-8c-2.7,0-5.4.1-8,.1,2.7,0,5.4,0,8,.1h24.1c5.4.1,10.7.1,16.1.1h8c2.7,0,5.4-.1,8-.1-2.7,0-5.4,0-8-.1h-8c-5.4,0-10.7,0-16.1-.1h-16.1Z"/>
    </clipPath>
    <linearGradient id="Degradado_sin_nombre_121" data-name="Degradado sin nombre 12" x1="-111.5" y1="-127.3" x2="-111.3" y2="-127.3" gradientTransform="translate(27200.4 30904.9) scale(242.7)" xlink:href="#Degradado_sin_nombre_12"/>
    <clipPath id="clippath-3">
      <polygon class="st13" points="24.4 3.2 12.2 3.3 0 3.4 12.2 3.5 24.4 3.6 48.8 3.6 73.2 3.6 85.3 3.5 97.6 3.4 85.3 3.3 73.2 3.2 48.8 3.2 24.4 3.2"/>
    </clipPath>
    <linearGradient id="Degradado_sin_nombre_122" data-name="Degradado sin nombre 12" x1="-109.3" y1="-127.9" x2="-109" y2="-127.9" gradientTransform="translate(40216.9 47067.2) scale(368)" xlink:href="#Degradado_sin_nombre_12"/>
    <linearGradient id="Degradado_sin_nombre_123" data-name="Degradado sin nombre 12" x1="-115.3" y1="-123.7" x2="-115" y2="-123.7" gradientTransform="translate(7514.2 8081.6) scale(65.2)" xlink:href="#Degradado_sin_nombre_12"/>
    <linearGradient id="Degradado_sin_nombre_124" data-name="Degradado sin nombre 12" x1="-117.1" y1="-122.9" x2="-116.8" y2="-122.9" gradientTransform="translate(6812.9 7144.4) scale(58)" xlink:href="#Degradado_sin_nombre_12"/>
    <linearGradient id="Degradado_sin_nombre_125" data-name="Degradado sin nombre 12" x1="-118" y1="-122.9" x2="-117.7" y2="-122.9" gradientTransform="translate(6882.2 7144.4) scale(58)" xlink:href="#Degradado_sin_nombre_12"/>
    <linearGradient id="Degradado_sin_nombre_126" data-name="Degradado sin nombre 12" x1="-119.2" y1="-122.7" x2="-118.9" y2="-122.7" gradientTransform="translate(6778.8 6939.4) scale(56.4)" xlink:href="#Degradado_sin_nombre_12"/>
    <linearGradient id="Degradado_sin_nombre_127" data-name="Degradado sin nombre 12" x1="-121.6" y1="-123.5" x2="-121.3" y2="-123.5" gradientTransform="translate(8025.4 8022.5) scale(64.8)" xlink:href="#Degradado_sin_nombre_12"/>
    <linearGradient id="Degradado_sin_nombre_128" data-name="Degradado sin nombre 12" x1="-124.1" y1="-122.9" x2="-123.9" y2="-122.9" gradientTransform="translate(7364.6 7144.4) scale(58)" xlink:href="#Degradado_sin_nombre_12"/>
    <linearGradient id="Degradado_sin_nombre_129" data-name="Degradado sin nombre 12" x1="-123.2" y1="-123.6" x2="-122.9" y2="-123.6" gradientTransform="translate(8189.9 8052.2) scale(65)" xlink:href="#Degradado_sin_nombre_12"/>
    <linearGradient id="Degradado_sin_nombre_1210" data-name="Degradado sin nombre 12" x1="-117.3" y1="-124.4" x2="-117.1" y2="-124.4" gradientTransform="translate(8908.9 9369.8) scale(75.2)" xlink:href="#Degradado_sin_nombre_12"/>
    <linearGradient id="Degradado_sin_nombre_1211" data-name="Degradado sin nombre 12" x1="-120.5" y1="-123.6" x2="-120.2" y2="-123.6" gradientTransform="translate(8125.2 8226.9) scale(66.4)" xlink:href="#Degradado_sin_nombre_12"/>
    <clipPath id="clippath-4">
      <path class="st13" d="M178.2,32.9c-.2,0-.4,0-.5.1-.2.1-.4.4-.6.7,0,.1,0,.4-.1.6,0,.5,0,.9,0,1.8v1c0,.5.1,1.1.2,1.4,0,.1.1.3.2.4.2.3.4.4.8.4.2,0,.4,0,.7,0h1.6c.2,0,.4,0,.7,0,.4,0,.6-.1.8-.4,0-.1.1-.2.2-.4,0-.3.1-.8.2-1.3v-1.5h-2.7v1.2h1c0,.7,0,.9-.2,1.1-.1.2-.4.2-.8.2s-.7,0-.9-.3c0-.1,0-.3-.1-.6v-2.6c0-.2,0-.3,0-.4,0-.1.3-.3.4-.3h.4c.4,0,.7,0,.8.1,0,0,.1.3.1.7h1.7c0-.8,0-1.1-.1-1.4,0-.1-.1-.3-.2-.4-.2-.1-.7-.3-1.2-.3h-1c-.7,0-1,0-1.4,0h0Z"/>
    </clipPath>
    <linearGradient id="Degradado_sin_nombre_24" data-name="Degradado sin nombre 24" x1="-111.9" y1="-142.7" x2="-111.6" y2="-142.7" gradientTransform="translate(10343.3 -7920.3) rotate(-90) scale(71.2)" gradientUnits="userSpaceOnUse">
      <stop offset="0" stop-color="#c38d00"/>
      <stop offset="0" stop-color="#c38d00"/>
      <stop offset=".5" stop-color="gold"/>
      <stop offset=".8" stop-color="#c38d00"/>
      <stop offset="1" stop-color="#c38d00"/>
    </linearGradient>
    <clipPath id="clippath-5">
      <path class="st13" d="M185.5,38c0,0-.2-.3-.2-.4v-3c0-.1.1-.4.2-.4,0,0,.3-.1.5-.1h.7c.2,0,.4,0,.5.1,0,0,.2.3.2.4s0,.6,0,.9v1.3c0,.3,0,.7,0,.9,0,.1-.1.4-.2.4,0,0-.3.1-.5.1h-.7c-.1,0-.4,0-.5-.1M185.2,32.8c-.3,0-.5,0-.8.1-.2,0-.4.2-.5.4-.2.2-.4.9-.4,1.5v2.6c0,.3,0,.7.1.9,0,.3.1.5.3.6.2.2.7.4,1.3.5h2.2c.3,0,.5,0,.8-.1.2,0,.4-.2.5-.4.2-.3.4-.9.4-1.5v-2.6c0-.4,0-.7-.1-.9,0-.3-.1-.5-.3-.6-.2-.3-.7-.4-1.3-.5h-2.2Z"/>
    </clipPath>
    <linearGradient id="Degradado_sin_nombre_22" data-name="Degradado sin nombre 22" x1="-111.9" y1="-143" x2="-111.6" y2="-143" gradientTransform="translate(10368.5 -7920.3) rotate(-90) scale(71.2)" gradientUnits="userSpaceOnUse">
      <stop offset="0" stop-color="#c38d00"/>
      <stop offset="0" stop-color="#c38d00"/>
      <stop offset=".5" stop-color="gold"/>
      <stop offset="1" stop-color="#c38d00"/>
    </linearGradient>
    <clipPath id="clippath-6">
      <polygon class="st13" points="190.2 32.8 190.2 34.1 190.8 34.1 190.8 38.2 190.2 38.2 190.2 39.3 195.5 39.3 195.5 37 194.3 37 194.1 38.2 193.1 38.2 192.6 38.2 192.6 34.1 193.1 34.1 193.1 32.8 190.2 32.8"/>
    </clipPath>
    <linearGradient id="Degradado_sin_nombre_241" data-name="Degradado sin nombre 24" x1="-111.9" y1="-143.3" x2="-111.6" y2="-143.3" gradientTransform="translate(10393 -7920.3) rotate(-90) scale(71.2)" xlink:href="#Degradado_sin_nombre_24"/>
    <clipPath id="clippath-7">
      <path class="st13" d="M198.5,38.2v-4.1h.4c.5,0,.7,0,.9.1.1,0,.2.1.2.2,0,.1.2.6.2.9v2.3c0,.2,0,.3-.1.4,0,.1-.4.3-.6.3h-1.1v-.2ZM196.2,32.8v1.2h.6v4.1h-.6v1.2h2.9c.7,0,1.2,0,1.6,0s.7-.2.9-.4c.2-.2.3-.5.4-.9,0-.5,0-.9,0-1.7v-1.2c0-.3,0-.6-.1-.9,0-.3-.1-.5-.3-.6-.2-.2-.7-.4-1.3-.5h-4.1Z"/>
    </clipPath>
    <linearGradient id="Degradado_sin_nombre_242" data-name="Degradado sin nombre 24" x1="-111.9" y1="-143.5" x2="-111.6" y2="-143.5" gradientTransform="translate(10416.7 -7920.3) rotate(-90) scale(71.2)" xlink:href="#Degradado_sin_nombre_24"/>
    <filter id="drop-shadow-1" x="-1" y="0" width="130.5" height="41.1" filterUnits="userSpaceOnUse">
      <feOffset dx="-1" dy="1"/>
      <feGaussianBlur result="blur" stdDeviation="0"/>
      <feFlood flood-color="#000" flood-opacity=".8"/>
      <feComposite in2="blur" operator="in"/>
      <feComposite in="SourceGraphic"/>
    </filter>
    <linearGradient id="Degradado_sin_nombre_26" data-name="Degradado sin nombre 26" x1="0" y1="40" x2="0" y2="40" gradientUnits="userSpaceOnUse">
      <stop offset="0" stop-color="#c79307"/>
      <stop offset=".5" stop-color="#ffda06"/>
      <stop offset="1" stop-color="#ffda06"/>
    </linearGradient>
    <linearGradient id="Degradado_sin_nombre_261" data-name="Degradado sin nombre 26" x1="116.8" y1="23.4" x2="116.8" y2="9" xlink:href="#Degradado_sin_nombre_26"/>
    <linearGradient id="Degradado_sin_nombre_262" data-name="Degradado sin nombre 26" x1="-8132.5" y1="1277.2" x2="-8132.5" y2="1277.2" gradientTransform="translate(401859.8 63114.1) scale(49.4 -49.4)" xlink:href="#Degradado_sin_nombre_26"/>
    <linearGradient id="Degradado_sin_nombre_263" data-name="Degradado sin nombre 26" x1="116.9" y1="29" x2="116.9" y2="16.5" xlink:href="#Degradado_sin_nombre_26"/>
    <linearGradient id="Degradado_sin_nombre_264" data-name="Degradado sin nombre 26" x1="-8209" y1="1274" x2="-8209" y2="1274" gradientTransform="translate(869438.7 134943.2) scale(105.9 -105.9)" xlink:href="#Degradado_sin_nombre_26"/>
    <linearGradient id="Degradado_sin_nombre_265" data-name="Degradado sin nombre 26" x1="111.6" y1="38" x2="121.8" y2="38" gradientTransform="translate(0 42) scale(1 -1)" xlink:href="#Degradado_sin_nombre_26"/>
    <linearGradient id="Degradado_sin_nombre_266" data-name="Degradado sin nombre 26" x1="116.7" y1="8.2" x2="116.7" y2="0" xlink:href="#Degradado_sin_nombre_26"/>
    <linearGradient id="Degradado_sin_nombre_267" data-name="Degradado sin nombre 26" x1="126" y1="15.5" x2="126" y2="1.9" xlink:href="#Degradado_sin_nombre_26"/>
    <linearGradient id="Degradado_sin_nombre_268" data-name="Degradado sin nombre 26" x1="107.4" y1="15.5" x2="107.4" y2="1.9" xlink:href="#Degradado_sin_nombre_26"/>
  </defs>
  <g class="st18">
    <g id="Capa_11" data-name="Capa_1">
      <g class="st24">
        <g class="st37">
          <g>
            <path class="st22" d="M181.8,36.2v1.5c0,.5,0,1-.2,1.3,0,.1-.1.3-.2.4-.2.2-.4.3-.8.4-.2,0-.4,0-.7,0h-1.6c-.2,0-.4,0-.7,0-.4,0-.6-.1-.8-.4,0-.1-.2-.3-.2-.4,0-.3-.1-.9-.2-1.4v-1c0-.8,0-1.3,0-1.8,0-.2,0-.4.1-.6,0-.3.4-.6.6-.7.1,0,.3,0,.5-.1.4,0,.8,0,1.4,0h1c.5,0,1,.1,1.2.3,0,0,.1.2.2.4.1.4.1.7.1,1.4h-1.7c0-.3,0-.6-.1-.7,0,0-.4-.1-.8-.1h-.4c-.2,0-.4.1-.4.3,0,0,0,.2,0,.4v2.6c0,.4,0,.4.1.6.1.3.4.3.9.3s.7,0,.8-.2c.1-.2.2-.4.2-1.1h-1v-1.2h2.7,0Z"/>
            <path class="st22" d="M187,33.3c.6,0,1.1.2,1.3.5.1.1.2.3.3.6,0,.3.1.6.1.9v2.6c0,.7-.2,1.2-.4,1.5,0,.1-.3.2-.5.3-.2,0-.5.1-.8.1h-2.2c-.6,0-1.1-.2-1.3-.5,0-.1-.2-.4-.3-.6,0-.3-.1-.6-.1-.9v-2.6c0-.7.2-1.2.4-1.5.1-.1.3-.2.5-.4.2,0,.5-.1.8-.1h2.2M185.5,34.6c-.1,0-.4,0-.5.1,0,0-.2.3-.2.4v3c0,.1.1.4.2.4,0,0,.3.1.5.1h.7c.2,0,.4,0,.5-.1,0,0,.2-.3.2-.4s0-.6,0-.9v-1.3c0-.3,0-.7,0-.9,0-.1-.1-.4-.2-.4,0,0-.3-.1-.5-.1h-.7"/>
            <polygon class="st22" points="195 37.5 195 39.9 189.7 39.9 189.7 38.7 190.3 38.7 190.3 34.6 189.7 34.6 189.7 33.4 192.6 33.4 192.6 34.6 192 34.6 192 38.7 192.6 38.7 193.6 38.7 193.7 37.5 195 37.5"/>
            <path class="st22" d="M201.5,38.4c0,.5-.1.7-.4.9s-.4.4-.9.4-.9,0-1.6,0h-2.9v-1.2h.6v-4.1h-.6v-1.2h4.1c.6,0,1.1.2,1.3.5.1.1.2.3.3.6,0,.3.1.6.1.9v1.2c0,.8,0,1.2,0,1.7M198.5,38.7h.6c.3,0,.5-.1.6-.3,0,0,0-.2.1-.4v-2.3c0-.4,0-.8-.2-.9,0,0-.1-.1-.2-.2-.2-.1-.4-.1-.9-.1h-.5v4.1h.6Z"/>
          </g>
        </g>
      </g>
      <g class="st16">
        <rect class="st38" x="0" y="36.1" width="167.1" height=".4"/>
      </g>
      <g class="st30">
        <rect class="st11" x="136.8" y="3.2" width="64.4" height=".4"/>
      </g>
      <g class="st21">
        <rect class="st25" x="0" y="3.2" width="97.6" height=".4"/>
      </g>
      <path class="st10" d="M.1,11.1c0-.4,0-.8.3-1.1.4-.8,1.3-1.4,2.2-1.4h6.9c3.9,0,7,1.4,7,5.6s-.9,3-2.3,3.8c1.7.7,2.7,2.5,2.7,4.3,0,4.4-3.4,6-7.2,6H.9c-.4,0-.7-.4-.7-.7V11h0ZM9,16.5c1.3,0,2.2-.7,2.2-2s-.2-1.2-.6-1.5c-.4-.3-.9-.5-1.5-.5H4c.8,0,1.5.7,1.5,1.5v1.7c0,.4.4.8.9.8h2.7,0ZM9.2,24.5c1.4,0,2.3-.8,2.3-2.2s-.9-2.2-2.3-2.2H3.8c.8,0,1.5.7,1.5,1.5v2c0,.5.4.9.9.9h3Z"/>
      <path class="st31" d="M.1,11.1H0C0,10.7,0,10.3.3,10h.1-.1c.4-.9,1.4-1.4,2.3-1.4h6.9c3.9,0,7.2,1.4,7.2,5.7s-.9,3.1-2.3,3.9h0v-.3c1.8.7,2.8,2.5,2.8,4.4,0,4.5-3.5,6.1-7.4,6.1H.9c-.4,0-.8-.4-.9-.9V11h.3v16.5c0,.2.3.6.6.6h8.9c3.8,0,7.1-1.5,7.1-5.9s-.9-3.5-2.6-4.1h-.3c0,0,.2-.2.2-.2,1.4-.8,2.2-2,2.2-3.7,0-4.1-3-5.4-6.9-5.5H2.6c-.9,0-1.7.5-2.1,1.3h0c-.1.3-.2.7-.2,1h-.1,0ZM9,16.5h0c1.2-.1,2-.8,2-2s-.2-1.1-.6-1.4h0c0,0,0,0,0,0-.4-.3-.9-.4-1.4-.4H3.9v-.3c.9,0,1.7.7,1.7,1.6v1.7c0,.4.4.7.7.7h2.7v.3h-2.7c-.5,0-.9-.4-1-.9v-1.7c0-.8-.7-1.4-1.4-1.4v-.3h5.1c.7,0,1.2.1,1.6.5h0c.4.4.7.9.7,1.6,0,1.4-.9,2.2-2.2,2.2h0c0-.1,0,0,0,0ZM9.2,24.5h0c1.3-.1,2.2-.9,2.2-2.2s-.9-2.1-2.2-2.1H3.8v-.3c.9,0,1.7.7,1.7,1.6v2c0,.4.4.7.7.7h2.9v.3h-2.9c-.5,0-.9-.4-1-1v-2c0-.8-.7-1.4-1.4-1.4v-.3h5.4c1.4,0,2.4.9,2.4,2.4s-1,2.3-2.4,2.3h0c0-.1,0,0,0,0Z"/>
      <path class="st10" d="M20.4,11.2c0-1.4,1.1-2.5,2.5-2.5h11.5c.4,0,.7.3.7.7v2.8c0,.2,0,.4-.2.5-.1.1-.3.2-.5.2h-10.4c.9,0,1.5.7,1.5,1.5v1.2c0,.5.4.9.9.9h6.2c.4,0,.7.3.7.7v2.5c0,.4-.3.7-.7.7h-8.5c.8,0,1.5.7,1.5,1.4v1.3c0,.5.4.9.9.9h8.3c.5,0,.7.3.7.7v2.8c0,.2,0,.4-.2.5-.1.1-.4.2-.5.2h-13.5c-.4,0-.7-.4-.7-.7V11.1h0Z"/>
      <path class="st35" d="M20.4,11.2h-.1c0-1.4,1.2-2.6,2.6-2.6h11.5c.5,0,.9.4.9.9v2.8c0,.2,0,.4-.2.6h0c0,0,0,0,0,0-.1.1-.4.2-.7.2h-10.4v-.3c.9,0,1.7.7,1.7,1.7v1.2c0,.4.3.7.7.7h6.2c.5,0,.9.4.9.9v2.5c0,.5-.4.9-.9.9h-8.5v-.3c.9,0,1.7.7,1.7,1.6v1.3c0,.4.3.7.7.7h8.3c.5,0,.9.4.9.9v2.8c0,.2,0,.4-.2.6h0c0,0,0,0,0,0-.1.1-.4.2-.7.2h-13.5c-.4,0-.8-.4-.9-.9V11h.3v16.5c0,.2.3.6.6.6h13.5c.1,0,.4,0,.4-.1h0c0,0,.1-.2.1-.4v-2.8c0-.4-.1-.6-.6-.6h-8.3c-.6,0-.9-.4-1-1v-1.3c0-.7-.7-1.3-1.4-1.3v-.3h8.5c.4,0,.6-.2.6-.6v-2.5c0-.4-.2-.6-.6-.6h-6.2c-.6,0-.9-.4-1-1v-1.2c0-.8-.7-1.4-1.4-1.4v-.3h10.4c.2,0,.4,0,.4-.1h0c0,0,.1-.2.1-.4v-2.8c0-.4-.2-.6-.6-.6h-11.5c-1.3,0-2.3,1-2.3,2.3h-.1.1Z"/>
      <path class="st10" d="M38.8,11.2c0-1.4,1.1-2.5,2.5-2.5h11.5c.4,0,.7.3.7.7v2.8c0,.2,0,.4-.2.5-.1.1-.3.2-.5.2h-10.4c.9,0,1.5.7,1.5,1.5v1.2c0,.5.4.9.9.9h6.2c.4,0,.7.3.7.7v2.5c0,.4-.3.7-.7.7h-8.5c.8,0,1.5.7,1.5,1.4v1.3c0,.5.4.9.9.9h8.3c.5,0,.7.3.7.7v2.8c0,.2,0,.4-.2.5-.1.1-.4.2-.5.2h-13.5c-.4,0-.7-.4-.7-.7V11.1h0Z"/>
      <path class="st20" d="M38.8,11.2h-.1c0-1.4,1.2-2.6,2.6-2.6h11.5c.5,0,.9.4.9.9v2.8c0,.2,0,.4-.2.6h0c0,0,0,0,0,0-.1.1-.4.2-.7.2h-10.4v-.3c.9,0,1.7.7,1.7,1.7v1.2c0,.4.3.7.7.7h6.2c.5,0,.9.4.9.9v2.5c0,.5-.4.9-.9.9h-8.5v-.3c.9,0,1.7.7,1.7,1.6v1.3c0,.4.3.7.7.7h8.3c.5,0,.9.4.9.9v2.8c0,.2,0,.4-.2.6h0c0,0,0,0,0,0-.1.1-.4.2-.7.2h-13.5c-.4,0-.8-.4-.9-.9V11h.3v16.5c0,.2.3.6.6.6h13.5c.1,0,.4,0,.4-.1h0c0,0,.1-.2.1-.4v-2.8c0-.4-.1-.6-.6-.6h-8.3c-.6,0-.9-.4-1-1v-1.3c0-.7-.7-1.3-1.4-1.3v-.3h8.5c.4,0,.6-.2.6-.6v-2.5c0-.4-.2-.6-.6-.6h-6.2c-.6,0-.9-.4-1-1v-1.2c0-.8-.7-1.4-1.4-1.4v-.3h10.4c.2,0,.4,0,.4-.1h0c0,0,.1-.2.1-.4v-2.8c0-.4-.2-.6-.6-.6h-11.5c-1.3,0-2.3,1-2.3,2.3h-.1.1Z"/>
      <path class="st10" d="M57.2,11.1c0-.7.3-1.3.8-1.8.2-.2.5-.4.8-.5s.6-.1.9-.1h11.3c.4,0,.7.4.7.7v3c0,.2,0,.4-.2.5-.1.1-.3.2-.5.2h-10.1c.9,0,1.5.7,1.5,1.5v2.4h6.7c.5,0,.7.3.7.7v3c0,.2,0,.4-.2.5-.1.1-.3.2-.5.2h-8.3c.8,0,1.5.7,1.5,1.5v4.7c0,.2,0,.4-.2.5-.1.1-.3.2-.5.2h-3.8c-.4,0-.7-.3-.7-.7V11.1h.1Z"/>
      <path class="st8" d="M57.2,11.1h-.1c0-.7.3-1.4.8-1.9h0c.2-.2.5-.4.8-.5h0c.3-.1.7-.1.9-.1h11.3c.4,0,.9.4.9.9v3c0,.2,0,.4-.3.6h0c0,0,0,0,0,0-.1.1-.4.2-.6.2h-10.1v-.3c.9,0,1.7.7,1.7,1.7v2.2h6.7c.5,0,.9.4.9.9v3c0,.2,0,.4-.2.6h0c0,0,0,0,0,0-.1.1-.4.2-.7.2h-8.3v-.3c.9,0,1.7.7,1.7,1.6v4.7c0,.2,0,.4-.2.6h0c0,0,0,0,0,0-.1.2-.4.2-.6.2h-3.8c-.5,0-.9-.4-.9-.9V10.9h.3v16.5c0,.4.2.6.6.6h3.8c.2,0,.3,0,.4-.1h0c.1-.1.1-.2.1-.4v-4.7c0-.7-.7-1.4-1.4-1.4v-.3h8.3c.2,0,.4,0,.4-.1h0c0,0,.1-.2.1-.4v-3c0-.4-.1-.6-.6-.6h-6.9v-2.5c0-.8-.7-1.4-1.4-1.4v-.3h10.1c.1,0,.3,0,.4-.1h0c.1,0,.1-.2.1-.4v-3c0-.3-.3-.6-.6-.6h-11.3c-.3,0-.6,0-.9.1h0c0-.1,0,0,0,0-.3.1-.5.3-.7.5h0c0,0,0,0,0,0-.4.4-.7,1.1-.7,1.7h-.1,0Z"/>
      <path class="st10" d="M163.2,8.7c.4,0,.7.3.7.7v3.2c0,.4-.3.7-.7.7h-6.5c.8,0,1.6.7,1.6,1.4v12.9c0,.2,0,.4-.2.5s-.3.2-.5.2h-3.9c-.2,0-.4,0-.5-.2-.1-.1-.2-.3-.2-.5v-13.5c0-.5-.4-.9-.9-.9h-4.1c-.4,0-.7-.3-.7-.7v-1.4c0-1.3,1.2-2.4,2.5-2.4h13.5,0Z"/>
      <path class="st33" d="M163.2,8.7h0c.5-.1.9.2.9.7v3.2c0,.5-.4.9-.9.9h-6.5v-.3c.9,0,1.7.7,1.7,1.6v12.9c0,.2,0,.4-.3.6h0c0,0,0,0,0,0-.1.1-.4.2-.6.2h-3.9c-.2,0-.4,0-.6-.2h0c0,0,0,0,0,0-.1-.1-.3-.4-.3-.6v-13.5c0-.4-.3-.7-.7-.7h-4.1c-.4,0-.9-.4-.9-.9v-1.4c0-1.4,1.2-2.5,2.6-2.5h13.5v.3h-13.5c-1.2,0-2.3,1-2.3,2.3v1.4c0,.3.3.6.6.6h4.1c.6,0,.9.4,1,1v13.5c0,.1,0,.3.1.4h0c.1.1.2.1.4.1h3.9c.1,0,.3,0,.4-.1h0c.1,0,.1-.2.1-.4v-12.9c0-.7-.7-1.3-1.4-1.3v-.3h6.5c.4,0,.6-.2.6-.6v-3.2c0-.4-.2-.6-.6-.6h0c0-.1,0-.2,0-.2Z"/>
      <path class="st10" d="M166.6,11.2c0-1.4,1.1-2.5,2.5-2.5h11.5c.4,0,.7.3.7.7v2.8c0,.2,0,.4-.2.5-.1.1-.3.2-.5.2h-10.4c.9,0,1.5.7,1.5,1.5v1.2c0,.5.4.9.9.9h6.2c.4,0,.7.3.7.7v2.5c0,.4-.3.7-.7.7h-8.5c.8,0,1.5.7,1.5,1.4v1.3c0,.5.4.9.9.9h8.3c.5,0,.7.3.7.7v2.8c0,.2,0,.4-.2.5-.1.1-.4.2-.5.2h-13.5c-.4,0-.7-.4-.7-.7V11.1h0Z"/>
      <path class="st7" d="M166.6,11.2h-.1c0-1.4,1.2-2.6,2.6-2.6h11.5c.5,0,.9.4.9.9v2.8c0,.2,0,.4-.2.6h0c0,0,0,0,0,0-.1.1-.4.2-.7.2h-10.4v-.3c.9,0,1.7.7,1.7,1.7v1.2c0,.4.3.7.7.7h6.2c.5,0,.9.4.9.9v2.5c0,.5-.4.9-.9.9h-8.5v-.3c.9,0,1.7.7,1.7,1.6v1.3c0,.4.3.7.7.7h8.3c.5,0,.9.4.9.9v2.8c0,.2,0,.4-.2.6h0c0,0,0,0,0,0-.1.1-.4.2-.7.2h-13.5c-.4,0-.8-.4-.9-.9V11h.3v16.5c0,.2.3.6.6.6h13.5c.1,0,.4,0,.4-.1h0c0,0,.1-.2.1-.4v-2.8c0-.4-.1-.6-.6-.6h-8.3c-.6,0-.9-.4-1-1v-1.3c0-.7-.7-1.3-1.4-1.3v-.3h8.5c.4,0,.6-.2.6-.6v-2.5c0-.4-.2-.6-.6-.6h-6.2c-.6,0-.9-.4-1-1v-1.2c0-.8-.7-1.4-1.4-1.4v-.3h10.4c.2,0,.4,0,.4-.1h0c0,0,.1-.2.1-.4v-2.8c0-.4-.2-.6-.6-.6h-11.5c-1.3,0-2.3,1-2.3,2.3h-.1.1Z"/>
      <path class="st10" d="M197.3,28.3c-.5,0-.9-.3-1.2-.7l-2.9-5.6c-.1-.3-.4-.4-.8-.4h-3.7c.5,0,.9.1,1.2.5s.4.7.4,1v4.6c0,.2,0,.4-.2.5-.1.1-.3.2-.5.2h-3.8c-.3,0-.7-.4-.7-.7V11.3c0-1.4,1.1-2.4,2.5-2.4h6c4.3,0,7.9,1.8,7.9,6.4s-1,4.1-3,5.2c-.1,0-.2.2-.2.4v.3l3.5,6.4c0,.1,0,.2,0,.3,0,.1,0,.3-.1.4-.1.1-.3.1-.4.1h-4,.1ZM195.2,13.4c-.5-.4-1.1-.6-1.8-.6h-4.9c.8,0,1.5.7,1.5,1.5v2.3c0,.2,0,.4.3.6.1.1.4.3.6.3h2.5c1.4,0,2.5-.7,2.5-2.2s-.2-1.4-.7-1.8"/>
      <path class="st14" d="M197.3,28.3h0c-.6.1-1-.1-1.2-.7h.1-.1l-2.9-5.6h.1-.1c-.1-.3-.4-.4-.7-.4h-3.7v-.3c.5,0,.9.2,1.2.5h0c.3.4.4.7.4,1.1v4.6c0,.2,0,.4-.2.6h0c0,0,0,0,0,0-.1.1-.4.2-.6.2h-3.8c-.4,0-.8-.4-.9-.8V11.1c0-1.4,1.2-2.5,2.6-2.5h6c4.3,0,8,1.8,8,6.6s-1.1,4.2-3.1,5.4h0c0-.1,0,0,0,0-.1,0-.1.1-.1.2h0v.2h0l3.5,6.4h0c0,.1,0,.3,0,.4,0,.1,0,.4-.2.5h0c-.1.1-.4.2-.5.2h-4v-.3h4c0,0,.2,0,.4-.1h0c0,0,0,0,0,0,0,0,.1-.2.1-.3v-.2h.1-.1l-3.5-6.4h.1-.1c0,0,0-.1,0-.3h0c0-.1.1-.1.1-.1h-.1c0-.2.1-.4.3-.4h0c2-1.1,3-2.9,3-5.1,0-4.6-3.5-6.3-7.7-6.3h-6c-1.3,0-2.3,1-2.3,2.3v16.5c0,.2.4.6.6.6h3.8c.1,0,.3,0,.4-.1h0c0,0,.1-.2.1-.4v-4.6c0-.3-.1-.6-.4-.9h0c0,0,0,0,0,0-.3-.3-.6-.4-1-.4v-.3h3.7c.4,0,.7.1.9.5h0l2.9,5.6h0c.2.4.5.7,1,.7h0c0,.1-.1.1-.1.1ZM195.2,13.4h0c-.4-.3-1-.4-1.7-.4h-4.9v-.3c.9,0,1.7.7,1.7,1.6v2.3c0,.2,0,.4.2.5h0c.1.1.3.2.5.2h2.5c1.4,0,2.3-.7,2.3-2.1s-.2-1.3-.7-1.7h0c0,0,0,0,0,0h0c0,0,0-.2,0-.2.5.4.7,1.1.7,1.9,0,1.6-1.1,2.4-2.6,2.4h-2.5c-.3,0-.5,0-.7-.3h0c0,0,0,0,0,0-.2-.2-.3-.4-.3-.7v-2.3c0-.8-.7-1.4-1.4-1.4v-.3h4.9c.7,0,1.4.2,1.9.7h0,.1Z"/>
      <path class="st10" d="M103.1,10.3v-.9c0-.2,0-.4-.2-.5-.1-.1-.3-.1-.5-.1h-3.2c-.4,0-.8.2-1,.6l-5,8.4-4.7-8.4c-.2-.4-.6-.6-1-.6h-1.6c-1.2,0-2.3,1.2-2.3,2.3v16.6c0,.2,0,.4.2.5.1.1.3.2.5.2h3.5c.4,0,.7-.3.7-.7l.3-9.7,2.7,5c.3.4.6.7,1,.7h1.5c.4,0,.7-.2,1-.7l2.9-5.1c0,0,.1,0,.1.1v9.6c0,.4.4.7.7.7h3.5c.2,0,.4,0,.5-.2.1-.1.2-.3.2-.5V10.3h0Z"/>
      <path class="st12" d="M103.1,10.3h-.1v-.9c0-.2,0-.4-.1-.4h0c0,0,0,0,0,0-.1,0-.2-.1-.4-.1h-3.2c-.4,0-.7.1-.9.5h0l-5.1,8.6-4.8-8.6h.1-.1c-.2-.4-.5-.5-.9-.5h-1.6c-1.2,0-2.2,1.1-2.2,2.2v16.6c0,.1,0,.3.1.4h0c.1.1.2.1.4.1h3.5c.3,0,.6-.2.6-.6h0l.3-10.2,3,5.4h-.1.1c.2.4.5.6.9.6h1.5c.4,0,.7-.2.9-.6h.1-.1l2.9-5.1h0c.1,0,.3.1.3.3v9.6c0,.2.4.6.6.6h3.5c.1,0,.3,0,.4-.1h0c0,0,.1-.2.1-.4V10.2h.3v17.4c0,.2,0,.4-.2.6h0c0,0,0,0,0,0-.1.1-.4.2-.6.2h-3.5c-.4,0-.8-.4-.9-.8v-9.6h0c0-.1.1-.1.1-.1l-2.9,5.1h0c-.3.4-.7.7-1.1.7h-1.5c-.4,0-.9-.3-1.1-.7h0l-2.5-4.6-.3,9.2h-.1.1c0,.5-.4.8-.9.8h-3.5c-.2,0-.4,0-.6-.2h0c0,0,0,0,0,0-.1-.1-.2-.4-.2-.6V11c0-1.3,1.2-2.5,2.5-2.5h1.6c.5,0,.9.2,1.2.7h0l4.6,8.3,4.9-8.3h.1-.1c.2-.4.7-.7,1.2-.7h3.2c.2,0,.4,0,.6.2h0c.1.1.2.4.2.7v.9h-.3Z"/>
      <path class="st10" d="M137.7,16.3c-1.5-.3-2.6-.7-3.2-.9-.6-.3-.9-.7-.9-1.3s0-.7.2-.9c.5-.7,1.4-.8,2.2-.8s1.2.1,1.7.4c.5.3.8.7.9,1,.2.4.5.5.9.5h4c.1,0,.3,0,.4-.2.1-.1.1-.3.1-.4-.1-2.3-2.2-4.1-4.2-4.9-1.3-.4-2.5-.7-3.9-.7-2.2,0-4.7.7-6.3,2.1,0,0-1.6,1.3-1.6,4.1.1,4.6,4.7,5.4,8.3,6.1.4.1.8.2,1.2.4.9.3,1.7.6,1.7,1.7s-.1.7-.4.9c-.2.3-.5.4-.8.5-.6.3-1.4.3-2,.3-1.3,0-2.5-.4-3.2-1.5-.2-.2-.4-.3-.5-.4,0,0-.1,0-.2,0h-4.1c-.1,0-.3,0-.4.1-.1.1-.2.3-.2.4.2,4.3,4.9,5.6,8.5,5.6s8.5-1.6,8.5-6.2-3.6-5.2-7.2-5.9"/>
      <path class="st27" d="M137.7,16.3h0c-1.6-.1-2.6-.5-3.2-.8-.6-.3-.9-.8-.9-1.4s0-.7.2-.9h0c.6-.8,1.5-.9,2.4-.9s1.3.1,1.8.4h0c.5.3.8.7.9,1.1h-.1.1c.2.3.4.4.8.4h4c0,0,.2,0,.4-.1h0c0,0,0,0,0,0,0-.1.1-.2.1-.4h.1-.1c-.1-2.2-2.2-3.9-4.1-4.7h0c0-.1,0,0,0,0-1.2-.4-2.5-.7-3.8-.7-2.2,0-4.7.7-6.2,2.1h0s-1.5,1.2-1.5,3.9h-.1.1c0,4.4,4.6,5.3,8.2,6h0c.4.1.8.2,1.2.4h0c0,.1,0,0,0,0,.8.3,1.8.6,1.8,1.7s-.1.7-.4,1h0c0,0,0,0,0,0-.2.3-.5.4-.9.6h0c0-.1,0,0,0,0-.7.3-1.4.3-2,.3-1.3,0-2.7-.4-3.3-1.6h.1,0c-.2-.2-.3-.3-.4-.4h0c0-.1,0,0,0,0,0,0-.1,0-.2,0h-4.1c-.1,0-.2,0-.4.1h0c-.1,0-.1.1-.1.3h-.1.1c.2,4.1,4.9,5.5,8.5,5.5s8.4-1.6,8.5-6.1c0-4.2-3.5-5.1-7.2-5.8h0v-.3c3.6.7,7.4,1.7,7.4,6.1s-4.9,6.3-8.7,6.3-8.5-1.4-8.7-5.8h0c0-.2,0-.4.2-.5h0c0,0,0,0,0,0,.1-.1.3-.2.5-.2h4.1c0,0,.1,0,.2,0h0c.1,0,.3.2.5.4h0c.6,1.1,1.8,1.4,3,1.4s1.4,0,2-.3h0c.3,0,.5-.3.7-.5h0c.2-.2.3-.4.3-.8,0-.9-.8-1.2-1.7-1.5h0c-.3-.1-.7-.2-1.1-.4h0c0-.1,0,0,0,0-3.5-.7-8.3-1.6-8.4-6.2h0c0-2.8,1.6-4.1,1.7-4.1h0c0,0,0,0,0,0,1.6-1.5,4.1-2.2,6.4-2.2s2.7.2,3.9.7h0c2,.8,4.1,2.6,4.3,5h0c0,.2,0,.4-.2.5h0c-.1.1-.4.2-.5.2h-4c-.4,0-.8-.2-1-.6h0c0-.4-.4-.7-.8-.9h0c0-.1,0,0,0,0-.5-.2-1.1-.4-1.7-.4s-1.7.1-2.2.8h0c0,0,.1,0,.1,0-.1.2-.2.4-.2.8s.2.9.8,1.2c.5.3,1.6.6,3.1.9h0c0,.1-.1.1-.1.1Z"/>
      <g class="st5">
        <rect class="st6" x="177" y="32.8" width="5.4" height="6.7"/>
      </g>
      <g class="st19">
        <rect class="st28" x="183.5" y="32.8" width="5.7" height="6.7"/>
      </g>
      <g class="st1">
        <rect class="st26" x="190.2" y="32.8" width="5.3" height="6.5"/>
      </g>
      <g class="st2">
        <rect class="st3" x="196.2" y="32.8" width="5.8" height="6.5"/>
      </g>
    </g>
  </g>
  <g class="st17">
    <path class="st9" d="M0,40"/>
    <path class="st9" d="M0,40"/>
    <path class="st9" d="M0,40"/>
    <g>
      <path class="st36" d="M119.1,22.6s0,.1-.1.2c-.2.2-.7,0-1-.3-1.3-.9-3.4.9-3.5,0-.6-2.8-1.4-6.7-2-9.6,1.3-4.7,7.2-4.5,8.6,0h0c-1.1,5.4-1.9,9.3-2,9.7Z"/>
      <path class="st32" d="M116.7,9.5c1.8,0,3.7,1.2,4.4,3.5h0c-1.1,5.4-1.9,9.3-2,9.7,0,0,0,.1-.1.2,0,0-.1,0-.2,0-.2,0-.6-.2-.8-.4-.3-.2-.6-.3-.9-.3-.9,0-1.8.5-2.3.5s-.3,0-.3-.2c-.6-2.8-1.4-6.7-2-9.6.6-2.3,2.4-3.5,4.2-3.5M116.7,9h0c-2.2,0-4,1.5-4.7,3.9,0,0,0,.2,0,.2.6,2.9,1.4,6.8,2,9.6,0,.4.4.6.8.6s.6-.1,1-.2c.4-.1.9-.3,1.3-.3.3,0,.5,0,.6.2.4.3.8.5,1.1.5s.3,0,.5-.1c.2-.1.3-.3.3-.5.1-.4.9-4.2,2-9.7,0,0,0,0,0,0,0,0,0-.1,0-.2-.7-2.3-2.7-3.8-4.9-3.8h0Z"/>
    </g>
    <g>
      <path class="st36" d="M114.5,22.5h0Z"/>
      <path class="st9" d="M0,40"/>
    </g>
    <g>
      <path class="st4" d="M114.5,22.5h0Z"/>
      <path class="st9" d="M0,40"/>
    </g>
    <g>
      <path class="st36" d="M126.3,28c0,.6-3.8.3-4.6.5-.3-.6-.6-1.3-.9-1.9h0s0,0,0,0c-2.3,1.5-5.4,1.5-7.7,0h0s0,0,0,0c0,0,0,0,0,0h0c-.3.6-.7,1.3-1,1.8h0c-1.3,0-2.8,0-4.1,0-.2,0-.4-.2-.4-.4.8-2.6,2.7-8,3.7-10.6l1.2,5.3c.2,2.2,1.7,3.5,3.8,2.2,1.3-.6,2.4.8,3.6.4,2,0,2.2-6.7,2.8-8.3,1.2,3.2,2.9,7.8,3.9,11h0Z"/>
      <path class="st15" d="M122.5,17c1.2,3.2,2.9,7.8,3.9,11h0c0,.6-3.8.3-4.6.5-.3-.6-.6-1.3-.9-1.9h0s0,0,0,0c-1.2.7-2.5,1.1-3.9,1.1s-2.7-.4-3.8-1.1h0s0,0,0,0c0,0,0,0,0,0,0,0,0,0,0,0-.3.6-.7,1.3-1,1.8h0c-1.3,0-2.8,0-4.1,0-.2,0-.4-.2-.4-.4.8-2.6,2.7-8,3.7-10.6l1.2,5.3c.2,1.6,1,2.7,2.2,2.7s1-.2,1.5-.5c.2-.1.4-.1.7-.1.9,0,1.7.6,2.5.6s.3,0,.5,0c2,0,2.2-6.7,2.8-8.3M122.5,16.5c-.2,0-.4.1-.5.3-.2.5-.3,1.3-.5,2.4-.3,1.8-.8,5.5-1.9,5.5,0,0,0,0-.1,0-.1,0-.2,0-.3,0-.3,0-.7-.1-1.1-.3-.4-.2-.9-.3-1.4-.3s-.6,0-.9.2c0,0,0,0,0,0-.5.3-.9.4-1.3.4-.9,0-1.6-.9-1.7-2.3,0,0,0,0,0,0l-1.2-5.3c0-.2-.2-.4-.5-.4,0,0,0,0,0,0-.2,0-.4.1-.5.3-1,2.7-2.9,8.1-3.7,10.6,0,0,0,0,0,.1,0,.5.4.9.9.9,1.7,0,3,0,4.1,0s.4-.2.5-.4c.2-.3.4-.6.6-1,0-.1.1-.2.2-.3,1.2.7,2.5,1,3.8,1s2.6-.3,3.7-.9c.2.5.5,1,.7,1.4,0,.2.3.3.5.3s0,0,.1,0c.2,0,1,0,1.7,0,1.9,0,2.7,0,3.1-.5,0,0,0,0,.1-.2,0,0,0,0,0,0,0-.1.1-.3,0-.4-.9-3-2.5-7.3-3.9-11,0-.2-.3-.3-.5-.3h0Z"/>
    </g>
    <g>
      <polygon class="st0" points="109.2 21.9 109.2 21.9 109.2 21.9 109.2 21.9"/>
      <path class="st9" d="M0,40"/>
    </g>
    <path class="st29" d="M116.7,0l1.2,3.5c0,.1.1.2.3.2h3.7l-3,2.2c-.1,0-.1.2-.1.3h0l.5,1.7c-.7-.5-1.6-.7-2.5-.7s-1.9.3-2.7.9l.6-1.8c0-.1,0-.2-.1-.3l-3-2.2h3.7c.1,0,.2,0,.3-.2l1.2-3.5"/>
    <g>
      <path class="st10" d="M129,5c0,4-2,7.7-5.3,10l-.8-2.3c3.6-2.2,5.9-6.1,5.8-10.3.2.8.3,1.7.3,2.6Z"/>
      <path class="st34" d="M128.7,2.4c.2.8.3,1.7.3,2.6,0,4-2,7.7-5.3,10l-.8-2.3c3.6-2.2,5.9-6.1,5.8-10.3M128.7,1.9s0,0,0,0c-.3,0-.4.2-.4.5,0,4-2.1,7.8-5.6,9.9-.2.1-.3.4-.2.6l.8,2.3c0,.1.2.3.3.3,0,0,.1,0,.2,0,0,0,.2,0,.3,0,3.5-2.4,5.5-6.3,5.5-10.4s0-1.8-.3-2.7c0-.2-.3-.4-.5-.4h0Z"/>
    </g>
    <g>
      <path class="st10" d="M110.5,12.8l-.8,2.3c-4.1-2.7-6.2-7.9-5.1-12.6,0,4.2,2.2,8.2,5.9,10.4Z"/>
      <path class="st23" d="M104.6,2.4c0,4.2,2.2,8.2,5.9,10.4l-.8,2.3c-4.1-2.7-6.2-7.9-5.1-12.6M104.6,1.9c-.2,0-.4.2-.5.4-1.1,5,1,10.3,5.3,13.2,0,0,.2,0,.3,0s.1,0,.2,0c.1,0,.3-.2.3-.3l.8-2.3c0-.2,0-.5-.2-.6-3.5-2.1-5.7-5.9-5.6-9.9,0-.3-.2-.5-.4-.5,0,0,0,0,0,0h0Z"/>
    </g>
  </g>
</svg>