<?xml version="1.0" encoding="UTF-8"?>
<svg id="Capa_1" xmlns="http://www.w3.org/2000/svg" width="250" height="197" version="1.1" xmlns:xlink="http://www.w3.org/1999/xlink" viewBox="0 0 250 197">
  <!-- Generator: Adobe Illustrator 29.0.0, SVG Export Plug-In . SVG Version: 2.1.0 Build 186)  -->
  <defs>
    <style>
      .st0 {
        fill: #fff;
      }

      .st1 {
        mask: url(#mask);
      }

      .st2 {
        fill: none;
      }

      .st3 {
        fill: #c4c4c4;
      }

      .st4 {
        fill: #1e0e00;
      }
    </style>
    <mask id="mask" x="-482.6" y="-589.9" width="1461.6" height="1277" maskUnits="userSpaceOnUse">
      <g id="mask0_513_14">
        <path class="st3" d="M212.8,176.2c-5.6-7.1-10.2-16.3-11.8-20,5.9-3.4,19-11.7,24.2-16.9,6.4-6.6,15.5-17.8,19.2-34.7,2.9-13.5-1.7-29.2-4.3-35.3-3.1-6.3-12.1-21.3-23.8-31-14.6-12.1-28.3-18.4-34.8-21.1-6.5-2.8-30.7-11.3-50.9-12.3-20.2-1-34.2,0-51.9,3.8-17.7,3.9-34.1,13.2-35.9,14.3-1.5.9-1.3,1.7-1,1.9-3.1,2.3-9.4,6.8-9.5,6.7,0-.1-.3-.2-1.1,0-.7.1-3.1,2.4-4.2,3.6-2.9,2.7-9.7,9.9-13.6,17.3-4.9,9.3-8.3,19.6-7.1,34.7,1.2,15.2,10.9,31.1,17.3,38.1,6.4,7.1,19.7,21.2,43.1,31.1,23.4,10,42.7,13.4,64.6,14.4,17.5.8,37.8-3.1,45.8-5.1,1.3,1.1,4.1,3.7,5.6,5.2,1.9,1.8,9.7,6.3,12.2,8.1,2.6,1.7,20.6,9.7,25.9,11.9,5.3,2.2,5.5,1.7,6.2,1.3.5-.3-.2-1.6-.6-2.2-2.1-1.6-7.7-6.5-13.3-13.7Z"/>
      </g>
    </mask>
  </defs>
  <g>
    <path class="st4" d="M2.3,92c-2.1,58.4,52.9,97.3,122.3,84.3,69.3-12.9,131.8-24.9,122.7-84.3-5-32.2-59.6-75.7-125.6-88.7C55.8-9.6,4.5,33.6,2.3,92Z"/>
    <path class="st0" d="M102.1,169.8c8.1,0,16.4-.8,24.8-2.4,66.6-12.4,124.2-23.2,115.9-77-4.4-28.8-56.2-70.3-118.7-82.6-7.3-1.4-14.6-2.2-21.7-2.2C52.4,5.7,14.9,41.1,13.1,89.9c-.8,20.6,6.1,39.1,19.9,53.4,16.4,17,40.9,26.4,69,26.4Z"/>
    <g>
      <path class="st0" d="M202.3,115.9s17.3,40.1,3.9,73.6c0,0-1.2-29.3-42.4-45.9"/>
      <path class="st4" d="M202.3,115.9c10.2,22.8,14.5,50.4,5.2,74.2,0,0-2.4,5.9-2.4,5.9l-.4-6.4c-1.2-10.6-7-20.1-14.2-27.7-5.6-5.8-12.4-10.5-19.4-14.5,0,0-7.3-3.7-7.3-3.7,2.5,1,5.1,2,7.6,3,5.6,2.6,11.1,5.7,15.9,9.5,8.2,6.4,15,15,18.4,24.9.9,2.7,1.6,5.4,1.9,8.4l-2.9-.5c.5-1.4,1.1-2.9,1.5-4.3,7-22.3,3.2-46.9-4-68.7h0Z"/>
    </g>
  </g>
  <g class="st1">
    <g>
      <rect class="st2" x="-393.7" y="-303.3" width="1283.7" height="703.9" transform="translate(11.9 138.8) rotate(-32)"/>
      <g>
        <path d="M70.6,96.1c0,0-.2.2-.2.3,0,.1-.1.2-.1.2-.4,1.9-.8,3.8-1.2,5.7-.4,1.9-.8,3.7-1.1,5.6-.2.9-.2,1.8-.3,2.8,0,1,0,2,0,3s.3,1.5.8,2.1c.3.4.2.8-.3,1.2-.6.4-1.1.5-1.7.5-.6,0-1.2-.3-1.8-.9-.2,0-.4.1-.6.2-.2,0-.4,0-.6.1-.3.2-.6.4-.9.5-.3.1-.6,0-.9,0-.5-.2-.9-.4-1.2-.7-.3-.3-.5-.6-.7-1.1-.2-.7-.4-1.5-.4-2.3-.1-1.4-.1-2.8,0-4.3s.3-2.9.5-4.3c.5-2,.9-3.9,1.4-5.9.4-2,.8-3.9,1.3-5.9v-.4c0-.1,0-.4.1-.7-.2.2-.3.3-.4.3,0,0-.2,0-.2.2-.6,1.2-1.3,2.2-2.2,3.3-.9,1-1.6,2.1-2.2,3.2-.6.9-1.4,1.1-2.3.6-.2,0-.3,0-.4-.2,0,0-.1-.2-.2-.2-.6,0-1-.1-1.3-.3-.3-.2-.6-.5-.7-.8-.2-.3-.3-.7-.3-1.1,0-.4-.1-.8-.2-1.1-.2-.7-.3-1.4-.4-2.2-.1-.8-.2-1.5-.4-2.2-.2,1.3-.2,2.5,0,3.8.2,1.2.5,2.5.8,3.9-.4-.2-.8-.4-1-.6-.2-.3-.4-.5-.5-.8-.1-.3-.2-.6-.3-.9-.1-.3-.3-.6-.5-.8-.4.7-.7,1.5-.9,2.2-.2.8-.5,1.5-.8,2.2-.3.8-.6,1.5-.9,2.3-.3.8-.6,1.6-.9,2.5-.3.7-.6,1.4-.9,2.2-.3.7-.6,1.4-.9,2.1.2-1.3.6-2.6,1-3.9.4-1.3.8-2.5,1.2-3.8.4-1.3.8-2.5,1.1-3.8.3-1.3.6-2.6.7-4-.3.7-.6,1.4-.8,2.1-.3.7-.5,1.4-.8,2.1-.9,2.8-1.9,5.7-2.9,8.5-1,2.8-1.9,5.7-2.9,8.5-.1.6-.3,1.1-.4,1.7-.2.5-.4,1-.6,1.5-.5.2-.9.3-1.2.1-.3-.1-.7-.2-1.1-.3,0-.3-.1-.5-.2-.8s0-.5,0-.8c0-.2,0-.4,0-.6,0-.2,0-.3,0-.4.6-1.8,1.1-3.5,1.6-5.2s1-3.5,1.5-5.2c.2-.4.3-.9.3-1.5,0-.6,0-1.3,0-2.2-.2.4-.4.7-.5.9-.1.2-.2.4-.2.6-.6,1.4-1,2.8-1.5,4.2s-.9,2.9-1.5,4.3c-.2.6-.4,1.1-.6,1.7-.2.6-.4,1.2-.7,1.8-.2.4-.4.8-.8,1.1-.4.3-.9.5-1.4.7,0-.2,0-.4,0-.6,0-.2,0-.3,0-.5,1.6-6.5,3.4-12.9,5.5-19.2,2.1-6.3,4.4-12.6,6.8-18.9.6-1.7,1.2-3.3,2-4.9.8-1.6,1.5-3.1,2.1-4.6.2-.6.5-1.1.8-1.5.3-.4.5-.8.8-1.2.3-.6.8-.8,1.6-.5.2,0,.4.2.4.5s0,.4-.1.6c0,0,0,0,0,.2,0,0,0,.1,0,.3.4-.2.8-.4,1.2-.5.4-.1.8-.3,1-.5.4-.2.7-.4,1-.4.3,0,.6,0,.8,0,.3,0,.5.2.8.3.3.1.5.3.8.4.2.1.4.3.4.6v.7c-.2.8-.4,1.7-.6,2.5s-.4,1.6-.6,2.5c-.7,3-1.1,6-1.3,9.1-.2,3-.2,6.1,0,9.2,0,.2.1.4.1.5,0,.2,0,.4.2.7,0-.2.2-.4.3-.5.1,0,.3-.2.4-.3,1.1-1.5,2.1-3,3-4.6.9-1.6,1.8-3.1,2.7-4.7,1-1.7,2-3.4,2.9-5.1.9-1.7,1.8-3.4,2.7-5.2.4-1,.9-1.9,1.5-2.8.6-.9,1.1-1.8,1.6-2.7.2-.1.3-.2.4-.4,0-.1.2-.3.4-.5.4-.5.8-.7,1.2-.8.4,0,.8.2,1.4.6.1,0,.2.2.3.2,0,0,.2,0,.5,0,.7-.2,1.3-.2,1.8.1.5.3,1.1.7,1.6,1.1-.2.5-.4,1-.5,1.4-.2.5-.3.9-.5,1.4-1,2.4-2,4.8-3,7.2s-1.8,4.8-2.6,7.2c-.3.8-.5,1.6-.7,2.5-.2.9-.4,1.7-.7,2.6-.5,1.2-1,2.5-1.3,3.9-.4,1.4-.6,2.7-.8,4.1h.2ZM64,115.2c0-1-.2-1.9-.2-2.8,0-.9-.2-1.8-.2-2.5,0,.8-.2,1.6-.2,2.5,0,.9.2,1.8.7,2.8ZM72.5,88.1c0,0,.2-.3.5-.7.3-.9.6-1.8,1-2.6.3-.8.6-1.7,1-2.6,0-.2.2-.3.3-.5.1-.2.3-.4.5-.5-.6,2.7-1.2,5.3-1.9,7.9-.7,2.6-1.4,5.2-2.1,7.8-.7,2.6-1.3,5.1-1.8,7.7-.5,2.6-1.1,5.2-1.6,7.9,0-.2,0-.3,0-.4,0-.1,0-.2,0-.3.2-1.3.3-2.6.4-3.9,0-1.3.3-2.6.6-3.8.3-1.3.5-2.6.8-3.9.2-1.3.5-2.6.7-3.9h-.2c.3-.8.6-1.6.8-2.5.2-.9.5-1.7.7-2.7.1-.4.2-.9.3-1.4,0-.5.2-1,.2-1.5Z"/>
        <path d="M105.7,71.3c.4-.2.8-.5,1-1,.2-.5.5-.9.8-1.3.2-.4.5-.8.8-1.1.3-.4.7-.6,1.2-.8.2,0,.4.1.5.2.2,0,.3,0,.5.2.6.2.9.7.7,1.5,0,.4-.2.8-.4,1.2-.2.4-.3.7-.5,1.1-.4.5-.7,1-1,1.5-.2.5-.5,1.1-.8,1.7.4-.3.8-.7,1.1-1.2.3-.5.7-.9,1.3-1.3,0,.4-.2.8-.2,1,0,.2-.1.4-.2.6-.6,1.5-1.2,3-1.8,4.5s-1.2,2.9-1.7,4.3c-1.2,3.1-2.2,6.2-3.1,9.4-.9,3.1-1.7,6.3-2.2,9.5-.1.8-.2,1.6-.4,2.4-.2,1.3-.2,2.5,0,3.6.2,1.1.7,2.2,1.5,3.2,0,.3-.2.5-.4.5-.2,0-.3,0-.5,0-.2-.1-.3-.2-.4-.3-.1,0-.3-.2-.4-.4-.2.2-.4.4-.6.5-.2.1-.5.2-.8.2-.4,0-.8-.1-1-.2-.3,0-.6-.2-1-.5-.2-.2-.4-.4-.5-.5-.1-.1-.3-.3-.5-.5-.6-1.2-1-2.5-1.1-3.7-.1-1.2-.2-2.5-.1-3.7.3-1.6.5-3.1.8-4.6.2-1.5.6-2.9,1-4.3,0-.3.2-.6.3-.9,0-.3.1-.6,0-.9-.2.2-.3.4-.4.7-.1.2-.2.5-.2.7-.3,1.2-.6,2.3-.8,3.5-.3,1.2-.5,2.4-.7,3.6-.2,1.3-.4,2.7-.4,4s.2,2.7.7,4.1v.5c-.6-.8-.9-1.6-1.1-2.4-.2-.9-.3-1.8-.3-2.7s0-2.1.1-3.2c0-1.1.2-2.1.4-3.1,0-.3.1-.7.2-1,0-.4.1-.8.1-1.3-.2.3-.3.5-.4.6,0,.1-.2.2-.2.3-.8,1.1-1.5,2.2-2.3,3.3-.8,1.1-1.6,2.2-2.4,3.2-.4.4-.8.9-1.2,1.3-.4.4-.8.9-1.1,1.3-.5.4-1,.6-1.4.8s-1,.3-1.6.3h-2c-.6,0-1.2-.2-1.9-.5,0,0-.3-.1-.5-.1-.3,0-.5,0-.8-.2-1-.2-1.6-.5-2-.9-.4-.4-.7-1.1-1-2.1,0-.7-.1-1.3,0-1.9,0-.6,0-1.2,0-1.8,0-1.5.2-2.9.4-4.4.2-1.4.4-2.9.6-4.4.3-1,.5-2.1.8-3.2.3-1.1.6-2.1.9-3.1.6-1.9,1.4-3.8,2.2-5.5.8-1.8,1.6-3.6,2.5-5.4l.6-.6c0,.3.2.6.4.8.2.2.4.4.6.5.2.1.4.2.6.4.2.1.3.3.4.5.3-.2.6-.4.8-.6.2-.2.5-.4.8-.6.4.2.7.3,1.1.4.4.1.7.4.9.8.2.3.4.6.5.8.1.3.1.6,0,1v2.2c0,0-.2.2-.4.3-.2.1-.3.3-.4.5-.2,0-.3.2-.4.4,0,.2-.2.4-.2.5-.9,2.7-1.8,5.3-2.6,8-.8,2.6-1.5,5.3-2,8.1,0,.3,0,.7-.2,1,0,.3,0,.8.2,1.2.2-.2.4-.4.6-.6.2-.2.3-.4.4-.6.8-.9,1.5-1.9,2.2-2.9.7-1,1.5-2,2.2-3,.9-1.1,1.8-2.2,2.7-3.3.9-1.1,1.7-2.3,2.5-3.4.7-1.2,1.5-2.2,2.3-3.2.8-1,1.6-2,2.3-3,1-1.4,2-2.7,2.9-4,1-1.3,1.9-2.6,2.8-3.9.2-.3.4-.7.6-1,.2-.4.4-.7.7-.9,0-.2.2-.3.3-.4,0,0,.2-.2.5-.5v.9c-.2.3-.3.6-.5.9-.1.3-.3.6-.5.9-.1.3-.2.6-.4.8-.1.3-.2.6-.3.9,0,0-.2.1-.2.1s-.2,0-.2,0c-.5.9-1,1.7-1.4,2.5-.5.8-.9,1.6-1.4,2.4,0,.1-.1.2-.2.3,0,.1,0,.2,0,.3.4-.2.6-.3.6-.4.6-.8,1.1-1.6,1.5-2.4.5-.8.9-1.6,1.4-2.4v-.5ZM79.6,90.9c-.4,1.1-.7,2.2-1,3.4-.2,1.2-.4,2.3-.5,3.4,0,1.1,0,2,0,2.9,0,.9.2,1.5.4,2v-2.7c0-1,0-2.1.3-3.1.2-1.1.4-2.1.6-3.1,0-.4.2-.8.3-1.2,0-.4,0-.9,0-1.5ZM82.5,97.1c-.4.4-.5.9-.4,1.3.1.4.2.9.1,1.4.2-.5.3-.9.3-1.4,0-.4,0-.9,0-1.4.3-.3.4-.5.3-.8s-.1-.5-.3-.8v1.6ZM84.8,75.3c0,.2-.1.5-.2.7s-.2.4-.3.7c0,.2-.1.4-.2.6,0,.3-.2.5-.2.6.3-.4.6-.8.8-1.2.2-.4.3-.8.2-1.4ZM98.4,82.6c-.2,0-.2,0-.3,0,0,0,0,0-.2,0-2.4,3.2-4.7,6.4-6.8,9.6-2.1,3.2-4.5,6.3-7,9.4,0,0,0,0-.1,0,0,0,0,0,0,.2h0c0,.1,0,.2.2.2.2-.1.3-.2.5-.4.2-.1.3-.3.5-.5.5-.6,1.1-1.3,1.6-2,.6-.7,1.1-1.4,1.6-2,1.4-2,2.9-4,4.3-6,1.4-2,2.8-4,4.2-6,.2-.3.4-.6.6-.9.2-.3.4-.6.6-.8,0-.2.1-.3.1-.5,0-.1,0-.3.1-.5ZM100.3,108.5c-.6-1.1-.9-2.3-1-3.4,0-1.2,0-2.3.2-3.5,0-.7,0-1.4.1-2.1,0-.7.1-1.3.2-1.9,0,.1,0,.3-.2.4,0,.2,0,.3,0,.4-.3,1.2-.5,2.4-.6,3.6-.1,1.2-.1,2.4-.1,3.7,0,.6.2,1.1.4,1.7.2.6.6,1.1,1.1,1.7v-.6Z"/>
        <path d="M137.6,71.3c.4-.2.8-.5,1-1,.2-.5.5-.9.8-1.3.2-.4.5-.8.8-1.1.3-.4.7-.6,1.2-.8.2,0,.4.1.5.2.2,0,.3,0,.5.2.6.2.9.7.7,1.5,0,.4-.2.8-.4,1.2-.2.4-.3.7-.5,1.1-.4.5-.7,1-1,1.5-.2.5-.5,1.1-.8,1.7.4-.3.8-.7,1-1.2.3-.5.7-.9,1.3-1.3,0,.4-.1.8-.2,1,0,.2-.1.4-.2.6-.6,1.5-1.2,3-1.8,4.5s-1.2,2.9-1.7,4.3c-1.2,3.1-2.2,6.2-3.1,9.4-.9,3.1-1.7,6.3-2.2,9.5-.1.8-.2,1.6-.4,2.4-.2,1.3-.2,2.5,0,3.6.2,1.1.7,2.2,1.5,3.2,0,.3-.2.5-.4.5-.2,0-.3,0-.5,0-.2-.1-.3-.2-.4-.3s-.3-.2-.4-.4c-.2.2-.4.4-.6.5s-.5.2-.8.2c-.4,0-.8-.1-1-.2s-.6-.2-1-.5c-.2-.2-.4-.4-.5-.5-.1-.1-.3-.3-.5-.5-.6-1.2-1-2.5-1.1-3.7-.1-1.2-.2-2.5-.1-3.7.3-1.6.5-3.1.8-4.6s.6-2.9,1-4.3c0-.3.2-.6.3-.9,0-.3.1-.6,0-.9-.2.2-.3.4-.4.7s-.2.5-.2.7c-.3,1.2-.6,2.3-.8,3.5-.3,1.2-.5,2.4-.7,3.6-.2,1.3-.4,2.7-.4,4s.2,2.7.7,4.1v.5c-.6-.8-.9-1.6-1.1-2.4-.2-.9-.3-1.8-.3-2.7s0-2.1.1-3.2c0-1.1.2-2.1.4-3.1,0-.3.1-.7.2-1,0-.4.1-.8.1-1.3-.2.3-.3.5-.4.6,0,.1-.2.2-.2.3-.8,1.1-1.5,2.2-2.3,3.3-.8,1.1-1.6,2.2-2.4,3.2-.4.4-.8.9-1.2,1.3s-.8.9-1.1,1.3c-.5.4-1,.6-1.4.8-.5.2-1,.3-1.6.3h-2c-.6,0-1.2-.2-1.9-.5,0,0-.3-.1-.5-.1-.3,0-.5,0-.8-.2-1-.2-1.6-.5-2-.9-.4-.4-.7-1.1-1-2.1,0-.7-.1-1.3,0-1.9,0-.6,0-1.2,0-1.8,0-1.5.2-2.9.4-4.4.2-1.4.4-2.9.6-4.4.3-1,.5-2.1.8-3.2.3-1.1.6-2.1.9-3.1.6-1.9,1.4-3.8,2.2-5.5.8-1.8,1.7-3.6,2.5-5.4l.6-.6c0,.3.2.6.4.8.2.2.4.4.6.5.2.1.4.2.6.4.2.1.3.3.4.5.3-.2.6-.4.8-.6.2-.2.5-.4.8-.6.4.2.7.3,1.1.4.4.1.7.4.9.8.2.3.4.6.5.8.1.3.1.6,0,1v2.2c0,0-.2.2-.4.3s-.3.3-.4.5c-.2,0-.3.2-.4.4,0,.2-.2.4-.2.5-.9,2.7-1.8,5.3-2.5,8s-1.5,5.3-2,8.1c0,.3,0,.7-.2,1,0,.3,0,.8.2,1.2.2-.2.4-.4.6-.6.2-.2.3-.4.4-.6.8-.9,1.5-1.9,2.2-2.9.7-1,1.5-2,2.2-3,.9-1.1,1.8-2.2,2.7-3.3.9-1.1,1.7-2.3,2.5-3.4.7-1.2,1.5-2.2,2.3-3.2.8-1,1.6-2,2.3-3,1-1.4,2-2.7,2.9-4,1-1.3,1.9-2.6,2.8-3.9.2-.3.4-.7.6-1,.2-.4.4-.7.7-.9,0-.2.2-.3.3-.4s.2-.2.4-.5v.9c-.2.3-.3.6-.4.9-.1.3-.3.6-.5.9-.1.3-.2.6-.4.8-.1.3-.2.6-.3.9,0,0-.2.1-.2.1s-.2,0-.2,0c-.5.9-1,1.7-1.4,2.5-.5.8-.9,1.6-1.4,2.4,0,.1-.1.2-.1.3,0,.1,0,.2,0,.3.4-.2.6-.3.6-.4.6-.8,1.1-1.6,1.5-2.4.5-.8.9-1.6,1.4-2.4v-.5ZM111.5,90.9c-.4,1.1-.7,2.2-1,3.4-.2,1.2-.4,2.3-.5,3.4,0,1.1,0,2,0,2.9,0,.9.2,1.5.4,2v-2.7c0-1,0-2.1.3-3.1.2-1.1.4-2.1.6-3.1,0-.4.2-.8.3-1.2s0-.9,0-1.5ZM114.4,97.1c-.4.4-.5.9-.4,1.3.1.4.2.9.1,1.4.2-.5.3-.9.3-1.4,0-.4,0-.9,0-1.4.3-.3.4-.5.3-.8,0-.2-.1-.5-.3-.8v1.6ZM116.8,75.3c0,.2-.1.5-.2.7s-.2.4-.3.7c0,.2-.1.4-.2.6,0,.3-.2.5-.2.6.3-.4.6-.8.8-1.2.2-.4.3-.8.2-1.4ZM130.3,82.6c-.2,0-.2,0-.3,0,0,0,0,0-.2,0-2.4,3.2-4.7,6.4-6.8,9.6-2.1,3.2-4.5,6.3-7,9.4,0,0,0,0-.1,0,0,0,0,0,0,.2h0c0,.1,0,.2.2.2.2-.1.3-.2.5-.4s.3-.3.5-.5c.5-.6,1.1-1.3,1.6-2,.6-.7,1.1-1.4,1.6-2,1.4-2,2.9-4,4.3-6,1.4-2,2.8-4,4.2-6,.2-.3.4-.6.6-.9.2-.3.4-.6.6-.8,0-.2.1-.3.2-.5,0-.1,0-.3.1-.5ZM132.2,108.5c-.6-1.1-.9-2.3-1-3.4s0-2.3.2-3.5c0-.7,0-1.4.1-2.1,0-.7.1-1.3.2-1.9,0,.1,0,.3-.2.4,0,.2,0,.3,0,.4-.3,1.2-.5,2.4-.6,3.6-.1,1.2-.2,2.4-.2,3.7,0,.6.2,1.1.4,1.7.2.6.6,1.1,1.1,1.7v-.6Z"/>
        <path d="M169.5,71.3c.4-.2.8-.5,1-1,.2-.5.5-.9.8-1.3.2-.4.5-.8.8-1.1.3-.4.7-.6,1.2-.8.2,0,.4.1.5.2.2,0,.3,0,.5.2.6.2.9.7.7,1.5,0,.4-.2.8-.4,1.2-.2.4-.3.7-.5,1.1-.4.5-.7,1-1,1.5-.2.5-.5,1.1-.8,1.7.4-.3.8-.7,1-1.2.3-.5.7-.9,1.3-1.3,0,.4-.1.8-.2,1,0,.2-.1.4-.2.6-.6,1.5-1.2,3-1.8,4.5s-1.2,2.9-1.7,4.3c-1.2,3.1-2.2,6.2-3.1,9.4-.9,3.1-1.7,6.3-2.2,9.5-.1.8-.2,1.6-.4,2.4-.2,1.3-.2,2.5,0,3.6.2,1.1.7,2.2,1.5,3.2,0,.3-.2.5-.4.5-.2,0-.3,0-.5,0-.2-.1-.3-.2-.4-.3s-.3-.2-.4-.4c-.2.2-.4.4-.6.5s-.5.2-.8.2c-.4,0-.8-.1-1-.2s-.6-.2-1-.5c-.2-.2-.4-.4-.5-.5-.1-.1-.3-.3-.5-.5-.6-1.2-1-2.5-1.1-3.7-.1-1.2-.2-2.5-.1-3.7.3-1.6.5-3.1.8-4.6s.6-2.9,1-4.3c0-.3.2-.6.3-.9,0-.3.1-.6,0-.9-.2.2-.3.4-.4.7s-.2.5-.2.7c-.3,1.2-.6,2.3-.8,3.5-.3,1.2-.5,2.4-.7,3.6-.2,1.3-.4,2.7-.4,4s.2,2.7.7,4.1v.5c-.6-.8-.9-1.6-1.1-2.4-.2-.9-.3-1.8-.3-2.7s0-2.1.1-3.2c0-1.1.2-2.1.4-3.1,0-.3.1-.7.2-1,0-.4.1-.8.1-1.3-.2.3-.3.5-.4.6,0,.1-.2.2-.2.3-.8,1.1-1.5,2.2-2.3,3.3-.8,1.1-1.6,2.2-2.4,3.2-.4.4-.8.9-1.2,1.3s-.8.9-1.1,1.3c-.5.4-1,.6-1.4.8-.5.2-1,.3-1.6.3h-2c-.6,0-1.2-.2-1.9-.5,0,0-.3-.1-.5-.1-.3,0-.5,0-.8-.2-1-.2-1.6-.5-2-.9-.4-.4-.7-1.1-1-2.1,0-.7-.1-1.3,0-1.9,0-.6,0-1.2,0-1.8,0-1.5.2-2.9.4-4.4.2-1.4.4-2.9.6-4.4.3-1,.5-2.1.8-3.2.3-1.1.6-2.1.9-3.1.6-1.9,1.4-3.8,2.2-5.5.8-1.8,1.7-3.6,2.5-5.4l.6-.6c0,.3.2.6.4.8.2.2.4.4.6.5.2.1.4.2.6.4.2.1.3.3.4.5.3-.2.6-.4.8-.6.2-.2.5-.4.8-.6.4.2.7.3,1.1.4.4.1.7.4.9.8.2.3.4.6.5.8.1.3.1.6,0,1v2.2c0,0-.2.2-.4.3s-.3.3-.4.5c-.2,0-.3.2-.4.4,0,.2-.2.4-.2.5-.9,2.7-1.8,5.3-2.5,8s-1.5,5.3-2,8.1c0,.3,0,.7-.2,1,0,.3,0,.8.2,1.2.2-.2.4-.4.6-.6.2-.2.3-.4.4-.6.8-.9,1.5-1.9,2.2-2.9.7-1,1.5-2,2.2-3,.9-1.1,1.8-2.2,2.7-3.3.9-1.1,1.7-2.3,2.5-3.4.7-1.2,1.5-2.2,2.3-3.2.8-1,1.6-2,2.3-3,1-1.4,2-2.7,2.9-4,1-1.3,1.9-2.6,2.8-3.9.2-.3.4-.7.6-1,.2-.4.4-.7.7-.9,0-.2.2-.3.3-.4s.2-.2.4-.5v.9c-.2.3-.3.6-.4.9-.1.3-.3.6-.5.9-.1.3-.2.6-.4.8-.1.3-.2.6-.3.9,0,0-.2.1-.2.1s-.2,0-.2,0c-.5.9-1,1.7-1.4,2.5-.5.8-.9,1.6-1.4,2.4,0,.1-.1.2-.1.3,0,.1,0,.2,0,.3.4-.2.6-.3.6-.4.6-.8,1.1-1.6,1.5-2.4.5-.8.9-1.6,1.4-2.4v-.5ZM143.4,90.9c-.4,1.1-.7,2.2-1,3.4-.2,1.2-.4,2.3-.5,3.4,0,1.1,0,2,0,2.9,0,.9.2,1.5.4,2v-2.7c0-1,0-2.1.3-3.1.2-1.1.4-2.1.6-3.1,0-.4.2-.8.3-1.2s0-.9,0-1.5ZM146.3,97.1c-.4.4-.5.9-.4,1.3.1.4.2.9.1,1.4.2-.5.3-.9.3-1.4,0-.4,0-.9,0-1.4.3-.3.4-.5.3-.8,0-.2-.1-.5-.3-.8v1.6ZM148.7,75.3c0,.2-.1.5-.2.7s-.2.4-.3.7c0,.2-.1.4-.2.6,0,.3-.2.5-.2.6.3-.4.6-.8.8-1.2.2-.4.3-.8.2-1.4ZM162.2,82.6c-.2,0-.2,0-.3,0,0,0,0,0-.2,0-2.4,3.2-4.7,6.4-6.8,9.6-2.1,3.2-4.5,6.3-7,9.4,0,0,0,0-.1,0,0,0,0,0,0,.2h0c0,.1,0,.2.2.2.2-.1.3-.2.5-.4s.3-.3.5-.5c.5-.6,1.1-1.3,1.6-2,.6-.7,1.1-1.4,1.6-2,1.4-2,2.9-4,4.3-6,1.4-2,2.8-4,4.2-6,.2-.3.4-.6.6-.9.2-.3.4-.6.6-.8,0-.2.1-.3.2-.5,0-.1,0-.3.1-.5ZM164.2,108.5c-.6-1.1-.9-2.3-1-3.4s0-2.3.2-3.5c0-.7,0-1.4.1-2.1,0-.7.1-1.3.2-1.9,0,.1,0,.3-.2.4,0,.2,0,.3,0,.4-.3,1.2-.5,2.4-.6,3.6-.1,1.2-.2,2.4-.2,3.7,0,.6.2,1.1.4,1.7.2.6.6,1.1,1.1,1.7v-.6Z"/>
        <path d="M201.4,71.3c.4-.2.8-.5,1-1,.2-.5.5-.9.8-1.3.2-.4.5-.8.8-1.1.3-.4.7-.6,1.2-.8.2,0,.4.1.5.2.2,0,.3,0,.5.2.6.2.9.7.7,1.5,0,.4-.2.8-.4,1.2-.2.4-.3.7-.5,1.1-.4.5-.7,1-1,1.5-.2.5-.5,1.1-.8,1.7.4-.3.8-.7,1-1.2.3-.5.7-.9,1.3-1.3,0,.4-.1.8-.2,1,0,.2-.1.4-.2.6-.6,1.5-1.2,3-1.8,4.5s-1.2,2.9-1.7,4.3c-1.2,3.1-2.2,6.2-3.1,9.4-.9,3.1-1.7,6.3-2.2,9.5-.1.8-.2,1.6-.4,2.4-.2,1.3-.2,2.5,0,3.6.2,1.1.7,2.2,1.5,3.2,0,.3-.2.5-.4.5-.2,0-.3,0-.5,0-.2-.1-.3-.2-.4-.3s-.3-.2-.4-.4c-.2.2-.4.4-.6.5s-.5.2-.8.2c-.4,0-.8-.1-1-.2s-.6-.2-1-.5c-.2-.2-.4-.4-.5-.5-.1-.1-.3-.3-.5-.5-.6-1.2-1-2.5-1.1-3.7-.1-1.2-.2-2.5-.1-3.7.3-1.6.5-3.1.8-4.6s.6-2.9,1-4.3c0-.3.2-.6.3-.9,0-.3.1-.6,0-.9-.2.2-.3.4-.4.7s-.2.5-.2.7c-.3,1.2-.6,2.3-.8,3.5-.3,1.2-.5,2.4-.7,3.6-.2,1.3-.4,2.7-.4,4s.2,2.7.7,4.1v.5c-.6-.8-.9-1.6-1.1-2.4-.2-.9-.3-1.8-.3-2.7s0-2.1.1-3.2c0-1.1.2-2.1.4-3.1,0-.3.1-.7.2-1,0-.4.1-.8.1-1.3-.2.3-.3.5-.4.6,0,.1-.2.2-.2.3-.8,1.1-1.5,2.2-2.3,3.3-.8,1.1-1.6,2.2-2.4,3.2-.4.4-.8.9-1.2,1.3s-.8.9-1.1,1.3c-.5.4-1,.6-1.4.8-.5.2-1,.3-1.6.3h-2c-.6,0-1.2-.2-1.9-.5,0,0-.3-.1-.5-.1-.3,0-.5,0-.8-.2-1-.2-1.6-.5-2-.9-.4-.4-.7-1.1-1-2.1,0-.7-.1-1.3,0-1.9,0-.6,0-1.2,0-1.8,0-1.5.2-2.9.4-4.4.2-1.4.4-2.9.6-4.4.3-1,.5-2.1.8-3.2.3-1.1.6-2.1.9-3.1.6-1.9,1.4-3.8,2.2-5.5.8-1.8,1.7-3.6,2.5-5.4l.6-.6c0,.3.2.6.4.8.2.2.4.4.6.5.2.1.4.2.6.4.2.1.3.3.4.5.3-.2.6-.4.8-.6.2-.2.5-.4.8-.6.4.2.7.3,1.1.4.4.1.7.4.9.8.2.3.4.6.5.8.1.3.1.6,0,1v2.2c0,0-.2.2-.4.3s-.3.3-.4.5c-.2,0-.3.2-.4.4,0,.2-.2.4-.2.5-.9,2.7-1.8,5.3-2.5,8s-1.5,5.3-2,8.1c0,.3,0,.7-.2,1,0,.3,0,.8.2,1.2.2-.2.4-.4.6-.6.2-.2.3-.4.4-.6.8-.9,1.5-1.9,2.2-2.9.7-1,1.5-2,2.2-3,.9-1.1,1.8-2.2,2.7-3.3.9-1.1,1.7-2.3,2.5-3.4.7-1.2,1.5-2.2,2.3-3.2.8-1,1.6-2,2.3-3,1-1.4,2-2.7,2.9-4,1-1.3,1.9-2.6,2.8-3.9.2-.3.4-.7.6-1,.2-.4.4-.7.7-.9,0-.2.2-.3.3-.4s.2-.2.4-.5v.9c-.2.3-.3.6-.4.9-.1.3-.3.6-.5.9-.1.3-.2.6-.4.8-.1.3-.2.6-.3.9,0,0-.2.1-.2.1s-.2,0-.2,0c-.5.9-1,1.7-1.4,2.5-.5.8-.9,1.6-1.4,2.4,0,.1-.1.2-.1.3,0,.1,0,.2,0,.3.4-.2.6-.3.6-.4.6-.8,1.1-1.6,1.5-2.4.5-.8.9-1.6,1.4-2.4v-.5ZM175.3,90.9c-.4,1.1-.7,2.2-1,3.4-.2,1.2-.4,2.3-.5,3.4,0,1.1,0,2,0,2.9,0,.9.2,1.5.4,2v-2.7c0-1,0-2.1.3-3.1.2-1.1.4-2.1.6-3.1,0-.4.2-.8.3-1.2s0-.9,0-1.5ZM178.3,97.1c-.4.4-.5.9-.4,1.3.1.4.2.9.1,1.4.2-.5.3-.9.3-1.4,0-.4,0-.9,0-1.4.3-.3.4-.5.3-.8,0-.2-.1-.5-.3-.8v1.6ZM180.6,75.3c0,.2-.1.5-.2.7s-.2.4-.3.7c0,.2-.1.4-.2.6,0,.3-.2.5-.2.6.3-.4.6-.8.8-1.2.2-.4.3-.8.2-1.4ZM194.2,82.6c-.2,0-.2,0-.3,0,0,0,0,0-.2,0-2.4,3.2-4.7,6.4-6.8,9.6-2.1,3.2-4.5,6.3-7,9.4,0,0,0,0-.1,0,0,0,0,0,0,.2h0c0,.1,0,.2.2.2.2-.1.3-.2.5-.4s.3-.3.5-.5c.5-.6,1.1-1.3,1.6-2,.6-.7,1.1-1.4,1.6-2,1.4-2,2.9-4,4.3-6,1.4-2,2.8-4,4.2-6,.2-.3.4-.6.6-.9.2-.3.4-.6.6-.8,0-.2.1-.3.2-.5,0-.1,0-.3.1-.5ZM196.1,108.5c-.6-1.1-.9-2.3-1-3.4s0-2.3.2-3.5c0-.7,0-1.4.1-2.1,0-.7.1-1.3.2-1.9,0,.1,0,.3-.2.4,0,.2,0,.3,0,.4-.3,1.2-.5,2.4-.6,3.6-.1,1.2-.2,2.4-.2,3.7,0,.6.2,1.1.4,1.7.2.6.6,1.1,1.1,1.7v-.6Z"/>
        <path d="M211.1,109.8c-.2.2-.4.5-.5.8,0,.3-.1.5-.1.8,0,.3,0,.5,0,.8,0,.3-.1.5-.3.7-.3,0-.6,0-.9.2s-.6.1-.9.2c-.3,0-.6,0-.9-.2-.3-.1-.6-.4-.9-.9-.1.3-.3.5-.4.7-.1.2-.3.2-.6,0-.9-.3-1.3-.8-1.3-1.5s0-.8-.2-1.2-.2-.7-.3-1c-.2-.3-.2-.6,0-.9.1-.3.3-.5.5-.8.3-.5.6-1,1-1.5.4-.5.7-1,1.1-1.6.3,0,.6,0,.9,0,.3,0,.6,0,.8.2.6,0,.9.1,1,.4.6.6,1.2.7,1.9.3.3-.2.6-.3.7-.4.2,0,.4,0,.7.2,0,.1,0,.2,0,.3,0,0-.2.1-.3.2-.1,0-.2.2-.2.3s0,.2.3.3c0,0,.1.2.2.3,0,.1,0,.3,0,.4-.2.7-.4,1.4-.6,2-.2.7-.4,1.4-.8,2,0-.2,0-.4,0-.6,0-.2,0-.4,0-.7ZM212.1,97.3c-.2-1.4-.2-2.7-.1-4,0-1.3.3-2.6.6-4,.3-1.1.6-2.2,1-3.4.3-1.1.6-2.3.9-3.5v-.9c-.4,1.1-.8,2.2-1.2,3.4-.4,1.1-.7,2.3-1,3.5-.3,1.3-.5,2.6-.6,3.9,0,1.3-.2,2.6-.4,4,0,.4-.2.8-.2,1,0,.2-.2.4-.3.6s-.3.3-.6.4c-.2.1-.6.2-1.1.4v1.9h-1.9l-.3-.3c-.4-1.3-.7-2.5-.8-3.7s-.1-2.4,0-3.7c.2-1.7.5-3.3.8-4.8.3-1.5.6-3.1.9-4.6.2-1.6.5-3,1-4.4.5-1.4,1-2.8,1.4-4.3.7-1.4,1.3-2.8,1.9-4.2.6-1.4,1.3-2.7,2.1-3.9.5-.8,1-1.6,1.6-2.3,0-.2.2-.3.4-.4.2,0,.5-.2.8-.3-.2.8-.6,1.5-1,2.2-.4.6-.8,1.3-1.1,2-.3.6-.6,1.3-.9,2-.3.7-.6,1.4-.9,2-.3.7-.6,1.4-.9,2-.3.7-.5,1.3-.7,2-.2.7-.5,1.3-.8,2s-.5,1.3-.7,2c-.2.7-.4,1.4-.6,2.1-.2.7-.4,1.4-.6,2-.2.8-.4,1.6-.5,2.3s-.3,1.4-.5,2.1c-.3,1.3-.4,2.7-.4,4.2,0-.2.2-.5.3-.8.1-.3.2-.5.3-.8.8-3.7,1.8-7.4,2.9-11,1.1-3.6,2.5-7.1,4-10.5.3-.6.6-1.1.9-1.7.3-.6.5-1.1.9-1.7,0-.2,0-.3.3-.5.4-.7.8-1.3,1.5-1.8.6-.5,1.5-.6,2.5-.5.2.2.5.5.8.8s.6.5.9.8c0,.6-.2,1-.6,1.4-.4.4-.7.8-.9,1.3-.2.4-.4.9-.6,1.3s-.4,1-.5,1.7c.4-.5.7-1,.9-1.4.3-.5.5-.9.8-1.4.3-.5.6-.9.9-1.3.3-.4.7-.9,1.2-1.3,0,.4,0,.8-.1,1-.1.3-.3.5-.5.8-.8,1.8-1.7,3.7-2.6,5.6-.9,1.9-1.8,3.8-2.7,5.7-.6,1.3-1.2,2.6-1.7,3.9-.5,1.3-1,2.6-1.6,4-.6,1.5-1.1,3-1.5,4.5-.4,1.5-.6,3-.7,4.6,0,.4-.2.7-.2,1s-.2.6-.2,1Z"/>
      </g>
    </g>
  </g>
</svg>