<?xml version="1.0" encoding="UTF-8"?>
<svg id="Capa_1" data-name="Capa 1" xmlns="http://www.w3.org/2000/svg" viewBox="0 0 839.32 300">
  <defs>
    <style>
      .cls-1 {
        fill: #4465ad;
      }
    </style>
  </defs>
  <g>
    <path class="cls-1" d="M162.08,0l26.99,4.87c54.71,14.7,97.1,60.24,108.49,115.7l2.44,17.43v24l-2.44,17.43c-12.18,61.27-65.6,112.78-128.45,119.73-2.79.31-6.14-.66-8.53.84h-21.74l-24.74-4.12c-55.02-13.74-98.72-58.71-110.73-114.21L.16,160.5c.38-7.11-.52-14.71,0-21.75C5.43,67,65.42,5.56,137.34,0h24.74ZM38.16,58.98c-77.53,96.34-7.32,238.59,116.05,235.03,111.18-3.2,177.6-125.04,118.82-220.15C220.96-10.38,100.15-18.05,38.16,58.98Z"/>
    <path class="cls-1" d="M225.04,37.5l.03,118.16c-2.64,38.06-35.76,70.12-74.24,69.34v-37.5c19.73.93,37.57-17.64,37.55-37.13,0-2.13-.84-4-.85-5.97-.12-35.63.15-71.28.03-106.91h37.48Z"/>
    <path class="cls-1" d="M150.08,75v37.5c-19.62.39-36.21,15.89-37.5,35.59-.22,3.43.77,6.08.8,9,.11,10.13-.15,20.28-.03,30.41h-37.48v-46.88c0-3.36,3.13-13.69,4.48-17.27,10.68-28.26,39.3-48.48,69.73-48.36Z"/>
    <rect class="cls-1" x="75.87" y="225" width="37.48" height="37.5"/>
  </g>
  <g>
    <path class="cls-1" d="M339.56,67.23v36.52h-19.3V0h33.8c6.93,0,12.94.81,18.01,2.44,5.07,1.63,9.26,3.9,12.56,6.82,3.3,2.92,5.74,6.41,7.32,10.48,1.58,4.07,2.37,8.52,2.37,13.35s-.84,9.63-2.51,13.81c-1.68,4.19-4.19,7.79-7.53,10.8s-7.53,5.36-12.56,7.03c-5.02,1.67-10.91,2.51-17.65,2.51h-14.49ZM339.56,52.16h14.49c3.54,0,6.62-.44,9.26-1.33,2.63-.88,4.81-2.15,6.53-3.8s3.01-3.66,3.88-6.03c.86-2.37,1.29-5.01,1.29-7.93s-.43-5.29-1.29-7.53c-.86-2.25-2.15-4.16-3.88-5.74-1.72-1.58-3.9-2.79-6.53-3.62-2.63-.84-5.72-1.26-9.26-1.26h-14.49v37.24Z"/>
    <path class="cls-1" d="M437.58,28.99c5.5,0,10.49.89,14.96,2.65,4.47,1.77,8.29,4.28,11.44,7.53,3.16,3.25,5.6,7.22,7.32,11.91,1.72,4.69,2.58,9.93,2.58,15.71s-.86,11.1-2.58,15.79c-1.72,4.69-4.16,8.68-7.32,11.98-3.16,3.3-6.97,5.84-11.44,7.61-4.47,1.77-9.46,2.66-14.96,2.66s-10.5-.89-15-2.66c-4.5-1.77-8.34-4.31-11.52-7.61-3.18-3.3-5.64-7.29-7.39-11.98-1.75-4.69-2.62-9.95-2.62-15.79s.87-11.03,2.62-15.71c1.75-4.69,4.21-8.66,7.39-11.91,3.18-3.25,7.02-5.76,11.52-7.53,4.5-1.77,9.49-2.65,15-2.65ZM437.58,91.2c6.12,0,10.66-2.06,13.6-6.17,2.94-4.11,4.41-10.14,4.41-18.08s-1.47-13.99-4.41-18.15c-2.94-4.16-7.47-6.24-13.6-6.24s-10.81,2.09-13.78,6.28c-2.97,4.19-4.45,10.22-4.45,18.12s1.48,13.91,4.45,18.05c2.97,4.14,7.56,6.21,13.78,6.21Z"/>
    <path class="cls-1" d="M478.76,30.14h14.06c1.34,0,2.46.31,3.37.93.91.62,1.48,1.41,1.72,2.37l10.55,39.32c.57,2.15,1.04,4.26,1.4,6.31.36,2.06.7,4.11,1.04,6.17.53-2.06,1.09-4.11,1.69-6.17.6-2.06,1.23-4.16,1.9-6.31l12.2-39.46c.29-.96.86-1.75,1.72-2.37.86-.62,1.87-.93,3.01-.93h7.82c1.29,0,2.37.31,3.23.93.86.62,1.43,1.41,1.72,2.37l12.05,40.18c.62,2.06,1.18,4.05,1.69,5.99.5,1.94.99,3.89,1.47,5.85.33-2.06.7-4.11,1.11-6.17.41-2.06.92-4.19,1.54-6.39l10.91-39.32c.24-.96.81-1.75,1.72-2.37.91-.62,1.96-.93,3.16-.93h13.42l-23.32,73.62h-14.28c-1.53,0-2.63-1.05-3.3-3.16l-13.27-42.55c-.43-1.39-.82-2.79-1.18-4.2-.36-1.41-.66-2.81-.9-4.2-.29,1.44-.6,2.86-.93,4.27-.33,1.41-.72,2.83-1.15,4.27l-13.42,42.41c-.67,2.11-1.96,3.16-3.88,3.16h-13.56l-23.32-73.62Z"/>
    <path class="cls-1" d="M631.67,28.99c4.64,0,8.91.74,12.81,2.22,3.9,1.48,7.26,3.65,10.08,6.49,2.82,2.85,5.02,6.34,6.6,10.48,1.58,4.14,2.37,8.86,2.37,14.17,0,1.34-.06,2.45-.18,3.34-.12.89-.34,1.58-.65,2.08-.31.5-.73.86-1.26,1.08-.53.21-1.2.32-2.01.32h-45.49c.53,7.56,2.56,13.11,6.1,16.65,3.54,3.54,8.23,5.31,14.06,5.31,2.87,0,5.35-.33,7.43-1,2.08-.67,3.9-1.41,5.45-2.22,1.55-.81,2.92-1.55,4.09-2.22,1.17-.67,2.31-1,3.41-1,.72,0,1.34.14,1.87.43.53.29.98.69,1.36,1.22l5.17,6.46c-1.96,2.3-4.16,4.22-6.6,5.78-2.44,1.56-4.99,2.8-7.64,3.73-2.65.93-5.36,1.59-8.11,1.97-2.75.38-5.42.57-8,.57-5.12,0-9.88-.85-14.28-2.55s-8.23-4.21-11.48-7.53c-3.25-3.32-5.81-7.44-7.68-12.34-1.87-4.9-2.8-10.58-2.8-17.04,0-5.02.81-9.75,2.44-14.17,1.63-4.42,3.96-8.27,7-11.55,3.04-3.28,6.74-5.87,11.12-7.78,4.38-1.91,9.32-2.87,14.82-2.87ZM632.03,41.69c-5.17,0-9.21,1.46-12.13,4.38-2.92,2.92-4.78,7.06-5.6,12.41h33.29c0-2.3-.31-4.46-.93-6.49-.62-2.03-1.58-3.81-2.87-5.35-1.29-1.53-2.92-2.74-4.88-3.62-1.96-.88-4.26-1.33-6.89-1.33Z"/>
    <path class="cls-1" d="M677.95,103.76V30.14h10.4c1.82,0,3.09.33,3.8,1,.72.67,1.19,1.82,1.43,3.44l1.08,8.9c2.63-4.54,5.72-8.13,9.26-10.76,3.54-2.63,7.51-3.95,11.91-3.95,3.64,0,6.65.84,9.04,2.51l-2.3,13.27c-.14.86-.45,1.47-.93,1.83-.48.36-1.12.54-1.94.54-.72,0-1.7-.17-2.94-.5-1.24-.33-2.9-.5-4.95-.5-3.68,0-6.84,1.02-9.47,3.05-2.63,2.03-4.86,5.01-6.67,8.93v45.85h-17.72Z"/>
    <path class="cls-1" d="M411.75,224.09c0,7.61-1.27,14.59-3.8,20.95-2.54,6.36-6.1,11.84-10.69,16.43-4.59,4.59-10.12,8.16-16.58,10.69-6.46,2.54-13.61,3.8-21.45,3.8h-39.61v-103.75h39.61c7.84,0,15,1.28,21.45,3.84,6.46,2.56,11.98,6.12,16.58,10.69,4.59,4.57,8.15,10.03,10.69,16.4,2.54,6.36,3.8,13.35,3.8,20.95ZM392.02,224.09c0-5.69-.77-10.8-2.3-15.32-1.53-4.52-3.71-8.35-6.53-11.48-2.82-3.13-6.26-5.54-10.3-7.21-4.04-1.67-8.6-2.51-13.67-2.51h-20.16v73.04h20.16c5.07,0,9.63-.84,13.67-2.51,4.04-1.67,7.47-4.08,10.3-7.21,2.82-3.13,5-6.96,6.53-11.48,1.53-4.52,2.3-9.63,2.3-15.32Z"/>
    <path class="cls-1" d="M456.31,201.2c4.64,0,8.91.74,12.81,2.23,3.9,1.48,7.26,3.65,10.08,6.49,2.82,2.85,5.02,6.34,6.6,10.48,1.58,4.14,2.37,8.86,2.37,14.17,0,1.34-.06,2.45-.18,3.34-.12.89-.34,1.58-.65,2.08-.31.5-.73.86-1.26,1.08-.53.22-1.2.32-2.01.32h-45.49c.53,7.56,2.56,13.11,6.1,16.65,3.54,3.54,8.23,5.31,14.06,5.31,2.87,0,5.35-.33,7.43-1,2.08-.67,3.9-1.41,5.45-2.22,1.55-.81,2.92-1.55,4.09-2.22s2.31-1,3.41-1c.72,0,1.34.14,1.87.43.53.29.98.69,1.36,1.22l5.17,6.46c-1.96,2.3-4.16,4.22-6.6,5.78-2.44,1.56-4.99,2.8-7.64,3.73-2.65.93-5.36,1.59-8.11,1.97-2.75.38-5.42.57-8,.57-5.12,0-9.88-.85-14.28-2.55-4.4-1.7-8.23-4.21-11.48-7.53-3.25-3.32-5.81-7.44-7.68-12.34-1.87-4.9-2.8-10.58-2.8-17.04,0-5.02.81-9.75,2.44-14.17,1.63-4.42,3.96-8.28,7-11.55,3.04-3.28,6.74-5.87,11.12-7.79,4.38-1.91,9.32-2.87,14.82-2.87ZM456.66,213.9c-5.17,0-9.21,1.46-12.13,4.38-2.92,2.92-4.78,7.06-5.6,12.41h33.29c0-2.3-.31-4.46-.93-6.49-.62-2.03-1.58-3.81-2.87-5.35-1.29-1.53-2.92-2.74-4.88-3.62-1.96-.88-4.26-1.33-6.89-1.33Z"/>
    <path class="cls-1" d="M537.1,275.96h-16.07l-29.27-73.62h14.71c1.29,0,2.38.31,3.26.93.88.62,1.49,1.41,1.83,2.37l14.21,39.32c.81,2.3,1.49,4.55,2.04,6.74.55,2.2,1.04,4.4,1.47,6.6.43-2.2.92-4.4,1.47-6.6.55-2.2,1.26-4.45,2.12-6.74l14.57-39.32c.33-.96.93-1.75,1.79-2.37.86-.62,1.89-.93,3.09-.93h13.99l-29.2,73.62Z"/>
    <path class="cls-1" d="M604.83,201.2c4.64,0,8.91.74,12.81,2.23,3.9,1.48,7.26,3.65,10.08,6.49,2.82,2.85,5.02,6.34,6.6,10.48,1.58,4.14,2.37,8.86,2.37,14.17,0,1.34-.06,2.45-.18,3.34-.12.89-.34,1.58-.65,2.08-.31.5-.73.86-1.26,1.08-.53.22-1.2.32-2.01.32h-45.49c.53,7.56,2.56,13.11,6.1,16.65,3.54,3.54,8.23,5.31,14.06,5.31,2.87,0,5.35-.33,7.43-1,2.08-.67,3.9-1.41,5.45-2.22,1.55-.81,2.92-1.55,4.09-2.22s2.31-1,3.41-1c.72,0,1.34.14,1.87.43.53.29.98.69,1.36,1.22l5.17,6.46c-1.96,2.3-4.16,4.22-6.6,5.78-2.44,1.56-4.99,2.8-7.64,3.73-2.65.93-5.36,1.59-8.11,1.97-2.75.38-5.42.57-8,.57-5.12,0-9.88-.85-14.28-2.55-4.4-1.7-8.23-4.21-11.48-7.53-3.25-3.32-5.81-7.44-7.68-12.34-1.87-4.9-2.8-10.58-2.8-17.04,0-5.02.81-9.75,2.44-14.17,1.63-4.42,3.96-8.28,7-11.55,3.04-3.28,6.74-5.87,11.12-7.79,4.38-1.91,9.32-2.87,14.82-2.87ZM605.19,213.9c-5.17,0-9.21,1.46-12.13,4.38-2.92,2.92-4.78,7.06-5.6,12.41h33.29c0-2.3-.31-4.46-.93-6.49-.62-2.03-1.58-3.81-2.87-5.35-1.29-1.53-2.92-2.74-4.88-3.62-1.96-.88-4.26-1.33-6.89-1.33Z"/>
    <path class="cls-1" d="M669.98,169.34v106.63h-17.72v-106.63h17.72Z"/>
    <path class="cls-1" d="M721.43,201.2c5.5,0,10.49.89,14.96,2.66,4.47,1.77,8.29,4.28,11.44,7.53,3.16,3.25,5.6,7.22,7.32,11.91,1.72,4.69,2.58,9.93,2.58,15.71s-.86,11.1-2.58,15.79c-1.72,4.69-4.16,8.68-7.32,11.98-3.16,3.3-6.97,5.84-11.44,7.61-4.47,1.77-9.46,2.66-14.96,2.66s-10.5-.89-15-2.66c-4.5-1.77-8.34-4.31-11.52-7.61-3.18-3.3-5.64-7.29-7.39-11.98-1.75-4.69-2.62-9.95-2.62-15.79s.87-11.02,2.62-15.71c1.75-4.69,4.21-8.66,7.39-11.91,3.18-3.25,7.02-5.76,11.52-7.53,4.5-1.77,9.49-2.66,15-2.66ZM721.43,263.41c6.12,0,10.66-2.06,13.6-6.17,2.94-4.11,4.41-10.14,4.41-18.08s-1.47-13.99-4.41-18.15-7.47-6.24-13.6-6.24-10.81,2.09-13.78,6.28c-2.97,4.19-4.45,10.23-4.45,18.12s1.48,13.91,4.45,18.05c2.97,4.14,7.56,6.21,13.78,6.21Z"/>
    <path class="cls-1" d="M771.58,300v-97.66h10.83c1.15,0,2.13.26,2.94.79.81.53,1.34,1.34,1.58,2.44l1.44,6.82c2.97-3.4,6.37-6.15,10.22-8.25,3.85-2.1,8.36-3.16,13.53-3.16,4.02,0,7.69.84,11.01,2.51,3.32,1.68,6.19,4.1,8.61,7.28,2.42,3.18,4.28,7.1,5.6,11.77,1.32,4.66,1.97,10.01,1.97,16.04,0,5.5-.74,10.6-2.22,15.28-1.48,4.69-3.6,8.75-6.35,12.2-2.75,3.44-6.07,6.14-9.97,8.07-3.9,1.94-8.26,2.91-13.09,2.91-4.16,0-7.69-.63-10.58-1.9s-5.49-3.02-7.79-5.27v30.14h-17.72ZM806.02,214.97c-3.68,0-6.83.78-9.44,2.33-2.61,1.56-5.03,3.74-7.28,6.57v33.01c2.01,2.49,4.2,4.22,6.57,5.2,2.37.98,4.92,1.47,7.64,1.47s5.11-.5,7.28-1.51c2.18-1,4.02-2.54,5.53-4.59,1.51-2.06,2.67-4.65,3.48-7.79.81-3.13,1.22-6.83,1.22-11.09s-.35-7.95-1.04-10.94c-.69-2.99-1.69-5.42-2.98-7.28-1.29-1.87-2.86-3.23-4.7-4.09-1.84-.86-3.94-1.29-6.28-1.29Z"/>
  </g>
</svg>