<?xml version="1.0" encoding="UTF-8"?>
<svg id="Capa_1" xmlns="http://www.w3.org/2000/svg" width="675.9" height="122" version="1.1" xmlns:xlink="http://www.w3.org/1999/xlink" viewBox="0 0 675.9 122">
  <!-- Generator: Adobe Illustrator 29.0.0, SVG Export Plug-In . SVG Version: 2.1.0 Build 186)  -->
  <defs>
    <style>
      .st0 {
        fill: #ffda00;
      }

      .st1 {
        filter: url(#drop-shadow-1);
      }
    </style>
    <filter id="drop-shadow-1" x="-5.1" y="6" width="680" height="124" filterUnits="userSpaceOnUse">
      <feOffset dx="1" dy="7"/>
      <feGaussianBlur result="blur" stdDeviation="5"/>
      <feFlood flood-color="#000" flood-opacity=".8"/>
      <feComposite in2="blur" operator="in"/>
      <feComposite in="SourceGraphic"/>
    </filter>
  </defs>
  <g class="st1">
    <path class="st0" d="M19.2,90.7c-.1-.3-.3-.6-.4-.9-.1-.3-.2-.6-.4-.9-.3-1.3-.3-2.7,0-4.1.3-1.4.6-2.8,1-4.1.2-1.4.5-2.7.9-3.9.4-1.2.8-2.5,1.2-3.8,0-.3.1-.7.2-1,0-.3,0-.7-.1-1.2,0,.1-.2.3-.4.5-.2.2-.4.3-.5.5-.8,2.3-1.6,4.6-2.2,6.9-.6,2.3-1.1,4.7-1.5,7.2,0,.8,0,1.5,0,2.2,0,.8,0,1.5,0,2.2-.6.5-1.3.6-2,.4-.7-.2-1.5-.4-2.4-.6-.5-.9-.8-1.8-.9-2.7,0-.9,0-1.7.4-2.6.3-1.7.7-3.3,1.1-4.9.4-1.5.7-3.1,1.1-4.6.3-.5.5-1.1.7-1.6.2-.5.1-1.1-.2-1.7-.1-.1-.1-.3,0-.4.2-.1.3-.3.5-.4-.5-.3-1.1-.7-1.5-1-.5-.3-.9-.7-1.2-1-.2,0-.4-.2-.5-.5-.1-.2-.3-.4-.6-.4-.5,0-.8,0-1-.2-.2-.2-.4-.4-.5-.7-.1-.2-.3-.5-.4-.8-.1-.3-.4-.5-.7-.6,1-.7,2-1.3,2.9-1.6.9-.3,1.8-.7,2.6-1,.9-.5,1.8-1,2.8-1.3,1-.3,1.8-.8,2.5-1.3.6-.7,1-1.6,1.3-2.5.2-.9.5-1.7.8-2.6.7-2.4,1.5-4.8,2.2-7.2.7-2.4,1.5-4.7,2.4-7.1.5-1.4,1.1-2.9,1.6-4.3.5-1.4,1-2.9,1.4-4.5-.9-.5-1.8-.9-2.8-1.3-1-.4-1.9-.8-3-1.4-.3-.2-.7-.5-1.1-.9-.4-.4-.6-.9-.8-1.6.3,0,.6-.2.9-.3.3-.1.6-.2.8-.4,3.3-.7,6.5-1.5,9.8-2.4s6.6-1.5,10-2.1c2.3-.3,4.7-.5,7-.7,2.4-.2,4.7-.2,7.1,0,2.2.1,4.2.5,6.1,1.2,1.9.7,3.7,1.6,5.5,2.7,1,.6,1.8,1.3,2.5,2.1.7.8,1.3,1.6,1.8,2.5.2.4.4.8.6,1.1.2.3.4.6.7.9.7,1.1,1.1,2.2,1,3.3s-.4,2.2-1,3.1c-.5.8-1,1.6-1.6,2.3-.6.7-1.2,1.4-1.7,2.1-1.2,1.4-2.4,2.6-3.8,3.6-1.4,1-2.9,2.1-4.4,3.2-5.3,3.5-10.8,6.6-16.4,9.4-5.6,2.8-11.3,5.6-17.2,8.3,0,.1-.2.2-.4.3-.2,0-.3.1-.5.3-1,.1-1.8.5-2.3,1.2-.5.6-.9,1.4-1.3,2.2-.7,2.5-1.4,4.8-2.1,7.2-.7,2.3-1.4,4.7-2,7.3-.3.5-.5,1.1-.5,1.7,0,.6,0,1.2-.2,1.8,0,.3-.1.7-.3,1.1-.1,0-.3,0-.4.1-.1,0-.2.1-.4.1ZM33,44.8c-.4.5-.9,1.3-1.5,2.4-.6,1.1-1.2,2.3-1.8,3.5-.6,1.3-1.2,2.5-1.7,3.7-.5,1.2-.8,2.1-1,2.8.3-.3.7-.9,1.3-2,.6-1.1,1.2-2.2,1.9-3.5.6-1.3,1.2-2.6,1.7-3.8.5-1.3.9-2.3,1.1-3ZM34,53.9c3.7-1.8,7.3-3.6,10.6-5.6,3.3-1.9,6.6-4,9.9-6.2,2.2-1.6,4.4-3.5,6.5-5.5,1.4-1.1,2.3-2.5,2.9-4.1-1-.3-2.2-.6-3.7-.7-1.5-.1-3.2-.1-5,0-1.8.1-3.6.3-5.5.6-1.9.3-3.7.7-5.4,1.1-2,3.4-3.9,6.7-5.6,10-1.8,3.2-3.3,6.7-4.7,10.4ZM50.1,28.7c1-.1,2-.3,2.9-.4.9-.1,1.8-.2,2.8-.2.8-.2,1.7-.3,2.6-.2.9.1,1.9.2,2.9.2s1.7,0,2.5.1c.9,0,1.7.1,2.5.1-2.7-1-5.3-1.3-8-1.1-2.7.2-5.4.5-8.1.9v.6Z"/>
    <path class="st0" d="M69.9,66.5c-.1.3-.3.6-.5.9-.2.3-.4.6-.5,1-.3,1.4-.9,3.1-1.7,5.3-.1-.4-.2-.7-.3-1,0-.2,0-.5.1-.8.3-1,.5-2,.8-3,.2-1,.5-2.1.8-3.2.2-.8.4-1.6.7-2.3.2-.7.4-1.4.6-2.1,0-.5-.1-.8-.3-.8-.9-.9-1.4-1.5-1.5-2-.1-.4.2-.9,1.1-1.3.3-.1.5-.2.7-.3,1.2-.4,2-1,2.7-1.6.6-.7,1.2-1.6,1.7-2.8,1.9-3.7,4.1-7.4,6.5-10.9,2.4-3.5,5.2-6.8,8.2-9.9,2.7-3.1,5.9-5.7,9.4-7.8,2-1.2,4.1-1.6,6-1.4,2,.2,4,.8,6,1.6,1.3.7,1.8,1.8,1.4,3.4-.1,1-.3,1.9-.5,2.8-.2.9-.4,1.8-.7,2.6-.7,1.9-1.3,3.8-2,5.8-.6,1.9-1.2,3.9-1.8,6-.1.3-.3.8-.4,1.3-.1.5-.3,1.1-.4,1.8.4.5,1,1.3,1.6,2.5-.3.1-.7.2-1.1.3-.4,0-1,.1-1.8.3.5.3,1.1.5,1.6.6.5.1,1,.2,1.4.4.4.1.8.3,1.1.6.3.3.4.7.5,1.3-.5,0-1,0-1.5-.1-.4,0-.9,0-1.5.1-1,0-1.6.1-1.9.3-.3.2-.6.8-.9,1.6-.3,1.2-.7,2.4-1,3.6-.3,1.2-.7,2.4-1,3.6-.4,2-.8,4.1-1.3,6.2-.4,2.1-.9,4.1-1.3,6.1-.1.8-.2,1.4-.3,2.1,0,.6-.1,1.3-.3,2-1.8.6-3,.8-3.6.7-.6-.2-1.4-1-2.4-2.5-.2,1.5-.4,2.9-.5,4.1-.1,1.3-.2,2.5-.2,3.8-.1,0-.3,0-.4.3-.1.2-.2.2-.4,0-.3-.1-.6-.3-.9-.6-.3-.3-.5-.5-.7-.7-.1-.3-.2-.7-.1-1.1,0-.4,0-.8-.1-1.1v-2.6c-.5-.3-1-.3-1.2-.1-.3.2-.4.5-.4.9v4.4h-1.7l-.3-.3c0,0-.1-.1-.2-.1-.4-2.6-.5-5-.2-7.4.3-2.3.7-4.7,1.2-7.3.3-1.6.6-3.3.9-4.9.3-1.6.7-3.2,1-4.8,0-.3,0-.6.2-.9.1-.2.2-.5.2-.7-1.2-.3-2.1-.3-2.8,0-.7.3-1.5.6-2.5.8-.8.1-1.5.3-2.2.5-.8.2-1.5.5-2.2.8-1.2,2.2-2.1,4.4-2.9,6.7-.8,2.3-1.5,4.5-2.4,6.8-.6.1-1.2.3-1.6.4-.5.1-1,.2-1.5.2s-1.1-.2-1.4-.7c-.2-.5-.3-1-.3-1.6.1-1,.3-1.9.4-2.9.1-1,.3-1.9.6-2.9.5-.3.9-.8,1-1.3.1-.5.2-1.2.4-2-.3.5-.5.9-.7,1.1-.2.3-.3.5-.4.7,0,.2-.1.4-.2.6,0,.2,0,.5-.2.8ZM94.9,37.4c-1,.8-2,1.9-3.1,3.1-1.1,1.3-2.1,2.6-3.1,3.9-1,1.4-1.9,2.7-2.7,4-.8,1.3-1.3,2.4-1.6,3.3,1.2-.5,2.3-.8,3.3-1,1.1-.2,2.1-.6,3.1-1.2.7-2,1.3-4,1.9-5.9.6-2,1.3-4.1,2-6.2Z"/>
    <path class="st0" d="M135.4,74c-.3.3-.5.5-.6.6-.1.1-.2.2-.3.4-2-1.8-3.7-3.6-5.1-5.6-1.4-2-2.8-4.1-4-6.2-2,.3-3.2,1.2-3.4,2.9-.5,2.4-1.1,4.8-1.6,7.2-.5,2.4-1,4.7-1.3,7.1-.5,1.6-.6,3.1-.5,4.7.1,1.6.5,3.1,1.1,4.6-.7.6-1.2,1-1.6,1.1-.9-.3-1.5-.7-1.9-1.3-.4-.6-.7-1.3-.9-2.2-.1-.7-.2-1.4-.2-2s0-1.3-.2-1.8c0-.6-.1-1.2-.2-1.7,0-.5-.1-1.2-.3-2-.3.5-.5.8-.6,1-.1.2-.2.4-.2.7v2.8c0,.9,0,1.9.2,2.9,0,.3,0,.6.1.9,0,.3.1.7.2,1.1-.5.3-1,.6-1.5.9-.4.3-.9.5-1.5.8-1.9-.4-2.9-1.6-3-3.5,0-1-.1-1.9-.2-2.8,0-.9-.1-1.9-.1-3.1,0-3.2.5-6.4,1.2-9.5.8-3.1,1.5-6.2,2.2-9.3,1.2-4.5,2.4-8.9,3.8-13.3,1.4-4.4,2.9-8.8,4.7-13.2.2-.5.3-1.1.3-1.5s-.2-.9-.5-1.3c-.8-1.1-.5-2.1.6-3.1.5-.7,1-1.1,1.3-1.2.6-.4,1.1-.9,1.6-1.4.4-.5.9-1,1.5-1.6.3-.5.8-1,1.4-1.3.6-.3,1.2-.4,1.8-.1,1.2.3,2.3.4,3.4.1,1.1-.3,2.3-.5,3.5-.8,2.6-.5,5.2-1.1,8-1.6,2.7-.5,5.5-.9,8.3-1.2,1.8-.1,3.5-.2,5.3-.3,1.7,0,3.4,0,5.1.3.9.2,1.7.2,2.5,0-.7-.3-1.4-.6-2.3-.9-.9-.2-1.7-.4-2.5-.4h-5.5c-1.4.1-2.7.3-4.1.5-1.4.2-2.8.3-4.2.5-.8.1-1.3.2-1.6.2-.3,0-1-.3-2-.8.5-.4,1-.6,1.2-.6,2.9-.6,5.8-1.1,8.5-1.3,2.8-.3,5.7-.3,8.7-.2.8.1,1.6.3,2.5.5.8.2,1.6.5,2.2,1,2,1.6,3.7,3.6,5.1,6.1.3.2.5.5.5.9s0,.8.1,1.1c0,.4.1.8.4,1.2.5,0,.8.2,1,.5.2.3.4.6.5,1,.1.4.2.8.3,1.1,0,.4.2.7.4,1,.5.5.7,1.1.4,1.7-.3.6-.7,1.2-1.1,1.7-.8,1.2-1.6,2.2-2.6,3.2-1,1-2.1,1.8-3.2,2.6-1.6,1-3.2,1.9-4.8,2.8-1.6.9-3.3,1.7-5,2.6-2.4,1.3-4.7,2.5-7.1,3.7-2.3,1.2-4.6,2.4-6.8,3.7-.5.2-1.1.4-1.6.6-.5.2-1.1.5-1.7.8.1.3.2.6.2.7s0,.3.1.6c2.5,3.1,5.1,6.1,7.6,9,2.6,3,5.4,5.7,8.4,8.3.8.8,1.7,1.5,2.6,2.2.9.8,1.8,1.4,2.8,1.9.7.5,1.3,1,1.7,1.3.5.3,1,.5,1.4.7.5.1,1,.2,1.6.3.6,0,1.3,0,2.3,0,.1.9.1,1.5,0,1.8-.2.3-.5.6-1.1.9-.4.2-.9.4-1.3.5-.5.1-.9.2-1.2.4-.4.1-.7.3-.9.4-.2.1-.4.2-.7.2,0,.3,0,.6,0,.7.1.1.2.2.4.3.2,0,.3.1.5.2.2,0,.3.2.5.4,0,0,0,.2-.1.3-.1.3-.3.4-.4.4-1.4,1.2-2.6,2.1-3.6,2.7-1.1.6-2,.9-3,1-.9,0-1.9,0-2.8-.5-1-.4-2-.9-3.3-1.6-2-1.2-3.8-2.5-5.4-3.9-1.6-1.4-3.2-2.9-4.8-4.5-1.6-1.9-3.5-4-5.5-6.1ZM129.1,66.2c.1,1,.3,1.5.5,1.7.2.2.7.6,1.5,1.1-.6-1.2-1.3-2.2-1.9-2.9ZM130.1,43.6c3.1-1.2,5.9-2.4,8.4-3.7,2.6-1.3,5.1-2.7,7.6-4,2.6-1.2,5.1-2.6,7.7-4.1,2.5-1.5,5-3.3,7.4-5.5-.5-.1-1-.2-1.4-.3-.4,0-.7,0-1.1,0-1.2,0-2.2,0-3.2,0-1,0-2,0-3.2,0-2.6.3-5.1.7-7.4,1.2-2.4.4-4.7,1-7.1,1.6-.8,0-1.3.3-1.7.6-.4.3-.7,1-.8,1.8-.5,1.6-1.1,3.3-1.7,4.9-.6,1.6-1.4,3.2-2.6,4.8-.1.3-.2.7-.3,1.1,0,.4-.3.9-.6,1.7ZM134.4,73.4c-.1-.7-.4-1.3-.8-1.7-.4-.4-.8-.9-1.1-1.3-.1-.1-.3-.3-.4-.4-.1-.1-.3,0-.6.4.4.5.8,1.1,1.2,1.7.4.6.9,1,1.7,1.4ZM141.3,51.5c-.8-.2-1.5-.1-2,.3-.5.4-1,.9-1.6,1.4.7,0,1.4-.2,1.9-.5.5-.3,1.1-.7,1.6-1.2,1-.3,1.5-.5,1.7-.6.2-.1.6-.5,1.1-1.1-.5.2-1,.4-1.7.5-.6.1-1,.5-1.2,1.3ZM149.2,47.3c0,0-.1-.1-.1-.2-.5.3-1,.5-1.5.8-.4.2-.9.5-1.3.7h0c0,.2.1.3.3.3.3-.1.8-.3,1.3-.5.5-.2,1-.4,1.6-.7l-.3-.3ZM155.9,43.8c-.8,0-1.4.2-1.9.5-.5.3-.9.7-1.3,1.1.6-.1,1.2-.3,1.7-.5.5-.2,1-.6,1.3-1.1.7,0,1.4-.1,1.8-.4.5-.3.9-.7,1.3-1.2-.5.1-1.1.3-1.7.5-.6.2-1,.6-1.4,1.2ZM171.3,32.1c-.9.8-1.7,1.6-2.5,2.4-.8.8-1.6,1.6-2.6,2.3-.8.9-1.6,1.6-2.6,2.2-1,.6-2,1.3-2.9,1.9,1-.3,2.1-.7,3.1-1.1,1.1-.4,2-.9,2.8-1.7.3-.3.6-.5.9-.7.3-.2.5-.4.6-.5,2.2-1,3.3-2.6,3.1-4.9Z"/>
    <path class="st0" d="M194.9,74c-.3.3-.5.5-.6.6-.1.1-.2.2-.3.4-2-1.8-3.7-3.6-5.1-5.6-1.4-2-2.8-4.1-4-6.2-2,.3-3.2,1.2-3.4,2.9-.5,2.4-1.1,4.8-1.6,7.2-.5,2.4-1,4.7-1.3,7.1-.5,1.6-.6,3.1-.5,4.7.1,1.6.5,3.1,1.1,4.6-.7.6-1.2,1-1.6,1.1-.9-.3-1.5-.7-1.9-1.3-.4-.6-.7-1.3-.9-2.2-.1-.7-.2-1.4-.2-2s0-1.3-.2-1.8c0-.6-.1-1.2-.2-1.7,0-.5-.1-1.2-.3-2-.3.5-.5.8-.6,1-.1.2-.2.4-.2.7v2.8c0,.9,0,1.9.2,2.9,0,.3,0,.6.1.9,0,.3.1.7.2,1.1-.5.3-1,.6-1.5.9-.4.3-.9.5-1.5.8-1.9-.4-2.9-1.6-3-3.5,0-1-.1-1.9-.2-2.8,0-.9-.1-1.9-.1-3.1,0-3.2.5-6.4,1.2-9.5.8-3.1,1.5-6.2,2.2-9.3,1.2-4.5,2.4-8.9,3.8-13.3,1.4-4.4,2.9-8.8,4.7-13.2.2-.5.3-1.1.3-1.5s-.2-.9-.5-1.3c-.8-1.1-.5-2.1.6-3.1.5-.7,1-1.1,1.3-1.2.6-.4,1.1-.9,1.6-1.4.4-.5.9-1,1.5-1.6.3-.5.8-1,1.4-1.3.6-.3,1.2-.4,1.8-.1,1.2.3,2.3.4,3.4.1,1.1-.3,2.3-.5,3.5-.8,2.6-.5,5.2-1.1,8-1.6,2.7-.5,5.5-.9,8.3-1.2,1.8-.1,3.5-.2,5.3-.3,1.7,0,3.4,0,5.1.3.9.2,1.7.2,2.5,0-.7-.3-1.4-.6-2.3-.9-.9-.2-1.7-.4-2.5-.4h-5.5c-1.4.1-2.7.3-4.1.5-1.4.2-2.8.3-4.2.5-.8.1-1.3.2-1.6.2-.3,0-1-.3-2-.8.5-.4,1-.6,1.2-.6,2.9-.6,5.8-1.1,8.5-1.3,2.8-.3,5.7-.3,8.7-.2.8.1,1.6.3,2.5.5.8.2,1.6.5,2.2,1,2,1.6,3.7,3.6,5.1,6.1.3.2.5.5.5.9s0,.8.1,1.1c0,.4.1.8.4,1.2.5,0,.8.2,1,.5.2.3.4.6.5,1,.1.4.2.8.3,1.1,0,.4.2.7.4,1,.5.5.7,1.1.4,1.7-.3.6-.7,1.2-1.1,1.7-.7,1.2-1.6,2.2-2.6,3.2-1,1-2.1,1.8-3.2,2.6-1.6,1-3.2,1.9-4.8,2.8-1.6.9-3.3,1.7-5,2.6-2.4,1.3-4.7,2.5-7.1,3.7-2.3,1.2-4.6,2.4-6.8,3.7-.5.2-1.1.4-1.6.6-.5.2-1.1.5-1.7.8.1.3.2.6.2.7s0,.3.1.6c2.5,3.1,5.1,6.1,7.6,9,2.6,3,5.4,5.7,8.4,8.3.8.8,1.7,1.5,2.6,2.2.9.8,1.8,1.4,2.8,1.9.7.5,1.3,1,1.7,1.3.5.3,1,.5,1.4.7.5.1,1,.2,1.6.3.6,0,1.3,0,2.3,0,.1.9.1,1.5,0,1.8-.2.3-.5.6-1.1.9-.4.2-.9.4-1.3.5-.5.1-.9.2-1.2.4-.4.1-.7.3-.9.4-.2.1-.4.2-.7.2,0,.3,0,.6,0,.7.1.1.2.2.4.3.2,0,.3.1.5.2.2,0,.3.2.5.4,0,0,0,.2-.1.3-.1.3-.3.4-.4.4-1.4,1.2-2.6,2.1-3.6,2.7-1.1.6-2,.9-3,1-.9,0-1.9,0-2.8-.5-1-.4-2-.9-3.3-1.6-2-1.2-3.8-2.5-5.4-3.9-1.6-1.4-3.2-2.9-4.8-4.5-1.6-1.9-3.5-4-5.5-6.1ZM188.6,66.2c.1,1,.3,1.5.5,1.7.2.2.7.6,1.5,1.1-.6-1.2-1.3-2.2-1.9-2.9ZM189.6,43.6c3.1-1.2,5.9-2.4,8.4-3.7,2.6-1.3,5.1-2.7,7.6-4,2.6-1.2,5.1-2.6,7.7-4.1,2.5-1.5,5-3.3,7.4-5.5-.5-.1-1-.2-1.4-.3-.4,0-.7,0-1.1,0-1.2,0-2.2,0-3.2,0-1,0-2,0-3.2,0-2.6.3-5.1.7-7.4,1.2-2.4.4-4.7,1-7.1,1.6-.8,0-1.3.3-1.7.6-.4.3-.7,1-.8,1.8-.5,1.6-1.1,3.3-1.7,4.9-.6,1.6-1.4,3.2-2.6,4.8-.1.3-.2.7-.3,1.1,0,.4-.3.9-.6,1.7ZM193.9,73.4c-.1-.7-.4-1.3-.8-1.7-.4-.4-.8-.9-1.1-1.3-.1-.1-.3-.3-.4-.4-.1-.1-.3,0-.6.4.4.5.8,1.1,1.2,1.7.4.6.9,1,1.7,1.4ZM200.7,51.5c-.8-.2-1.5-.1-2,.3-.5.4-1,.9-1.6,1.4.7,0,1.4-.2,1.9-.5.5-.3,1.1-.7,1.6-1.2,1-.3,1.5-.5,1.7-.6.2-.1.6-.5,1.1-1.1-.5.2-1,.4-1.7.5-.6.1-1,.5-1.2,1.3ZM208.7,47.3c0,0-.1-.1-.1-.2-.5.3-1,.5-1.5.8-.4.2-.9.5-1.3.7h0c0,.2.1.3.3.3.3-.1.8-.3,1.3-.5.5-.2,1-.4,1.6-.7l-.3-.3ZM215.4,43.8c-.7,0-1.4.2-1.9.5-.5.3-.9.7-1.3,1.1.6-.1,1.2-.3,1.7-.5s1-.6,1.3-1.1c.7,0,1.4-.1,1.8-.4.5-.3.9-.7,1.3-1.2-.5.1-1.1.3-1.7.5-.6.2-1,.6-1.4,1.2ZM230.8,32.1c-.9.8-1.7,1.6-2.5,2.4-.8.8-1.6,1.6-2.6,2.3-.8.9-1.6,1.6-2.6,2.2-1,.6-2,1.3-2.9,1.9,1-.3,2.1-.7,3.1-1.1,1.1-.4,2-.9,2.8-1.7.3-.3.6-.5.9-.7.3-.2.5-.4.6-.5,2.2-1,3.3-2.6,3.1-4.9Z"/>
    <path class="st0" d="M236.7,89.3c-1.1.2-1.9.2-2.4,0-.5-.2-.9-.7-1.1-1.6-.1-.5-.3-1-.4-1.7-.1-.6-.3-1.3-.6-1.9,0,.8-.1,1.5-.1,2.2s0,1.5-.2,2.2c-.8,0-1.3,0-1.8,0-.4,0-.9,0-1.2-.1-.4-.1-.8-.3-1.2-.6-.4-.3-1-.7-1.7-1.2-.3-1-.4-1.9-.4-2.9,0-1,.2-1.9.4-2.9.4-2.9,1-5.8,1.8-8.5.8-2.7,1.7-5.5,2.7-8.2.7-2.7,1.6-5.3,2.5-7.9.9-2.6,1.8-5.3,2.8-7.9.1-.3.2-.5.2-.8s0-.4.1-.6c-.5-.4-.9-.7-1.4-1-.4-.3-.9-.6-1.4-.9,1.6-4,3.3-8,5.1-12.1,1.7-4,3.5-8,5.3-12,1,0,1.9,0,2.8-.1.9,0,1.8,0,2.6.1.7,0,1.3.2,1.8.6.5.4,1.1,1.1,1.9,2,.3-.2.7-.4,1-.6.3-.2.7,0,1.2.4.3.3.7.7,1.1,1.1.4.4.5.8.5,1.4-.2.5-.4,1-.6,1.5-.2.5-.4.9-.7,1.3-2.9,8-5.7,15.9-8.6,23.7-2.9,7.8-5.3,15.7-7.4,23.7-.7,2.1-1.2,4.2-1.6,6.4-.4,2.1-.7,4.3-.8,6.5Z"/>
    <path class="st0" d="M261.2,50.3c.1-.2.4-.5.7-.8.3-.3.6-.7.7-1,1.2-2.5,2.5-4.9,3.7-7.5,1.2-2.5,2.5-5,3.9-7.4,1.4-2.4,2.8-4.6,4.2-6.7,1.4-2.1,2.9-4.2,4.5-6.4.2-.5.5-1,1-1.5.5-.4.9-.9,1.3-1.4.6.2,1.1.4,1.5.6.4.2.8.4,1.1.6.3.2.6.5,1,.8.4.3.8.8,1.4,1.4-.8,1.6-1.7,3.2-2.8,4.6-1.1,1.4-2.1,3-3,4.6-1.9,3.1-3.7,6.3-5.4,9.4-.9,1.6-1.8,3.3-2.6,5-.9,1.7-1.7,3.3-2.4,5-.8,1.7-1.6,3.4-2.4,5.1-.8,1.7-1.5,3.4-2.4,5.2-.6,1.6-1.3,3.2-2,4.9-.8,1.7-1.3,3.5-1.7,5.4,1.1-.1,2-.3,2.8-.4.8-.1,1.7-.2,2.6-.4,1.4-.2,2.8-.3,4.3-.4,1.5,0,3,.2,4.5.6,1,.3,2,.9,3.1,1.6.5.3,1.1.7,1.5,1.3.5.6,1.2.8,2,.7,0,0,.2,0,.3.2h.1c.7,1.3,1.4,2.5,1.9,3.6.5,1.1.8,2.3.8,3.6s0,.3,0,.5c0,.2-.1.4-.3.5,0,.4-.3.7-.7.9-.4.2-.8,0-1-.4-.3-.5-.6-1.1-.8-1.5-.2-.5-.4-1-.7-1.5-2.9,0-5.7.4-8.4,1.2-2.7.8-5.5,1.8-8.3,3-1.4.5-2.8,1.2-4.2,1.9-1.5.8-2.9,1.4-4.2,2-1.6.8-3.1.6-4.4-.4.1-.3.2-.5.3-.8,0-.3.2-.5.4-.8-.2-.1-.4-.2-.5-.3-.1,0-.3-.1-.4-.3-.5-.1-1-.3-1.5-.6-.5-.2-1-.5-1.6-.8-1-.3-1.6-.7-1.8-1.2-.3-.4-.3-1.1-.2-2.1.1-3.3.6-6.6,1.4-9.8.8-3.2,1.8-6.3,3-9.4,1.4-4.1,3-8.1,4.9-11.9,1.9-3.8,3.9-7.7,6-11.6.7-1.2,1.3-2.5,1.9-3.7.6-1.3,1.1-2.5,1.7-3.7.7-1.5,1.4-2.8,2.1-4,.7-1.2,1.5-2.3,2.5-3.5,0,.5-.2,1.1-.5,1.6s-.6,1.1-.8,1.8c-.3.5-.7,1.1-1.1,1.6-.4.5-.6,1.4-.7,2.5.9-1.4,1.7-2.5,2.3-3.4.6-.9,1.3-1.8,1.9-2.5.7-.9,1.4-1.8,2.1-2.7.7-.9,1.5-1.8,2.1-2.7.7-.7,1.3-1.2,1.6-1.3.1-.1.4-.2.7-.1.3,0,.6.2,1,.3-.2.5-.4.8-.6,1.1-.2.2-.3.4-.4.6-2.9,3.6-5.5,7.3-7.7,11.2-2.2,3.9-4.3,7.8-6.2,11.9-.5,1.1-1,2.1-1.4,3s-.9,1.9-1.4,2.8c-.1.4-.2.8-.3,1.1,0,.3,0,.6,0,1-.8.5-1.2,1.2-1.5,2-.2.8-.6,1.6-1,2.5-.7,1.4-1.3,2.8-1.9,4.2s-1,3-1.1,4.6c-.5.7-1,1.5-1.4,2.4-.4.9-.7,1.8-1,2.7-.3.9-.5,1.8-.6,2.7-.1.9-.2,1.7-.1,2.4.5-1.6,1.1-3.1,1.6-4.6.5-1.5,1-3.1,1.5-4.7.1-.1.2-.3.1-.4,0-.1-.1-.3-.1-.6.3-.4.6-.7.9-.8.7-1.8,1.4-3.6,2.1-5.4.7-1.8,1.5-3.6,2.2-5.4.1-.2.2-.4.1-.7,0-.2,0-.5.1-.9ZM276.4,73.2c-.1,0-.3,0-.6-.1-.2,0-.5-.1-.8-.1-2.5-.1-5,.1-7.6.7-2.5.6-4.9,1.4-7.3,2.5-.2,0-.3.1-.4.4,0,.3-.1.6-.3,1.1,2.9-.7,5.7-1.6,8.4-2.5,2.8-.9,5.5-1.6,8.3-2Z"/>
    <path class="st0" d="M288.7,66.5c-.1.3-.3.6-.5.9-.2.3-.4.6-.5,1-.3,1.4-.9,3.1-1.7,5.3-.1-.4-.2-.7-.3-1,0-.2,0-.5.1-.8.3-1,.5-2,.8-3,.2-1,.5-2.1.8-3.2.2-.8.4-1.6.7-2.3.2-.7.4-1.4.6-2.1,0-.5-.1-.8-.3-.8-.9-.9-1.4-1.5-1.5-2-.1-.4.2-.9,1.1-1.3.3-.1.5-.2.7-.3,1.2-.4,2-1,2.7-1.6.6-.7,1.2-1.6,1.7-2.8,1.9-3.7,4.1-7.4,6.5-10.9,2.4-3.5,5.2-6.8,8.2-9.9,2.7-3.1,5.9-5.7,9.4-7.8,2-1.2,4.1-1.6,6-1.4,2,.2,4,.8,6,1.6,1.3.7,1.8,1.8,1.4,3.4-.1,1-.3,1.9-.5,2.8-.2.9-.4,1.8-.7,2.6-.7,1.9-1.3,3.8-2,5.8-.6,1.9-1.2,3.9-1.8,6-.1.3-.3.8-.4,1.3-.1.5-.3,1.1-.4,1.8.4.5,1,1.3,1.6,2.5-.3.1-.7.2-1.1.3-.4,0-1,.1-1.8.3.5.3,1.1.5,1.6.6.5.1,1,.2,1.4.4.4.1.8.3,1.1.6.3.3.4.7.5,1.3-.5,0-1,0-1.5-.1-.4,0-.9,0-1.5.1-1,0-1.6.1-1.9.3-.3.2-.6.8-.9,1.6-.3,1.2-.7,2.4-1,3.6-.3,1.2-.7,2.4-1,3.6-.4,2-.8,4.1-1.3,6.2-.4,2.1-.9,4.1-1.3,6.1-.1.8-.2,1.4-.3,2.1,0,.6-.1,1.3-.3,2-1.8.6-3,.8-3.6.7-.6-.2-1.4-1-2.4-2.5-.2,1.5-.4,2.9-.5,4.1-.1,1.3-.2,2.5-.2,3.8-.1,0-.3,0-.4.3-.1.2-.2.2-.4,0-.3-.1-.6-.3-.9-.6-.3-.3-.5-.5-.7-.7-.1-.3-.2-.7-.1-1.1,0-.4,0-.8-.1-1.1v-2.6c-.5-.3-1-.3-1.2-.1-.3.2-.4.5-.4.9v4.4h-1.7l-.3-.3c0,0-.1-.1-.2-.1-.4-2.6-.5-5-.2-7.4.3-2.3.7-4.7,1.2-7.3.3-1.6.6-3.3.9-4.9.3-1.6.7-3.2,1-4.8,0-.3,0-.6.2-.9.1-.2.2-.5.2-.7-1.2-.3-2.1-.3-2.8,0-.7.3-1.5.6-2.5.8-.8.1-1.5.3-2.2.5-.8.2-1.5.5-2.2.8-1.2,2.2-2.1,4.4-2.9,6.7-.8,2.3-1.5,4.5-2.4,6.8-.6.1-1.2.3-1.6.4-.5.1-1,.2-1.5.2s-1.1-.2-1.4-.7c-.2-.5-.3-1-.3-1.6.1-1,.3-1.9.4-2.9.1-1,.3-1.9.6-2.9.5-.3.9-.8,1-1.3.1-.5.2-1.2.4-2-.3.5-.5.9-.7,1.1-.2.3-.3.5-.4.7,0,.2-.1.4-.2.6,0,.2,0,.5-.2.8ZM313.7,37.4c-1,.8-2,1.9-3.1,3.1-1.1,1.3-2.1,2.6-3.1,3.9-1,1.4-1.9,2.7-2.7,4-.8,1.3-1.3,2.4-1.6,3.3,1.2-.5,2.3-.8,3.3-1,1.1-.2,2.1-.6,3.1-1.2.7-2,1.3-4,1.9-5.9.6-2,1.3-4.1,2-6.2Z"/>
    <path class="st0" d="M364.7,69.9c-.4-1.6-.5-3.1-.4-4.7.1-1.5.5-3.1,1-4.6v.9c0,.3,0,.7-.2,1.2,0,.6,0,1.3-.1,2,0,.7-.1,1.4-.1,2-.1.5-.2,1-.2,1.5v1.6ZM364.7,69.9c.2,0,.4-.2.6-.3.2-.1.4-.2.7-.4,0-3.7.6-7.2,1.6-10.5,1-3.3,2.1-6.7,3.2-10.1.9-2.9,1.9-5.7,3.1-8.6,1.2-2.9,2.5-5.7,4-8.6.5-.9,1-1.8,1.5-2.6.5-.9,1.1-1.8,1.6-2.8.3-.7.7-1.2,1.3-1.6.6-.4,1.2-.7,2-1,.1,0,.4,0,.7,0,.3,0,.6.1.8.3.4.1.8.2,1.2.3.4,0,.6.4.8.9,0,.4.2.5.5.3.6-.3,1.1-.3,1.4.1.3.4.7.7,1.2.8-.5,1.3-1.1,2.5-1.6,3.7-.5,1.2-1.1,2.4-1.6,3.5-.1,0-.3,0-.4-.1-.1,0-.3-.1-.6-.2-2.3,3.9-4.1,7.9-5.4,12-1.3,4.1-2.3,8.3-3.2,12.6,3.3-3.9,6.7-7.6,10.3-11.2,2.4-2.7,4.6-4.9,6.7-6.6,2.1-1.8,3.7-2.9,4.8-3.5-4,4.2-7.9,8.3-11.8,12.3-3.9,4.1-7.7,8.3-11.3,12.6v.3c0,0,0,.2.2.5.3-.2.5-.4.8-.5.2-.1.4-.3.6-.4,2.9-3.1,5.6-6.1,8.2-9,2.6-2.9,5.3-5.8,8.1-8.7,1.8-1.8,3.5-3.7,5.2-5.6,1.7-1.9,3.3-3.9,4.9-5.9.7-.8,1.6-1.5,2.5-2.2.9-.6,1.9-1.1,3.2-1.3.8-.1,1.6-.2,2.2,0,.7.1,1.3.3,1.9.5.3.1.6.3.9.4.2.1.5.3.9.4.5.3.9.6,1,1.1.1.4,0,.8-.3,1.2-.1.4-.3.7-.5,1-.2.2-.4.5-.7.9-3.4,3.7-6.4,7.6-9,11.9-2.6,4.2-5.1,8.6-7.3,13.1-.2.3-.3.7-.4,1.1,0,.4-.1.8-.3,1.1h.2c-.3.1-.5.3-.8.5-.3.2-.4.4-.5.6-1,2-1.9,3.9-2.8,5.8-.9,1.9-1.7,3.7-2.5,5.6-.1.3-.2.7-.2,1v1c-.8.3-1.2.8-1.3,1.2-.1.5-.2,1.1-.2,1.7h.1c-.1,0-.3.2-.5.4-.2.2-.4.4-.5.6-1.2,2.9-2.2,5.7-3.2,8.5-1,2.8-1.8,5.7-2.5,8.7-.5,1.8-.9,3.5-1,5.2-.1,1.7.4,3.4,1.4,5.1-.8.3-1.4.5-2.1.5h-2c-.8,0-1.3-.3-1.5-.8-.3-.5-.6-.8-1.1-.8-.3-1.4-.5-2.8-.7-4.1-.2-1.3-.2-2.6-.1-3.9h-.1c0,0-.1,0-.2,0,0,0,0,0-.2,0,0,.9,0,1.7-.2,2.5-.1.7-.2,1.6-.2,2.6s.1,1,.3,1.6c.2.6.6,1.1,1.2,1.5-.3.1-.5.3-.8.4-.3.1-.6,0-1-.4-.5-.3-.9-.7-1.2-1.1-.2-.4-.5-.9-.7-1.4-.7-2-.8-4-.3-6.1.3-2.6.9-5.1,1.5-7.5.7-2.4,1.5-4.9,2.5-7.3.6-2.1,1.4-4.2,2.2-6.3.9-2.1,1.7-4.3,2.5-6.4.2-.6.5-1.3.9-2.1-.8,0-1.2.1-1.3.5-.5.4-.9.9-1.3,1.4-1.8,2-3.7,3.1-5.7,3.3-2,.2-4.2-.2-6.6-1.1-.6-.3-1.3-.5-1.9-.8-.7-.3-1.3-.5-1.9-.7ZM398.7,61c.6-.5,1.1-1,1.3-1.6.5-1,1.1-1.9,1.6-2.8.5-.9,1-1.8,1.6-2.7.1-.3.3-.6.5-.8.2-.2.6-.4,1.1-.5-.1.1-.2.4-.3.7,0,.3-.1.5-.3.7-1,2.2-2,4.3-3,6.4-1.1,2.1-2.1,4.3-3.2,6.4-2.1,4.3-4.1,8.6-5.9,12.9s-3.5,8.7-5,13.2c-.1.2-.3.4-.5.7-.2.3-.4.5-.8.7.1-.3.2-.6.3-.8,0-.2.1-.5.3-.8.5-2,1.2-4,1.8-5.9.7-2,1.4-3.9,2-5.8.1-.5.2-.9.3-1.3,0-.4.1-.8.2-1.2h-.1c.5-.3.9-.8,1.1-1.3.2-.5.3-1,.3-1.6.2,0,.3-.2.3-.4,1-2.2,2-4.3,3.1-6.4,1-2.1,2-4.3,2.9-6.4.1-.2.2-.4.3-.6,0-.2.1-.4.3-.5h-.2Z"/>
    <path class="st0" d="M487.4,85.2c-.5-.3-1-.7-1.3-1.2-.3-.5-.6-1.1-.8-1.7-.6-1.2-1.1-2.3-1.3-3.4-.3-1.1-.4-2.3-.5-3.5-.3-2.6-.5-5.2-.5-7.7,0-2.6.2-5.1.6-7.6.1-1,.2-1.9.3-2.8,0-.9.1-1.8.1-2.8-.3.4-.5.8-.8,1-.2.3-.5.6-.7.9-1.2,1.8-2.3,3.7-3.5,5.6-1.2,1.9-2.3,3.7-3.4,5.5-.5.6-.9,1.2-1.4,1.8-.4.6-.9,1.2-1.3,1.9-.2.1-.3.3-.4.6,0,.3-.2.6-.3.9-.4.2-.8.4-1.1.5-.3.1-.8,0-1.3,0-.3,0-.7,0-1,.1s-.7.1-1.1.1c-1.3.1-2.6-.1-4-.8-1.4-.7-2.3-1.7-2.6-3.1-.1-.3-.3-.7-.5-1.2-.2-.4-.4-.9-.5-1.3-.1-.7-.3-1.5-.4-2.2-.1-.7-.2-1.4-.2-2.1-.1-1.4-.2-2.7-.3-4,0-1.3-.1-2.6-.3-3.9,0-.5,0-1.1.1-1.6,0-.5,0-1.2-.1-1.8-.1.1-.3.4-.4.7-.1.3-.2.5-.2.7-.1.8-.2,1.5-.2,2.3v4.1c0,.6,0,1.1-.2,1.7-.1-1-.2-1.9-.3-2.8,0-.9-.1-1.8-.3-2.8h-.3c-.4.5-.8,1.3-1,2.1-1,2.2-1.9,4.4-2.8,6.6-.9,2.1-1.8,4.4-2.8,6.8-1.3,2.7-2.6,5.7-3.8,8.8-.3.6-.8,1.2-1.2,1.6-.4.7-.9,1.2-1.4,1.4-1.2,0-2.4.1-3.6.4-1.2.3-2.5.1-3.8-.4,0,0,0-.1-.1-.2,0,0-.1-.1-.2-.2,0,0,0-.1-.2-.2,1.4-2.2,2.4-4.5,3.2-6.9.8-2.4,1.7-4.9,2.6-7.3,2.3-5.9,4.7-11.8,7.1-17.6,2.4-5.8,5.1-11.6,7.9-17.3,1.1-1.8,2-3.7,2.7-5.6.3-.5.6-1.1.7-1.5.1-.5.2-.9.4-1.3-4.2,7.8-8.1,15.6-11.6,23.6-3.5,7.9-6.8,16-10,24.3.1-.3.2-.7.3-1.1,0-.4.1-.7.2-1.1,2-6.1,4.1-12,6.4-17.8,2.3-5.8,4.7-11.5,7.3-17.3,1.2-2.5,2.3-5,3.4-7.4,1.1-2.4,2.2-4.8,3.4-7.3.3-.5.6-1.1.9-1.6.2-.5.6-1,1.2-1.3.5,0,.9.2.9.5,0,.3.2.7.3,1.1.1-.1.2-.2.3-.2,0,0,0,0,0-.2.4-.3.8-.6,1.1-.9.3-.3.6-.6.9-.7.7,0,1.4.2,2,.3.6.1.9.7,1,1.6.7-.8,1.4-1.4,2.1-1.7.7-.3,1.6-.2,2.5.5.7,1.1.7,2.2.2,3.4-.8,2.3-1.5,4.7-1.9,7.1-.5,2.4-1,4.8-1.5,7.3-.5,2.6-.9,5.2-1.1,7.9-.2,2.7-.4,5.3-.5,8,0,2.2,0,4.4,0,6.6,0,2.2,0,4.5.4,6.9.1-.2.3-.4.5-.5.2-.1.3-.3.4-.4,1.7-2.9,3.4-5.7,5-8.5,1.6-2.8,3.3-5.6,5.1-8.5,3-4.8,6.2-9.2,9.5-13.4.7-.7,1.3-1.5,1.9-2.2.6-.7,1.2-1.4,1.8-2.2.7-.8,1.5-1.3,2.3-1.4.8-.1,1.7,0,2.6.3.3.1.5.2.8.2s.6,0,.9.2c.5,0,1.1.1,1.7.3.6.2,1.1.5,1.7.8.3,0,.5.2.6.5,0,.3,0,.5,0,.8-.1.6-.3,1.1-.5,1.6-.2.4-.4,1-.6,1.6-.7,2-1.4,4-2.1,6-.8,2-1.4,4.1-2,6.3-1.4,4.5-2.4,8.9-3.2,13.3-.8,4.4-1,8.9-.8,13.6,0,1.3,0,2.5.3,3.7.2,1.2.4,2.3.8,3.4.1.4.3.9.5,1.3.2.5.4.9.6,1.3.4,1.3,1.3,2.1,2.8,2.5.4,0,.7.2.9.3.2.1.5.3.8.4-.1.5-.3.9-.6,1.1-.3.2-.5.3-.8.3-1.2,0-2.3.2-3.5.4-1.2.2-2.4.1-3.7-.2-1-.3-1.9-.6-2.8-1-.9-.4-1.7-.9-2.6-1.7.3-.2.5-.4.5-.6,0-.2,0-.4-.2-.8-1-1.8-1.7-3.6-2.1-5.5-.4-1.9-.5-3.8-.4-5.8v-10.3c0-.6.1-1.2.2-1.7,0-.5.1-1.1.2-1.7.1-.5.2-.9.3-1.3,0-.4,0-.9,0-1.3-.1.3-.2.7-.3,1.1,0,.4,0,.7,0,.9,0,.3.1.6.3.7-.2.2-.4.4-.5.5-.1.1-.2.3-.2.5v2.5c-.3.5-.5,1-.6,1.4-.1,1.1-.2,2.1-.3,3.2,0,1,0,2,0,3.1,0,1.3,0,2.6,0,3.8,0,1.3.1,2.5.3,3.8.1,1.4.4,2.7.9,3.9.4,1.2,1,2.5,1.8,3.8ZM464.9,67c-.2-2.3-.4-4.6-.6-6.8-.2-2.2-.2-4.5-.1-6.6.1-2.2.3-4.5.5-6.8.2-2.3.3-4.8.5-7.4-.4,1.6-.7,3.6-1,6.1-.2,2.5-.4,5.1-.4,7.8s0,5.3.3,7.8c.2,2.5.5,4.5.9,6ZM490.3,67.3v-.8c0-.5,0-.7-.1-.8h-.3v1.6h.4ZM490.5,77.2c-.1.5-.2,1.1-.1,1.6,0,.5.4,1.1.9,1.7-.1-.7-.3-1.4-.4-1.8-.1-.5-.3-1-.4-1.4,0-1,0-1.8-.1-2.7,0-.8-.1-1.6-.1-2.5-.4,1.4-.4,3-.1,4.6l.3.4Z"/>
    <path class="st0" d="M512.2,81.4c.4,0,.7,0,1,0,.3,0,.5,0,.8,0,3.3-1.4,6.5-2.7,9.8-3.9,3.3-1.2,6.6-2.4,9.9-3.6,5.3-2.1,10.6-4.1,15.9-5.8.4-.1.9-.3,1.4-.4.5-.1,1-.2,1.4-.2s.7,0,1,.1c.3,0,.5.2.8.3.2.1.5.4.8.7.3.3.6.7,1.1,1.1-.3.7-.4,1.1-.5,1.1-.1.3-.3.6-.4.8-.1.2-.2.5-.4.8h1.9c1-.1,1.7,0,2.1.5.5.4.9,1.1,1.2,2.1.1.3.2.8.3,1.2,0,.5.1.9.3,1.3-.5,0-1.1,0-1.5,0-.5.1-.9.4-1.2,1-1.2,1.4-2.3,1.4-3.5.1,0,0-.1,0-.2-.1h-.1c-3.5.5-6.8,1.4-10.1,2.7-3.2,1.2-6.5,2.4-9.8,3.6-2.8,1.2-5.6,2.4-8.4,3.5-2.8,1.1-5.7,1.9-8.5,2.5-1.2.3-2.3.5-3.4.7-1.1.2-2.3.1-3.4-.2-1.1-.3-2-.9-2.9-1.5-.8-.7-1.5-1.6-2-2.8-.1-.2-.3-.4-.5-.5-.2-.1-.3-.4-.5-.7-.3-.2-.6-.4-.9-.7s-.6-.4-1-.6c-1.4-1.9-1.7-4-.7-6.2.3-1,.8-1.8,1.3-2.6.5-.7,1-1.4,1.6-2,3-3.3,6.1-6.1,9.4-8.5.3-.3.7-.6,1.1-.9.4-.3.7-.6,1.1-.9,0-.5-.1-.7-.3-.7s-.4,0-.5-.2c-1.2-.4-2.1-1.1-2.8-2.1-.7-1-1.3-2.1-1.8-3.3-.1-.4-.4-.9-.8-1.6-.4-.6-.8-1.3-1.2-2-.4-.7-.7-1.4-1-2.1-.3-.7-.3-1.2-.2-1.6.3-1.1.6-2.1,1-3,.4-.9.9-1.9,1.4-2.9,2-3.5,4.5-6.7,7.3-9.6,2.8-2.8,5.8-5.3,9-7.4,3.2-2.1,6.6-3.9,10.2-5.3,3.6-1.4,7.2-2.4,10.8-3,.6-.1,1.2,0,1.8.2.6.3,1.2.6,1.9,1,.6.4,1.3.8,1.9,1.3.6.4,1.2.8,1.8,1,.5-.2.8-.5,1.1-.9.2-.4.6-.8,1-1.1.7-.7,1.4-1.5,2.1-2.1.6-.7,1.3-1.3,2.1-1.8,1.2-.8,2.1-1.2,2.9-1,.7.1,1.7.9,2.9,2.1-.1.5-.3,1-.4,1.3-.1.3-.3.8-.4,1.3-.3,0-.5,0-.7-.2-.2-.1-.4-.2-.7-.3-.3.3-.7.6-1.1.9-.4.2-.7.5-.9.9-.1.1-.3.3-.4.4s-.3.2-.5.3c.2.8.5,1.3.9,1.7.4.4.8.9,1.2,1.5,1-.7,1.8-1.5,2.5-2.3.7-.8,1.7-1.3,2.8-1.7,0,.4,0,.7-.3.9-.2.2-.4.4-.6.5-.9,1-1.8,2-2.7,3-.9,1-1.8,2-2.8,3.1-1,1.2-2,2.4-2.9,3.6-.9,1.3-1.8,2.6-2.8,3.9-.7,1-1.3,2-1.9,3.1-.6,1.1-.9,2.5-1.1,4-.3-.3-.5-.6-.6-.9,0-.3,0-.6,0-1,0-.3.1-.7.2-1,0-.3,0-.6-.1-.8-.3-.4-.6-.6-.9-.7-.3,0-.5,0-.8.2-.2.2-.5.4-.7.6-.2.2-.4.4-.7.5-.7-.5-1.2-.9-1.5-1.2-.3-.3-.5-.7-.6-1.2-.1-.5-.1-1.1-.1-1.8,0-.7,0-1.7.2-3-1.1.1-2.1.4-3.1.8-1,.4-2,.8-3.1,1.3-3.9,2.1-7.5,4.5-10.8,7.3-3.3,2.8-6.5,6-9.6,9.8-.7.8-1.3,1.7-1.9,2.6-.6.9-1.1,1.9-1.4,3.1l.6.4c2.1-.1,4.2-.4,6.1-.7,2-.3,4-1,5.9-2,2.5-1.3,5.1-2.4,7.9-3.3.3-.3.7-.4,1-.4.5,0,1,0,1.4.2.4.1.7.5.9,1,.3.9.8,1.6,1.3,2.1.5.5,1.1.9,1.8.9.2,0,.4.3.6,1-.1.1-.3.3-.4.5-.1.2-.2.3-.3.5-.4.3-.8.6-1.2.9-.4.3-.8.5-1.2.8-.2.1-.4.3-.5.4-.1.1-.2.2-.4.2-.8.1-1.4.4-2,.8-.6.4-1.3.8-2,1.4-3.3,1.6-6.5,3.3-9.6,5.3-3.1,1.9-6.1,4.2-9,6.7-1.2,1-2.4,2-3.5,3.1-1.1,1.1-2.2,2.1-3.3,3.2-.2.1-.4.3-.5.5-.1.2-.3.5-.6.8ZM541.3,29.2c-1,.1-2.4.6-4,1.5-1.7.9-3.3,1.9-5,3.1-1.7,1.2-3.2,2.5-4.7,3.9-1.4,1.4-2.4,2.6-3,3.6,2.9-2.6,5.6-4.8,8.3-6.7,2.7-1.9,5.5-3.7,8.3-5.3ZM527.9,63.7c-.7,0-1.2.2-1.6.6s-.7.7-1.1,1c.5,0,.9-.1,1.3-.3s.8-.6,1.4-1.2ZM530.2,62.5c.3-.3.7-.4,1-.5.3,0,.7-.2,1-.3-.9-.5-1.6-.3-2,.8ZM540.3,75.2c.3,0,.6,0,.7,0,.1,0,.3,0,.5,0,1.5-.3,2.9-.6,4.3-.9,1.4-.3,2.8-.7,4.3-1,.5-.1,1-.4,1.4-.9.4-.5.7-1,1.1-1.5-1,0-2.6.3-5,1-2.4.8-4.8,1.8-7.3,3.3ZM558.3,32.1c.5-.5,1-1,1.4-1.6.4-.6.8-1.1,1.1-1.7-.5.3-1,.5-1.2.7-.3.2-.5.4-.6.6-.1.2-.3.5-.4.8-.1.3-.2.7-.4,1.3Z"/>
    <path class="st0" d="M568.1,75.6c2.1-.3,4.6-1,7.4-2.1,2.8-1.2,5.6-2.6,8.5-4.2,2.9-1.7,5.6-3.5,8.1-5.5,2.5-2,4.6-4,6.1-6,.5-.7,1-1.4,1.5-2,.4-.7.8-1.5,1-2.5-.5,0-.9,0-1.3-.1-.4,0-.9,0-1.4.1-2.6.3-5.2.6-7.9.8-2.7.2-5.4.5-8.2,1-2.2.3-4.1.1-5.8-.6-1.7-.7-3.3-1.6-4.8-2.6-.3-.3-.6-.7-.9-1-.2-.3-.4-.6-.6-.8,0-.6-.1-1.1-.3-1.5s-.5-.8-.8-1.1c-.8-1-1.1-2-1-3.1s.6-2.2,1.6-3.2c1.8-2,3.6-4,5.6-6,1.9-2,4-3.8,6.2-5.5,1.6-1,3.1-1.9,4.6-2.8,1.5-.9,3-1.8,4.6-2.6,1.6-.6,3.1-1.1,4.7-1.5,1.6-.4,3.1-.9,4.7-1.4,1.9-.8,3.7-1.2,5.4-1.2s4.3.4,6,1.3c1.7.9,2.9,2.4,3.6,4.5.1.5.5,1,1,1.5.5.4,1.1.9,1.6,1.5-.4.5-.7,1-.8,1.6-.1.6-.3,1.2-.5,1.7-.2.6-.4,1.2-.7,1.8s-.8,1.2-1.4,1.6c-.8-1-1.6-2-2.6-2.8-1-.9-1.6-1.9-1.9-3.1-1.8.2-3.9.8-6.4,1.8-2.5,1-5,2.2-7.5,3.7-2.5,1.4-4.8,3-7.1,4.7-2.2,1.7-3.9,3.3-5,4.8.4,0,.8,0,1.3.1.4,0,.9,0,1.4-.1,2-.5,3.9-.7,5.9-.6,1.9,0,3.9.3,5.8.6,4.4.5,7.4,2.7,9,6.3.3.9.8,1.7,1.6,2.4.7.6,1.3,1.3,1.5,2.2.3.9.4,1.8.4,2.8-.1,1.4-.5,2.7-1,4s-1.2,2.6-2,3.8c-1,1.6-2.2,3.2-3.7,4.6-1.4,1.5-2.9,2.8-4.3,4.1-3.1,2.2-6.3,4.2-9.6,5.8-3.2,1.6-6.7,2.9-10.4,3.8-1.4.4-2.9.6-4.3.6-1.4,0-2.8-.3-4.1-.8-1.3-.5-2.5-1.1-3.5-1.9-1-.8-1.8-1.8-2.5-3-.3-.5-.6-1-.9-1.4-.3-.5-.6-1-.8-1.5-.2-.5-.4-1.1-.6-1.8-.2-.6-.2-1.3-.2-2.1.5.2.9.3,1.3.4.4,0,.7.1,1,.3.5.3,1,.8,1.4,1.2.4.5.9.9,1.5,1.2ZM570.4,80.4c.7,0,1.4,0,1.9,0,.5,0,1-.1,1.5-.2.4-.1.9-.3,1.4-.5.5-.2,1-.6,1.5-1-1,.2-2,.4-3.1.7-1,.3-2.1.6-3.3,1ZM600.6,48.8c-1.8-.6-3.5-1-5.3-1-1.8,0-3.5,0-5.3.2-1.8.2-3.6.4-5.4.7-1.8.3-3.6.5-5.4.6-.3,0-.6.1-.9.4-.3.2-.5.4-.7.6,3.9-.3,7.7-.7,11.5-1.1,3.8-.4,7.6-.5,11.4-.4ZM578.5,53.9c-.1,0-.2,0-.2.2h3.7v-.2h-3.5ZM588.8,36.3c0-.2-.2-.4-.3-.5-.8.8-1.7,1.4-2.6,2s-1.8,1.2-2.6,1.7c-.9.8-1.6,1.4-2,1.9-.5.4-.9.8-1.1,1.1-.3.3-.5.6-.6.9-.1.3-.2.6-.3,1,1.6-1.4,3.2-2.7,4.9-4.1,1.7-1.4,3.2-2.7,4.6-4.1ZM593.5,33.8c-.5,0-1.1,0-1.6.2-.5.1-.9.6-1.3,1.3.6-.3,1.2-.5,1.6-.8.5-.3.9-.5,1.2-.7ZM598.9,26.4c1.8-.5,3.7-1,5.6-1.4,1.9-.4,3.8-.5,5.6-.4-.3-.5-.8-.9-1.3-1s-1.1,0-1.6,0c-1.4.1-2.7.4-4.1.8-1.4.4-2.8,1-4.1,1.9ZM605,65.2c2.5-2.5,3.8-4.9,4-7.3,0-.1,0-.3-.2-.6-.2-.3-.3-.5-.5-.6-.5,1.4-1.1,2.7-1.6,4.1-.5,1.4-1.1,2.8-1.7,4.4Z"/>
    <path class="st0" d="M617,66.5c-.1.3-.3.6-.5.9-.2.3-.4.6-.5,1-.3,1.4-.9,3.1-1.7,5.3-.1-.4-.2-.7-.3-1,0-.2,0-.5.1-.8.3-1,.5-2,.8-3,.2-1,.5-2.1.8-3.2.2-.8.4-1.6.7-2.3.2-.7.4-1.4.6-2.1,0-.5-.1-.8-.3-.8-.9-.9-1.4-1.5-1.5-2-.1-.4.2-.9,1.1-1.3.3-.1.5-.2.7-.3,1.2-.4,2-1,2.7-1.6.6-.7,1.2-1.6,1.7-2.8,1.9-3.7,4.1-7.4,6.5-10.9,2.4-3.5,5.2-6.8,8.2-9.9,2.7-3.1,5.9-5.7,9.4-7.8,2-1.2,4.1-1.6,6-1.4,2,.2,4,.8,6,1.6,1.3.7,1.8,1.8,1.4,3.4-.1,1-.3,1.9-.5,2.8-.2.9-.4,1.8-.7,2.6-.7,1.9-1.3,3.8-2,5.8-.6,1.9-1.2,3.9-1.8,6-.1.3-.3.8-.4,1.3-.1.5-.3,1.1-.4,1.8.4.5,1,1.3,1.6,2.5-.3.1-.7.2-1.1.3-.4,0-1,.1-1.8.3.5.3,1.1.5,1.6.6.5.1,1,.2,1.4.4.4.1.8.3,1.1.6.3.3.4.7.5,1.3-.5,0-1,0-1.5-.1-.4,0-.9,0-1.5.1-1,0-1.6.1-1.9.3-.3.2-.6.8-.9,1.6-.3,1.2-.7,2.4-1,3.6-.3,1.2-.7,2.4-1,3.6-.4,2-.8,4.1-1.3,6.2-.4,2.1-.9,4.1-1.3,6.1-.1.8-.2,1.4-.3,2.1,0,.6-.1,1.3-.3,2-1.8.6-3,.8-3.6.7-.6-.2-1.4-1-2.4-2.5-.2,1.5-.4,2.9-.5,4.1-.1,1.3-.2,2.5-.2,3.8-.1,0-.3,0-.4.3-.1.2-.2.2-.4,0-.3-.1-.6-.3-.9-.6-.3-.3-.5-.5-.7-.7-.1-.3-.2-.7-.1-1.1,0-.4,0-.8-.1-1.1v-2.6c-.5-.3-1-.3-1.2-.1-.3.2-.4.5-.4.9v4.4h-1.7l-.3-.3c0,0-.1-.1-.2-.1-.4-2.6-.5-5-.2-7.4.3-2.3.7-4.7,1.2-7.3.3-1.6.6-3.3.9-4.9.3-1.6.7-3.2,1-4.8,0-.3,0-.6.2-.9.1-.2.2-.5.2-.7-1.2-.3-2.1-.3-2.8,0-.7.3-1.5.6-2.5.8-.8.1-1.5.3-2.2.5-.8.2-1.5.5-2.2.8-1.2,2.2-2.1,4.4-2.9,6.7-.8,2.3-1.5,4.5-2.4,6.8-.6.1-1.2.3-1.6.4-.5.1-1,.2-1.5.2s-1.1-.2-1.4-.7c-.2-.5-.3-1-.3-1.6.1-1,.3-1.9.4-2.9.1-1,.3-1.9.6-2.9.5-.3.9-.8,1-1.3.1-.5.2-1.2.4-2-.3.5-.5.9-.7,1.1-.2.3-.3.5-.4.7,0,.2-.1.4-.2.6,0,.2,0,.5-.2.8ZM641.9,37.4c-1,.8-2,1.9-3.1,3.1-1.1,1.3-2.1,2.6-3.1,3.9-1,1.4-1.9,2.7-2.7,4-.8,1.3-1.3,2.4-1.6,3.3,1.2-.5,2.3-.8,3.3-1,1.1-.2,2.1-.6,3.1-1.2.7-2,1.3-4,1.9-5.9.6-2,1.3-4.1,2-6.2Z"/>
  </g>
</svg>