<?xml version="1.0" encoding="UTF-8"?>
<svg id="Capa_1" xmlns="http://www.w3.org/2000/svg" version="1.1" viewBox="0 0 60 55">
  <!-- Generator: Adobe Illustrator 29.0.0, SVG Export Plug-In . SVG Version: 2.1.0 Build 186)  -->
  <defs>
    <style>
      .st0 {
        fill: #f4b30c;
      }
    </style>
  </defs>
  <polygon class="st0" points="48.3 5.5 35.7 5.5 40.4 11.4 46.8 11.4 54.1 18.7 54.1 46.5 7.3 46.5 7.3 25.7 1.5 18.8 1.5 52.4 60 52.4 60 17.3 48.3 5.5"/>
  <polygon class="st0" points="48.3 20.2 35.4 20.2 31.7 24.6 48.3 24.6 48.3 20.2"/>
  <path class="st0" d="M38,12.9l-7.3-10.2H7.3L0,12.9l19,22s19-22,19-22ZM28.5,7l3.1,4.4h-5.1l-2.9-4.4s4.9,0,4.9,0ZM26.7,14.3h4.5l-8,11s3.5-11,3.5-11ZM18.2,7h1.6l1.9,4.4h-5.3l1.9-4.4h-.1ZM9.6,7h4.9l-2.9,4.4h-5.1s3.1-4.4,3.1-4.4ZM6.8,14.3h4.5l3.5,11L6.8,14.3ZM22.2,14.3l-3.2,12.6-3.2-12.6h6.4Z"/>
  <rect class="st0" x="13.2" y="37.7" width="35.1" height="4.4"/>
  <polygon class="st0" points="48.3 29 27.9 29 27.8 29.1 27.8 33.4 48.3 33.4 48.3 29"/>
</svg>