<?xml version="1.0" encoding="UTF-8"?>
<svg id="Capa_1" xmlns="http://www.w3.org/2000/svg" version="1.1" viewBox="0 0 60 55">
  <!-- Generator: Adobe Illustrator 29.0.0, SVG Export Plug-In . SVG Version: 2.1.0 Build 186)  -->
  <rect x="36" y="40.8" width="3.9" height="5.3"/>
  <rect x="20" y="40.8" width="3.9" height="5.3"/>
  <path d="M41,22.7c-1.5,0-2.6,1.2-2.6,2.6s1.2,2.6,2.6,2.6h0c1.5,0,2.6-1.2,2.6-2.6s-1.2-2.6-2.6-2.6Z"/>
  <path d="M19,22.7c-1.5,0-2.6,1.2-2.6,2.6s1.2,2.6,2.6,2.6h0c1.5,0,2.6-1.2,2.6-2.6s-1.2-2.6-2.6-2.6Z"/>
  <path d="M53.2,7.3c-3.3,0-6.1,2-7.3,4.8-.5-.5-1.1-.9-1.7-1.2,0-.5-.8-2.7-1.6-4.9-1.6-4.4-2.8-6-4.6-6s-3,1.7-4.6,6.1c-.5,1.4-.9,2.7-1.2,3.7h-4.6c-.3-1-.7-2.3-1.2-3.7-1.6-4.5-2.8-6.1-4.5-6.1h0c-1.7,0-3,1.7-4.6,6.1-.8,2.1-1.4,4.2-1.5,4.8-.6.3-1.2.7-1.7,1.2-1.2-2.8-4-4.8-7.3-4.8H1.3v5.5c0,4.4,3.6,7.9,7.9,7.9h1.8v10.4c0,2.5,1.2,4.8,3.1,6.3-.4,1.1-.7,2.2-.7,3.5v4.9c0,5.1,4.1,9.2,9.2,9.2h14.7c5.1,0,9.2-4.1,9.2-9.2v-4.9c0-1.2-.2-2.4-.7-3.5,1.9-1.5,3.1-3.8,3.1-6.3v-10.4h1.8c4.4,0,7.9-3.6,7.9-7.9v-5.5h-5.5.1ZM11.1,17.1h-1.8c-2.4,0-4.3-1.9-4.3-4.3v-1.8h1.8c2.4,0,4.3,1.9,4.3,4.3v1.8ZM38.1,4.5c.6,1.2,1.3,3.1,2,5.2h-4c.7-2.1,1.4-4.1,2-5.2ZM21.9,4.5c.6,1.2,1.3,3.1,2,5.2h-4c.7-2.1,1.4-4.1,2-5.2ZM20.2,13.4h19.6c2.4,0,4.4,1.5,5.2,3.7h-4c-4.4,0-7.9,3.6-7.9,7.9v6.7h-6.1v-6.7c0-4.4-3.6-7.9-7.9-7.9h-4c.8-2.1,2.8-3.7,5.2-3.7h-.1ZM14.7,31.2v-10.4h4.3c2.4,0,4.3,1.9,4.3,4.3v6.7h-.6c-2.5,0-4.8,1-6.4,2.6-.9-.8-1.5-2-1.5-3.3h0ZM42.8,45.8c0,3-2.5,5.5-5.5,5.5h-14.7c-3,0-5.5-2.5-5.5-5.5v-4.9c0-3,2.5-5.5,5.5-5.5h14.7c3,0,5.5,2.5,5.5,5.5v4.9h0ZM45.3,31.2c0,1.3-.6,2.5-1.5,3.3-1.7-1.6-3.9-2.6-6.4-2.6h-.6v-6.7c0-2.4,1.9-4.3,4.3-4.3h4.3v10.4h0ZM55.1,12.8c0,2.4-1.9,4.3-4.3,4.3h-1.8v-1.8c0-2.4,1.9-4.3,4.3-4.3h1.8v1.8Z"/>
</svg>