<?xml version="1.0" encoding="UTF-8"?>
<svg id="Capa_1" xmlns="http://www.w3.org/2000/svg" version="1.1" viewBox="0 0 60 55">
  <!-- Generator: Adobe Illustrator 29.0.0, SVG Export Plug-In . SVG Version: 2.1.0 Build 186)  -->
  <path d="M37.5,16.4V4.9h2.5c1.4,0,2.5-1.1,2.5-2.5S41.4,0,40,0h-20.1c-1.4,0-2.5,1.1-2.5,2.5s1.1,2.5,2.5,2.5h2.5v11.5c-7.3,3-12.5,10.2-12.5,18.6s9,20.1,20.1,20.1,20.1-9,20.1-20.1-5.2-15.6-12.5-18.6ZM24.4,21.1l1.6-.6c.9-.4,1.6-1.3,1.6-2.3V4.9h5v13.2c0,1,.6,1.9,1.6,2.3l1.6.6c2.2.9,4.1,2.2,5.6,3.9h-22.4c1.5-1.7,3.4-3.1,5.6-3.9ZM30,50.1c-8.3,0-15-6.7-15-15s.3-3.4.9-5h28.4c.6,1.6.9,3.3.9,5,0,8.3-6.7,15-15,15Z"/>
  <rect x=".6" y="25" width="58.8" height="5" transform="translate(28.2 -13.2) rotate(45)"/>
  <circle cx="23.1" cy="35.5" r="2.8"/>
  <circle cx="28.3" cy="41.8" r="1.7"/>
</svg>