<?xml version="1.0" encoding="UTF-8"?>
<svg id="Capa_1" xmlns="http://www.w3.org/2000/svg" version="1.1" viewBox="0 0 46 42">
  <!-- Generator: Adobe Illustrator 29.0.0, SVG Export Plug-In . SVG Version: 2.1.0 Build 186)  -->
  <defs>
    <style>
      .st0 {
        fill: #f4b30c;
      }
    </style>
  </defs>
  <rect class="st0" x="27.5" y="31.2" width="3" height="4"/>
  <rect class="st0" x="15.5" y="31.2" width="3" height="4"/>
  <path class="st0" d="M31.4,17.3c-1.1,0-2,.9-2,2,0,1.1.9,2,2,2h0c1.1,0,2-.9,2-2s-.9-2-2-2Z"/>
  <path class="st0" d="M14.6,17.3c-1.1,0-2,.9-2,2,0,1.1.9,2,2,2h0c1.1,0,2-.9,2-2,0-1.1-.9-2-2-2Z"/>
  <path class="st0" d="M40.7,5.6c-2.5,0-4.6,1.5-5.6,3.7-.4-.3-.8-.7-1.3-.9-.1-.4-.6-2.1-1.2-3.7C31.4,1.2,30.5,0,29.1,0c-1.3,0-2.3,1.3-3.5,4.7-.4,1-.7,2.1-.9,2.8h-3.5c-.2-.7-.6-1.8-.9-2.8C19.1,1.3,18.1,0,16.8,0h0c-1.3,0-2.3,1.3-3.5,4.7-.6,1.6-1,3.2-1.2,3.7-.5.3-.9.6-1.3.9-.9-2.2-3.1-3.7-5.6-3.7H1.1v4.2c0,3.3,2.7,6.1,6.1,6.1h1.4v7.9c0,1.9.9,3.7,2.4,4.8-.3.8-.5,1.7-.5,2.6v3.7c0,3.9,3.1,7,7,7h11.2c3.9,0,7-3.1,7-7v-3.7c0-.9-.2-1.8-.5-2.6,1.5-1.1,2.4-2.9,2.4-4.8v-7.9h1.4c3.3,0,6.1-2.7,6.1-6.1v-4.2h-4.2ZM8.5,13.1h-1.4c-1.8,0-3.3-1.5-3.3-3.3v-1.4h1.4c1.8,0,3.3,1.5,3.3,3.3v1.4ZM29.2,3.5c.4.9,1,2.4,1.5,4,0,0-3,0-3,0,.5-1.6,1.1-3.1,1.5-4ZM16.8,3.5c.4.9,1,2.4,1.5,4,0,0-3,0-3,0,.5-1.6,1.1-3.1,1.5-4ZM15.5,10.3h14.9c1.8,0,3.4,1.2,4,2.8h-3c-3.3,0-6.1,2.7-6.1,6.1v5.1h-4.7v-5.1c0-3.3-2.7-6.1-6.1-6.1h-3c.6-1.6,2.1-2.8,4-2.8ZM11.3,23.8v-7.9h3.3c1.8,0,3.3,1.5,3.3,3.3v5.1h-.5c-1.9,0-3.7.8-4.9,2-.7-.6-1.2-1.5-1.2-2.5ZM32.8,35c0,2.3-1.9,4.2-4.2,4.2h-11.2c-2.3,0-4.2-1.9-4.2-4.2v-3.7c0-2.3,1.9-4.2,4.2-4.2h11.2c2.3,0,4.2,1.9,4.2,4.2v3.7h0ZM34.7,23.8c0,1-.4,1.9-1.2,2.5-1.3-1.2-3-2-4.9-2h-.5v-5.1c0-1.8,1.5-3.3,3.3-3.3h3.3v7.9ZM42.1,9.8c0,1.8-1.5,3.3-3.3,3.3h-1.4v-1.4c0-1.8,1.5-3.3,3.3-3.3h1.4v1.4Z"/>
</svg>